/* XPM */
static char *Ym9uaG9tbWViYWNr[] = {
/* columns rows colors chars-per-pixel */
"40 40 186 2 ",
"   c #020202",
".  c #0B0204",
"X  c #040B02",
"o  c #02020C",
"O  c #030C0E",
"+  c #10010C",
"@  c #030112",
"#  c #02001E",
"$  c #6E3C00",
"%  c #7A3300",
"&  c #733D00",
"*  c #7C3C02",
"=  c #713D0C",
"-  c #7B3F0A",
";  c #7E3E18",
":  c #006F01",
">  c #007601",
",  c #0B7604",
"<  c #017C02",
"1  c #0B7C02",
"2  c #02770C",
"3  c #027D0C",
"4  c #097B09",
"5  c #187405",
"6  c #137B00",
"7  c #107E0D",
"8  c #047611",
"9  c #0E7116",
"0  c #027C10",
"q  c #067A19",
"w  c #6E4601",
"e  c #724302",
"r  c #7C4202",
"t  c #734E00",
"y  c #784B00",
"u  c #77440B",
"i  c #7C440B",
"p  c #774E16",
"a  c #7A4911",
"s  c #853601",
"d  c #8C3503",
"f  c #853A02",
"g  c #8D3D02",
"h  c #8E310F",
"j  c #823C0D",
"k  c #8A3D09",
"l  c #863D14",
"z  c #843F22",
"x  c #834302",
"c  c #8D4302",
"v  c #854509",
"b  c #884109",
"n  c #824808",
"m  c #F57D2F",
"M  c #F47E3E",
"N  c #FD7D3C",
"B  c #FB7D31",
"V  c #FE7E44",
"C  c #FF7E4B",
"Z  c #FF7953",
"A  c #028402",
"S  c #088503",
"D  c #028B01",
"F  c #0B8902",
"G  c #02830C",
"H  c #0A840B",
"J  c #008D0D",
"K  c #168600",
"L  c #009303",
"P  c #008617",
"I  c #0F8817",
"U  c #F48131",
"Y  c #FD8136",
"T  c #FD823B",
"R  c #FF8A3E",
"E  c #FFFD02",
"W  c #F6FF0B",
"Q  c #FCFE08",
"!  c #EE8541",
"~  c #FD8244",
"^  c #FF8A44",
"/  c #FC844B",
"(  c #FE805A",
")  c #FFF778",
"_  c #FDFF7D",
"`  c #3404F3",
"'  c #3B02F5",
"]  c #360AF5",
"[  c #3501FE",
"{  c #3D03FF",
"}  c #3108F8",
"|  c #4101F6",
" . c #4403FB",
".. c #4900FF",
"X. c #430AF9",
"o. c #7579E7",
"O. c #7C7DEA",
"+. c #7479FA",
"@. c #7D7DFC",
"#. c #7C7DF1",
"$. c #836DFE",
"%. c #847FF7",
"&. c #8375FD",
"*. c #8D74FF",
"=. c #807CFD",
"-. c #7381EE",
";. c #6E81F7",
":. c #7687F1",
">. c #7C82F3",
",. c #7D81FD",
"<. c #FEFD87",
"1. c #F6FE9B",
"2. c #8088F7",
"3. c #8685FF",
"4. c #8589FF",
"5. c #8F8AFE",
"6. c #8284F1",
"7. c #E7FEE1",
"8. c #EFF5EB",
"9. c #E5FFEF",
"0. c #EBFDED",
"q. c #EBFEE2",
"w. c #FEF7E6",
"e. c #F4FDE6",
"r. c #FDFDE4",
"t. c #F4F6EF",
"y. c #FEF5EC",
"u. c #F5FCED",
"i. c #FCFDEC",
"p. c #FFEEFF",
"a. c #E2FFF1",
"s. c #EFFEF3",
"d. c #E7FFFE",
"f. c #EEFEFB",
"g. c #F4F4F3",
"h. c #FEF5F4",
"j. c #F4FCF4",
"k. c #FDFDF4",
"l. c #F5F4FD",
"z. c #FEF5FD",
"x. c #F1FFFF",
"c. c #F2FDFE",
"v. c #F7FFFF",
"b. c #F5FFFE",
"n. c #F4FEFD",
"m. c #F9FAF9",
"M. c #F9FFFA",
"N. c #FAFEF9",
"B. c #FEFDF8",
"V. c #FDFEF8",
"C. c #FFFFF8",
"Z. c #FDFDFB",
"A. c #FCFCFA",
"S. c #FEFDFB",
"D. c #FFFFFB",
"F. c #FCFEFA",
"G. c #FAFBFD",
"H. c #F9F8FF",
"J. c #FBFBFF",
"K. c #F9FAFF",
"L. c #FCF9FF",
"P. c #FCFBFF",
"I. c #FDFAFF",
"U. c #FFFBFF",
"Y. c #FEF9FD",
"T. c #F9FDFC",
"R. c #F9FFFD",
"E. c #F8FFFD",
"W. c #F9FCFF",
"Q. c #FBFFFF",
"!. c #FAFDFE",
"~. c #FDFDFD",
"^. c #FFFFFD",
"/. c #FDFDFF",
"(. c #FCFCFF",
"). c #FFFCFF",
"_. c #FFFDFF",
"`. c #FEFDFF",
"'. c #FDFEFF",
"]. c #FDFFFE",
"[. c #FFFEFF",
"{. c #FEFFFF",
"}. c white",
"|. c #FEFEFE",
" X c #FDFDFD",
".X c #FDFDFD",
/* pixels */
"F.G.k.`.k.N.`.`.F.k.Q.k.B.P.N.k.z.Q.F.%.k.n.n.k.P.P.k.Y.F.B.`.Y.k.N.`.F.G.k.`.F.",
"G.k.P.k.`.N.F.`.`.`.`.`.n.N.B.P.e.T N M Z N B.z.`.k.G.k.F.`.B.`.F.F.F.Q.k.G.B.`.",
"j.H.i.`.F.N.`.F.F.`.B.n.F.`.Q.N.( U T ^ N ^ ~ x.Q.j.G.Q.G.n.j.N.F.`.F.k.H.t.P.F.",
"m.j.G.B.F.`.k.`.`.n.P.Q.k.P.`.~ T Z N C V B Y V N.Q.N.b.n.k.Q.F.`.B.`.B.k.H.k.`.",
"F.`.B.F.`.k.`.F.Q.n.P.Q.k.P.`.~ T C N V V / Z / F.`.N.G.P.B.G.F.B.P.k.`.F.F.`.`.",
"F.B.F.`.k.`.k.`.Q.`.k.k.B.`.Q.n./ T R Y T T m N.`.F.P.`.P.z.B.`.P.k.`.k.`.`.F.`.",
"F.F.`.k.P.i.`.B.`.`.Q.`.m.Q.k.Y.P._ m C Y ) `.k.`.B.G.F.F.G.B.`.k.z.k.P.B.`.F.`.",
"P.F.F.F.B.`.F.`.N.k.n.k.B.z.N.B.k.n._ 1.<.n.Q.B.N.Q.k.k.F.k.`.`.P.k.P.k.Q.F.`.`.",
"`.`.`.`.`.`.`.F.`.b.k.F.z.j.N.z.c.z.9._ b.P.z.P.F.P.k.Q.y.h.Q.f.h.n.u.f.P.k.k.`.",
"`.`.`.`.`.`.`.F.t.P.x.m.i.`.l.k.A K 3 < J D A n.F.j.f.z.f.k.G.z.c.z.z.`.k.y.b.`.",
"`.`.`.Q.`.`.`.F.`.x.j.h.z.n.`.< < D S G 8 5 A A z.i.b.k.x.B.j.r.k.f.c.l.x.P.h.F.",
"`.`.`.`.`.`.`.F.z.m.`.z.n.k.D D 2 3 , < < G 6 F A Y.l.B.Q.`.k.l i w.j.`.i.c.`.P.",
"`.`.`.Q.`.`.`.F.x.h.G.B.b.9 D < F.7 1 A P , F.3 < 1 8 A < q E E E P.g.Y.w.Q.N.N.",
"`.`.`.`.`.`.`.F.j.i.G.k.< A 4 m.9.< < S A 3 b.k.D 3 D A S A W E Q b.f.m.b.Q.t.k.",
"`.`.`.`.Q.`.`.F.f.0.`.k.A L 0.P.P.H 1 D P > `.z.P.G.i.l.P.c.r b g $ G.i.Y.k.x.P.",
"`.`.`.Q.`.`.`.F.x.h.f.h.8 < `.k.G.< G A < < f.F.i.P.f.i.i d v = x c l z.i.b.Y.`.",
"Q.Q.Q.Q.Q.N.Q.Q.`.f.k.x.A 3 F.G.P.> S > S 4 j.P.P.k.k.k e g X *   c f u b.r.`.P.",
"B.F.F.B.F.B.B.B.y.P.r.m.3 H t.j.u.S 4 A G < b.i.j.h.r = . X   X o o . r * b.u.b.",
"`.`.`.`.`.`.`.`.N.Q.Y.B.E E k.b.k.< A G D > j.u.`.k.; i s t O % X t . c b z.k.`.",
",.,.,.,.,.,.,.,.+.:.=.-.Q E ;.,.&.P < < A H O.*.6.+.r f d c o x o   j r e >.5.&.",
"`.`.`.`.`.`.`.`.P.k.P.`.j.b.h.N.n.< F A < H Q.P.P.Q.g a v % . o   r n b f Y.e.G.",
"`.`.`.N.N.`.F.F.N.P.j.k.k.F.i.`.z.< < 3 A , Q.k.s.N.y f - O o * + u r f f r.c.P.",
"`.Q.Q.`.`.`.`.`.P.b.P.h.N.Y.k.j.Q.I 4 S A A g.i.i.P.h j   & X r   c z s c `.z.k.",
"N.Q.N.N.N.N.N.k.y.Q.s.B.z.P.k.x.k.> A A > 4 Q.`.m.n.k.x o .   +     . p n.n.k.`.",
"`.`.Q.`.`.`.`.F.N.F.F.i.`.`.j.i.Y.b * i v * Q.N.P.P.`.p.x t + f o * r `.l.k.Q.b.",
"`.Q.`.Q.`.`.F.`.Q.i.`.P.i.`.z.l.k.$ x r f v `.0.i.p.i.d.k.& i x g f i.x.i.k.F.B.",
"`.`.`.`.`.`.`.F.`.k.m.B.i.k.`.k.] .... .{  .[ z.t.k.k.m.N.P.P.Q.b.b.n.P.g.Q.l.y.",
"`.`.Q.`.`.`.`.F.F.`.H.B.Q.k.k.{ ' { r.$.`.X.{  .P.f.P.h.F.G.`.f.x.j.y.k.x.f.N.Q.",
"`.`.Q.`.`.`.`.F.`.i.`.P.B.k.{ { { u.G.3.7.r.' ..} F.b.k.i.`.z.i.y.`.`.m.x.k.h.G.",
"`.Q.`.`.`.`.F.`.t.F.G.j.F.`.' | `.s.k.-.f.k.Y. .[ Y.x.G.`.q.n.N.B.b.u.F.f.j.`.Q.",
"`.`.`.Q.`.`.`.F.z.B.`.k.n.i.[  .k.Q.z.&.y.z.k.[ X.y.z.`.F.k.z.Y.`.u.b.`.`.G.k.Y.",
"`.`.`.`.`.`.`.F.`.Q.k.G.`.h.{  .k.`.F.2.B.n.i.| ` P.`.m.e.n.P.j.x.B.y.y.Q.G.Q.k.",
"Q.`.F.P.F.P.F.`.`.G.`.`.B.k.[  .h.F.`.#.`.`.i. .{ y.B.`.`.B.`.Y.F.B.P.k.Q.F.`.`.",
"N.F.Y.k.G.i.P.B.k.`.k.F.i.`.} [ P.F.P.4.k.Q.F.[ ` P.B.i.8.`.i.F.B.P.i.P.B.`.N.`.",
"`.F.B.F.k.`.k.`.B.`.`.  # o   . i.j.B.@.B.`.Q.. .   o   `.`.`.B.P.i.P.k.`.`.F.`.",
"F.`.B.F.`.i.`.B.`.G.B.  o o     F.Q.B.#.k.m.j.    @ @ . F.n.k.`.B.`.B.`.F.F.`.`.",
"N.k.Q.B.F.F.k.`.t.F.k.`.t.F.`.n.k.c.`.@.`.`.n.F.n.B.e.B.h.`.i.t.`.B.`.N.k.G.k.`.",
"j.H.i.`.B.F.Y.F.`.g.j.B.Q.Q.k.`.l.j.k.=.`.r.u.B.N.G.`.`.j.k.P.Y.B.`.N.k.G.t.P.F.",
"m.k.G.k.`.k.Y.`.`.k.B.`.e.i.P.B.k.`.`.o.`.`.n.Y.`.r.t.B.P.t.i.P.F.Q.F.`.k.H.B.`.",
"`.G.j.Q.k.n.m.`.k.i.H.k.P.P.k.P.P.k.e.4.Q.r.n.`.`.Y.`.i.H.k.B.F.k.N.`.F.G.k.`.`."
};
