/* XPM */
static char *Ym9uaG9tbWVsZWZ0[] = {
/* columns rows colors chars-per-pixel */
"40 40 187 2 ",
"   c #030301",
".  c #0B0001",
"X  c #000901",
"o  c #080A00",
"O  c #02020A",
"+  c #0B000C",
"@  c #0F0909",
"#  c #130000",
"$  c #001200",
"%  c #040214",
"&  c #0C0112",
"*  c #000A12",
"=  c #6D3600",
"-  c #6E3F07",
";  c #623F05",
":  c #713300",
">  c #763C01",
",  c #7C3D03",
"<  c #763B0C",
"1  c #7C3A0D",
"2  c #7C3300",
"3  c #7D3D11",
"4  c #027C01",
"5  c #0B7C00",
"6  c #087108",
"7  c #057D0B",
"8  c #0B7C09",
"9  c #0B7604",
"0  c #127000",
"q  c #017F11",
"w  c #087814",
"e  c #09761B",
"r  c #0B7D24",
"t  c #6E4801",
"y  c #6A4808",
"u  c #624702",
"i  c #754202",
"p  c #7D4301",
"a  c #7D4A03",
"s  c #76440A",
"d  c #7F460F",
"f  c #734901",
"g  c #784414",
"h  c #694719",
"j  c #007678",
"k  c #0A7B7B",
"l  c #047C7B",
"z  c #902F04",
"x  c #803704",
"c  c #833D00",
"v  c #8C3D01",
"b  c #863D0D",
"n  c #8A3707",
"m  c #933807",
"M  c #843B14",
"N  c #893F10",
"B  c #844302",
"V  c #8C4303",
"C  c #814803",
"Z  c #834009",
"A  c #8B430A",
"S  c #96400D",
"D  c #8F4715",
"F  c #FF7E36",
"G  c #FF7C3C",
"H  c #018301",
"J  c #0A8503",
"K  c #008900",
"L  c #008B0A",
"P  c #0A830F",
"I  c #009200",
"U  c #018414",
"Y  c #09851A",
"T  c #11841F",
"R  c #00807B",
"E  c #00887B",
"W  c #0A8176",
"Q  c #F6842E",
"!  c #EE833B",
"~  c #FF8038",
"^  c #FA8A3E",
"/  c #E5FF09",
"(  c #EAFB00",
")  c #FFF600",
"_  c #F2FF00",
"`  c #FFFF02",
"'  c #F4FF09",
"]  c #FFFF0E",
"[  c #F98740",
"{  c #FB8943",
"}  c #FC8658",
"|  c #FDFC75",
" . c #FDFE7A",
".. c #FEF576",
"X. c #007783",
"o. c #007981",
"O. c #017D8B",
"+. c #157C83",
"@. c #0204ED",
"#. c #0000F3",
"$. c #000EF7",
"%. c #0302FC",
"&. c #0708F8",
"*. c #0C0AFF",
"=. c #0A06FD",
"-. c #1600FF",
";. c #7C7BEC",
":. c #767AE8",
">. c #6E7CF7",
",. c #727FF1",
"<. c #797EF6",
"1. c #7B7EFD",
"2. c #7979FB",
"3. c #F10AEE",
"4. c #FE0DFF",
"5. c #857FFD",
"6. c #008483",
"7. c #088485",
"8. c #008991",
"9. c #7686F7",
"0. c #7D82F3",
"q. c #7082FF",
"w. c #7C82FC",
"e. c #7289FF",
"r. c #7C8AFF",
"t. c #BEC2B1",
"y. c #FFEF85",
"u. c #EFFF8C",
"i. c #F4FE85",
"p. c #FDFE82",
"a. c #FDFF8D",
"s. c #FFF28C",
"d. c #BBBDD2",
"f. c #8086E4",
"g. c #8384FD",
"h. c #8089FF",
"j. c #C5B6C9",
"k. c #B9C6D9",
"l. c #C3C2D0",
"z. c #FDFDD3",
"x. c #FBFDDA",
"c. c #F7EDEE",
"v. c #E6FFEC",
"b. c #F6F9E4",
"n. c #FEFDE3",
"m. c #FCF6ED",
"M. c #F4FDED",
"N. c #FDFDEC",
"B. c #F2F5EA",
"V. c #F7EEFF",
"C. c #FAEAF4",
"Z. c #EBFEF2",
"A. c #EDFEFE",
"S. c #E6FCFA",
"D. c #F7F3F1",
"F. c #FEF5F4",
"G. c #F4FDF4",
"H. c #FDFDF4",
"J. c #F6F5FF",
"K. c #FDF5FE",
"L. c #F4FEFD",
"P. c #FDFEF9",
"I. c #FDFDFB",
"U. c #FCFCFA",
"Y. c #FCFEFB",
"T. c #FFFFFB",
"R. c #FEFFFB",
"E. c #FEFDF8",
"W. c #FBF9FF",
"Q. c #F9FAFD",
"!. c #FDF9FF",
"~. c #FFFBFF",
"^. c #FDFAFE",
"/. c #FBFFFF",
"(. c #FAFDFE",
"). c #FDFDFD",
"_. c #FFFDFD",
"`. c #FEFEFC",
"'. c #FFFFFD",
"]. c #FFFEFC",
"[. c #FDFDFF",
"{. c #FFFDFF",
"}. c #FDFFFF",
"|. c white",
" X c #FEFEFF",
".X c #FDFFFD",
"XX c #FDFEFE",
/* pixels */
"Y.Q.H.).P.P.)._._._.Y.Y._._._._.N._.K.<.^.J.G.^.E.F.L.E.Y.Y.L.H._.Q._._.J._.^._.",
"Q.H.).E._.P.)._._._._._._._._.Y.v.F.^ } G K.H.M.L._.H.A.H.^.L.).D.H.m.M.N.L.G.L.",
"G.W.N._.Y.).).)._._._._._._._.Y._.Q...F ! Q W.A.L.Y.Y.N._.E.H.Q.).L._.b.P.b.Q.Y.",
"Q.M.Q.E.Y.).H.)._._._._._._._._.D.G.o s.[ F ^ W.E.).A.Y.Q.^.L.m.Q.G.L.L.P.W.m.^.",
"Y._.E.Y._.H._.Y._._._._._._.).P.^.i... .a.u.Q.N.Q.L.F.).H.L._.n.x.E.N._._.H.).L.",
"_.Y.Y._.H._.H._._._.).).).).).H.A.^.4.3. .p.)._.G.).m s n f L.L.Y.B.^.H.F.E.).A.",
"Y.U.Y.H.^.H._.Y._._._._._._.).L._.K.y.p.|  .M.L.m u g S y Z n H.H.J.H.Q.H.H.H._.",
"U.U.Y.Y.E._._._.Y.Y.Y._._.).P.).Z.H.Z.a.i.b B M v B Z i . > & c h z.P.A.L.Q._.Y.",
"_._.).)._._._._.Q._.L.N.K.L.)._.Q.H.H. .p.c a. .b , O   X   X #   n A.K.L._.N.Y.",
"_._.)._._._._._._.G.L.K.N.N.L.F.A.7 Y 4 U 4 7.l B M C N   c O g   s _.M.N.^.A.L.",
"_.).).)._._._._.m.L._.U.E.).W.Q.).0 t.K o.J Q.7.E A 2 > & N + O C A i L.H.N.L._.",
"_.)._.)._._.Y.Y.L.H.U.Q.S.).E.H.H 5 9 k 7.W L.j l B C Z . X X A 3 B , L._.K.L.Y.",
"_.).).)._._.Y.Y._.J.).b.^.).4 H 7 5 L H X.O.k +.E p u O . i . p s v < ).G.^._.Y.",
"_.).).)._._.Y.Y.)._.H.^.Y.q 4 K H r l.4 T E 7.l W z . V % t O > B S a L.H.U.H.L.",
"_.).)._.)._._.E.K.z.Y.F.( 4 9 e ^.H 8 H 4 H K.O.8.3 O + +   X   @ : c H.A.).Y._.",
"_._.).)._._.P.Y.L.^.G.' ` _ 7 L.^.H H 8 5 7 A.E.J.a i B * c + i 1 D c A.L.F.E.L.",
").).).)._.Y.Y.Y.P.Q.H._./ H.).L.n.w k.4 Y 5 m.L.Q.A.v 1 . V B , v y L.L.G.L.Q._.",
"Y.Y.P.Y.E.E.H.E.W.U.H.m.C.^.N.).^.H H 5 6 H Y.H.x.L., C p = B B f K.H.n.K.m.H.Y.",
"_._._._._._._._.N.)._.U.^.^._.H.K.5 J H I Y Q.F.L._.K., x A < c _.N.A.K.H.G.H.L.",
"w.w.w.w.w.w.0.w.0.w.1.;.g.f.1.9.<.K j.H 7 4 :.w.g.2.q.e.f.2.g.g.w.>.g.9.9.w.g.5.",
"_._._._._._._._._.H.).H.^.Y.U.P.H.q 5 H P 4 E.M.).F.K.H.^.H.K.M.).H._.L.A.).Q.).",
"_._.).)._._.).Y.Y.H.).).x.Y._.H.K.4 H J H P c.U.L.).E.N.A.H._.K.G._.M.Q._.M.m.).",
"_._.).).).).^._.K.Q._.)._.E._.).M.H d.4 4 P P.^.L.S.m.Y.F.L.P.L._.E.K.^.B.^.N.).",
"Y.Y.L.).P._._.Y.n.).P.G._.N.Q.G.^.H 8 H H 4 ).L.Y.H.).Q.Q._.H._.H.H.M.L._.N._.L.",
"_._._.).)._._._._._._._._._.).).).Z.) A V 1 _.P._._._._._._._._._.).)._.)._._._.",
"_._.).).)._._._._._._._._._._.).W.G.] > > f Q.E._._._._._._._._._._.).).)._._._.",
"_.).).).)._._._._._._.)._._._.)._.L.%.*.%.%.).L._._._._._._._._._.).)._.)._._._.",
"_.)._.)._._._._._._._._._._._._.K.U.#.@.%.@._.Y._._._._._._._._._.).).).)._._._.",
"_.).)._.)._._._.)._._._._._._.Q.P.P.).*.%.P.A.)._._._._._._._._._.)._.).)._._._.",
"_.).).).)._._._._._._._._._.).P.m._.K.@.%.N.).Y._._._._._._._._._.).).).)._._._.",
"_._.).).)._._._._._._._._._._._.L.H.N.=.&.L.F.P._._._._._._._._._.).).)._._._._.",
"_.).)._.)._._._._._._._._._._.Y.G.Q.K.#.%.Y.L._._._._._._._._._._.)._.).)._._._.",
").).Y.Y.H.)._._.).).).).).).P.L.Y.E.).$.%.M._.E.Y._.)._.).).).)._.Y._.H.).).).).",
").P.Q.H.Q.N.).P._._._.).)._.Y.H._.^.Q.%.-.Y.Q.^._._._._._._._._.E.Q.H.^.P.).).).",
"_.Y.Y._.H.).H._._._._._._._._.Y.    O $ O x.P._._._.)._._._._._.Y.H.^.H.)._._._.",
"Y._.E.Y._.H.)._._._.).).).)._.H.    & X . E.L._.)._.).)._._._._.E._.E._._.P._._.",
"U.H.).H.).).H.).).).).).).).).L.Q.L.H.;.K.Y.L._.).L.).).).L.).L._.E.).P.H.Q.E._.",
"H.Q.N._.P.).).).).).L.).).).).P.P.P._.g.m.W.L.L.).).L.).).).).L.Y._.).P.W.M.^.Y.",
"Q.F.L.H.).E.P._.).).).)._._.).).).H.^.9.).H.H.)._.)._._._._.).).Y.).P.).F.Q.Y._.",
"P.Q.H.).P.L.P.)._._._._._._._.).E._.F.r.L.H.H.)._._._._._._._._.H.P.).P.).G._._."
};
