/* XPM */
static char *_6cbeb9dd5e1405cc368f01ce255e04frVJVfc9vFX1S3Pcw[] = {
/* columns rows colors chars-per-pixel */
"40 40 179 2 ",
"   c #020102",
".  c #0B0002",
"X  c #070800",
"o  c #01010A",
"O  c #03080B",
"+  c #000011",
"@  c #0A0010",
"#  c #763E02",
"$  c #7B3D01",
"%  c #7C3E09",
"&  c #006B00",
"*  c #027300",
"=  c #097500",
"-  c #027C01",
";  c #0B7C03",
":  c #0C770F",
">  c #037C0A",
",  c #007A17",
"<  c #734400",
"1  c #7C4302",
"2  c #7D4902",
"3  c #7C450B",
"4  c #843300",
"5  c #8D3604",
"6  c #843C01",
"7  c #8B3C01",
"8  c #843A0B",
"9  c #8C3809",
"0  c #844201",
"q  c #894201",
"w  c #844B00",
"e  c #81430D",
"r  c #89440D",
"t  c #854113",
"y  c #F30076",
"u  c #F60973",
"i  c #FF7F44",
"p  c #FF7E4D",
"a  c #018301",
"s  c #0B8102",
"d  c #018901",
"f  c #01820A",
"g  c #008010",
"h  c #FF812D",
"j  c #FE813C",
"k  c #FAFF00",
"l  c #FFFE0E",
"z  c #FE8243",
"x  c #FF8250",
"c  c #FFFE67",
"v  c #FFFD6E",
"b  c #F5FF73",
"n  c #FDFE7C",
"m  c #3300E5",
"M  c #3406ED",
"N  c #3701F6",
"B  c #3C02F3",
"V  c #3502FE",
"C  c #3D02FE",
"Z  c #3C08FE",
"A  c #4000F6",
"S  c #4402FF",
"D  c #4A03FF",
"F  c #7A7EF5",
"G  c #767DFE",
"H  c #7B7DFE",
"J  c #FF008C",
"K  c #847BFE",
"L  c #8979FD",
"P  c #7B81EC",
"I  c #7683F5",
"U  c #7D83F5",
"Y  c #7D82FD",
"T  c #FFF784",
"R  c #FEFE84",
"E  c #FEFE8B",
"W  c #F2FA83",
"Q  c #8383F5",
"!  c #8283FE",
"~  c #8E85FF",
"^  c #ECFCEF",
"/  c #FCFAE5",
"(  c #FFF6ED",
")  c #F2FFEE",
"_  c #FCFEEE",
"`  c #EEFEF4",
"'  c #E7FFFF",
"]  c #ECFFFD",
"[  c #FFF6F4",
"{  c #F5FEF4",
"}  c #FDFEF4",
"|  c #F7F7FF",
" . c #FEF5FE",
".. c #F7FFFD",
"X. c #F5FFFF",
"o. c #F7FFFF",
"O. c #F6FFFF",
"+. c #F4FFFC",
"@. c #F5FEFD",
"#. c #FBFBF9",
"$. c #FFFAFB",
"%. c #FFFBFB",
"&. c #FCFBFA",
"*. c #FBFDF8",
"=. c #F8FFF8",
"-. c #FAFFF8",
";. c #F8FFFA",
":. c #FBFDFA",
">. c #FDFCF8",
",. c #FCFDF8",
"<. c #FFFDF8",
"1. c #FFFDF8",
"2. c #FDFEF8",
"3. c #FCFFF8",
"4. c #FDFEF9",
"5. c #FFFFF8",
"6. c #FFFEF9",
"7. c #FEFFF9",
"8. c #FFFEF8",
"9. c #FDFCFA",
"0. c #FDFDFB",
"q. c #FCFCFA",
"w. c #FCFFFA",
"e. c #FCFEFB",
"r. c #FFFFFB",
"t. c #FFFFFA",
"y. c #F9F9FF",
"u. c GhostWhite",
"i. c #FBF8FF",
"p. c #FAF9FF",
"a. c #FAFAFF",
"s. c #FBFBFF",
"d. c #F9FAFF",
"f. c #FDFBFC",
"g. c #FFFAFD",
"h. c #FFF9FF",
"j. c #FFF8FF",
"k. c #FDFAFF",
"l. c #FDFBFF",
"z. c #FFFAFF",
"x. c #FEFBFF",
"c. c #FFFBFF",
"v. c #FFFBFE",
"b. c #FEF9FE",
"n. c #F9FFFD",
"m. c #FBFFFD",
"M. c #F9FDFF",
"N. c #FBFCFF",
"B. c #FBFDFF",
"V. c #F8FFFF",
"C. c #F8FEFF",
"Z. c #FAFFFF",
"A. c #FBFFFF",
"S. c #FAFFFE",
"D. c gray99",
"F. c #FDFDFD",
"G. c #FFFDFD",
"H. c #FCFEFD",
"J. c #FEFEFC",
"K. c #FFFFFD",
"L. c #FFFFFD",
"P. c #FDFCFF",
"I. c #FCFDFF",
"U. c #FDFDFF",
"Y. c #FCFCFE",
"T. c #FFFDFE",
"R. c #FFFCFF",
"E. c #FEFDFF",
"W. c #FFFDFF",
"Q. c #FFFCFF",
"!. c #FDFFFE",
"~. c #FDFEFF",
"^. c #FCFFFF",
"/. c #FEFEFE",
"(. c #FEFEFF",
"). c #FFFEFF",
"_. c #FEFFFF",
"`. c white",
"'. c #FDFDFD",
/* pixels */
"F.*.a.=.D.=.&.&.F.3.F.3.} l.F.F.F.{  .! { F.F.3.4.F.F.F.F.F.F.F.4.F.4.F.3.F.=.F.",
"4.a._ a.3.F.&.4.F.F.F.F.| D.3.F.3.j p j h i 3.+.F.F.F.F.F.F.F.F.F.4.F.4.a._ a.4.",
"l.{ | } F.4.3.&.*.F.F.@.+.=.D.D.z W b E n n x F.F.F.F.F.F.F.F.F.F.4.F.F.} | { a.",
"4.a._ l.F.4.l.1.@.@.l.@.3.a.F.z R R   R . n n p F.F.F.F.F.F.F.F.4.F.4.4.F._ | &.",
"F.4.F.F.4.F.} F.F.@.l.D.4.l.F.z R R R R E E v z F.F.F.F.F.F.F.F.F.3.F.3.F.F.4.F.",
"F.F.F.4.F.} l.4.3.l. .D.4.4.F.F.n R n R b E n 3.F.F.F.F.F.F.F.F.4.l.} F.4.F.F.F.",
"F.F.3.l.3. .} 4.l.l.F.F.| D.3.&.F.v u y J R | =.F.F.F.4.F.F.F.F.F.} l.} F.4.F.F.",
"F.F.&.1.l.4.l.4.F.3.F.{ } l.D.F.@.4.E E n } 4.l.F.F.F.F.F.F.F.F.F.l.4.F.4.F.F.F.",
"4.F.F.+.@.F.3.D.@.3.3.l.l.{ F.F. .l.F.n ` l.{ F.4.4.l.F.4.@.F.=.F.F.F.F.F.F.F.F.",
"*.3.F.l.F. .D.D.l.{ 4.&.@.F.4.F.d d a - > a d F.F.F.} *.+.l.#.l.F.F.F.F.F.F.F.F.",
"3.@.=. .@.@.} ( 4.F.F.D.4.| 1.a a = , [ d f - ; F.{  .4.4.*.D.F.F.F.F.F.F.F.F.F.",
"*.D.3.F.D.#.3 t } F.F.F.l.4.- a ; f - a = a > a f F.*. .F.l.4.F.F.F.F.F.F.F.F.F.",
"D.F.1.F.[ D.n 6 E : - f * = f f @.* f d f s F.a a f @.F.F.F.] *.F.F.F.F.F.F.F.F.",
"l.F.@.a.+.+.E 1 c f d a d > d F.F.d a l.= f ` 4.> = f 4.a.l.D.l.F.F.F.F.F.F.F.F.",
"F.4.D.{ D.# 5 6 3 D.F. ._ F.4.l.4.- f d ; a F. .} d f } F.` D.F.F.F.F.F.F.F.F.F.",
"F.D.*.l.% q 0 < 0 6 3 F.+.F._ D.@.- - a f > F._ F.> > &.*.F.@.4.F.F.F.F.F.F.F.F.",
"l._ F.3 3 0   1   7 < 6 F.l.l.l.+.= ; ' > > 1.+.F.d a @.4.@.F.D.F.F.F.D.D.D.F.F.",
"*.3.$ 1 . o o   .   @ $ 2 F._ ) l.d f a - - [ } 3.- - #.} F.3.4.4.4.4.4.4.F.4.4.",
"a.@.0 e   0 X $   2 4 w % 3.l.=.4.& f - d d l.F.4.T R 4.F.F.F.4.F.F.F.F.F.F.F.F.",
"~ Y $ q 6     1   r 9 $ # H Q L P d f F.- ; H G G R R P Y Y G Q ! ! Y Y Y Y ! ! ",
"/ l.0 8 2 1   .   # 1 1 q 3.l.l.F.d > - d * l.} F.@.D.l.*.F.F.F.F.F.F.F.F.F.F.F.",
"@.} $ 7 2 <   %   O 0 $ 2 4.a.=.*.= s f ; d [ 3.F.4.3.4.+.F.4.D.4.F.F.F.F.F.F.F.",
"F.F.7 6 t 7 X $   $ . 3 5 l.3.4.F.a d a.f d F.{ 4.l.F.=.F.l.F.F.F.F.F.F.F.F.F.F.",
"=.D.*.3     o         1 _ l.+.F.@.- - > a - F.D.3.F.F.3.1.4.F.*.F.4.F.F.F.F.4.F.",
"D.4.l.F.6 1   6 o w 1  .D.F.F.F.D.6 0 k 0 $ l.3.F.F.F.F.4.F.4.F.F.F.F.F.F.F.F.F.",
"3.F._ ] 4.0 6 0 r < &.+.*. .D.{ F.3 3 l 6 # } l.F.F.4.l.F.4.F.F.F.F.F.F.F.F.F.F.",
"1.D.@.F.F.F.D.+.4.F.F.4.l.3.4.l.V B S A S D B F.F.F.3.F.F.4.F.4.F.F.F.F.F.F.F.F.",
"D.D.] 3.( @.@.*.F.F.*.l.F.D.F.S S S F.L _ V C S 4.F.F.3.F.F.3.F.F.F.F.F.F.F.F.F.",
"F.[ D.D.F.F.[ 4.a.&.F.=.@.D.M A B 3.) K @.} N D V F.=.D.F.4.F.l.F.F.F.F.F.F.F.F.",
"F.=.` F.4.@.F.3.{ =.F.[ F.F.C S D.4.@.I 4.F.@.S C 4.F.D.3.F.4.F.F.F.F.F.F.F.F.F.",
"#.&.F.D.D.F.F.F. .} F.F.D.[ S Z F. .4.L l.l.l.N S &.D.D.F.F.l.F.F.F.F.F.F.F.F.F.",
"D.| F.l.3.3.l.F.F.D._ l.F.} C C _ F.*.! *.4.&.Z C 4.F.F.F.l.F.3.F.F.F.F.F.F.F.F.",
"F.F.D.4.F.3.l.4.F.F.F.D.3.[ S S *.F.F.Y F.F.[ Z B l.l.F.F.4.F.F.4.F.4.l.4.l.l.F.",
"F.D.*.l.[ l.} &.F.F._ 3.F.l.m Z +.F.4.! &.3.l.V V l.3.4.F.F.F.F.F.}  .} F.4.&.F.",
"F.F.F.4.F.} l.4.l.4.F.  o o   . D.*.F.G 3.F.}       +   F.*.F.l.4.l._ l.4.F.F.*.",
"F.4.F.F.4.F.} F.4.D.F.  o       } F.4.U } | 4.          F.4.F.} F.} F.4.F.F.4.l.",
"4.a._ a.F.4.F.&.*.F.=.F.#.F.D.+.D.F.F.H F.D.F.F.D.D.D.D.@.#.F.F.4.F.4.F.F.} a.=.",
"a.} | } F.F.4.&.F.4.&.4.3.l.D.*.=.F.4.! 4.{ a.F.F.@.4.3.#.4.3.3.&.4.F.F.} | } a.",
"3.a._ a.3.F.4.&.} 3.F.F.3._ F.D.D.F.&.F F.F._ F.D.3.F.l.F.#.4.F.&.&.F.3.a._ a.4.",
"F.=.a.*.F.4.#.4.F.3.F.} F.F.3.F.D._ F.! =.4.l.F.F.F.4.3.l.F._ F.4.&.4.F.=.D.*.D."
};
