/* XPM */
static char *Ym9uaG9tbWVyaWdodA__[] = {
/* columns rows colors chars-per-pixel */
"40 40 166 2 ",
"   c #020102",
".  c #080002",
"X  c #000B00",
"o  c #00000D",
"O  c #0B0008",
"+  c #030A0A",
"@  c #050112",
"#  c #753D00",
"$  c #7D3D01",
"%  c #743D09",
"&  c #7A3D0A",
"*  c #037601",
"=  c #017D01",
"-  c #0B7C02",
";  c #037F0C",
":  c #09790B",
">  c #137703",
",  c #0C7B16",
"<  c #6E4106",
"1  c #6D440C",
"2  c #764305",
"3  c #7C4303",
"4  c #724A00",
"5  c #784903",
"6  c #74410C",
"7  c #754212",
"8  c #7B4312",
"9  c #097E75",
"0  c #007E7E",
"q  c #097B7C",
"w  c #117D7F",
"e  c #8B3700",
"r  c #833D01",
"t  c #8A3B02",
"y  c #813D0B",
"u  c #8A3C09",
"i  c #834201",
"p  c #8A4402",
"a  c #86410A",
"s  c #88420E",
"d  c #824B0B",
"f  c #904600",
"g  c #FF7B36",
"h  c #FF7D4F",
"j  c #018301",
"k  c #0C8002",
"l  c #008A02",
"z  c #02810B",
"x  c #0A820C",
"c  c #008115",
"v  c #008175",
"b  c #01817A",
"n  c #FD8336",
"m  c #FC813D",
"M  c #EBFF01",
"N  c #F4FF00",
"B  c #FEFE02",
"V  c #F58347",
"C  c #FD8247",
"Z  c #F8FF76",
"A  c #F5FF7E",
"S  c #FEFF7B",
"D  c #007C84",
"F  c #007A89",
"G  c #0000E9",
"H  c #0001F6",
"J  c #0102FC",
"K  c #0A01FD",
"L  c #1000FF",
"P  c #717EE7",
"I  c #7A7DEE",
"U  c #7977F4",
"Y  c #7C7CF6",
"T  c #7677FF",
"R  c #7B7DFF",
"E  c #FF00F5",
"W  c #FF09FB",
"Q  c #817DF9",
"!  c #018283",
"~  c #00838A",
"^  c #008D89",
"/  c #7C83ED",
"(  c #7C84F6",
")  c #7481FF",
"_  c #7C82FD",
"`  c #C3BCAC",
"'  c #F4FF87",
"]  c #FCFE84",
"[  c #FFF589",
"{  c #FDFE89",
"}  c #BDBFCE",
"|  c #8481E8",
" . c #8183FD",
".. c #8B82F9",
"X. c #C7BAC4",
"o. c #B3CBCF",
"O. c #BCC3CB",
"+. c #FFFFDC",
"@. c #FFEFEF",
"#. c #EEFEEC",
"$. c #FFFCE3",
"%. c #F5F6EE",
"&. c #F4FEEC",
"*. c #FCFDEE",
"=. c #EEFFFF",
"-. c #F6F6F6",
";. c #FEF6F3",
":. c #F5FEF4",
">. c #FDFDF4",
",. c #F7F7FF",
"<. c #FDF6FD",
"1. c #F5FEFE",
"2. c #FFFDF8",
"3. c #FDFEF9",
"4. c #FDFFF9",
"5. c #FDFFF8",
"6. c #FFFEF9",
"7. c #FEFFF8",
"8. c #FDFDFB",
"9. c #FCFCFA",
"0. c #FFFDFA",
"q. c #FCFFFB",
"w. c #FFFFFA",
"e. c #FFFFFB",
"r. c #FEFFFB",
"t. c #FCFDF8",
"y. c #F9F9FF",
"u. c #FAFBFF",
"i. c #F8FBFF",
"p. c #FFFBFD",
"a. c #FFF8FF",
"s. c #FFF9FF",
"d. c #FFF9FE",
"f. c #FDFAFF",
"g. c #FFFAFF",
"h. c #FFFBFF",
"j. c #FEFBFF",
"k. c #FEF9FE",
"l. c #F9FFFD",
"z. c #F8FDFF",
"x. c #FBFCFF",
"c. c #F9FFFF",
"v. c #F9FFFF",
"b. c #FBFFFF",
"n. c #FBFFFF",
"m. c #FBFEFD",
"M. c gray99",
"N. c #FDFDFD",
"B. c #FFFCFD",
"V. c #FEFEFC",
"C. c #FFFFFD",
"Z. c #FEFFFD",
"A. c #FDFCFF",
"S. c #FDFDFF",
"D. c #FCFCFF",
"F. c #FFFDFF",
"G. c #FFFDFF",
"H. c #FDFFFE",
"J. c #FDFEFF",
"K. c #FCFFFF",
"L. c #FEFEFE",
"P. c #FFFEFF",
"I. c #FEFFFF",
"U. c white",
"Y. c #FEFEFF",
"T. c #FEFEFE",
/* pixels */
"h.G.y.7.G.2.h.;.7.>.1.>.G.h.2.h.5.1.y.Y G.b.>.m.G.7.7.G.G.G.G.G.y.7.7.G.5.b.5.G.",
":.1.&.m.>.G.-.G.1.h.G.1.7.m.i.7.b.h.g h n <.#.G.G.G.G.G.G.7.G.7.7.7.G.7.y.&.y.G.",
"G.%.y.&.b.b.m.:.2.7.y.b.7.9.:.=.h.g V g ] h.h.h.G.G.G.G.G.G.G.G.G.m.G.G.>.,.&.y.",
">.;.>.G.b.-.G.>.b.1.G.G.=.h.b.9.C n C {   :.-.7.G.G.G.G.G.G.G.G.7.G.>.7.h.*.,.2.",
"1.5.h.7.>.G.$.>.2.y.*.9.G.1.;.2.h.A ] S S { G.7.G.G.G.G.G.G.G.G.G.>.G.>.G.G.>.b.",
"1.y.h.>.G.&.b.:.b.5 e d r b.m.b.1.] Z E W <.G.:.G.G.G.G.G.G.G.G.7.h.>.G.5.G.G.G.",
"7.7.;.h.-.i.-.G.t 8 1 t i % r 5.b.Z S { [ h.7.b.7.G.7.G.G.G.7.G.G.>.y.*.b.5.m.G.",
"7.y.i.b.7.+.7 r . 6   i # i i a $ i ' { :.>.:.1.G.G.G.G.7.7.G.G.G.h.7.G.5.9.G.G.",
">.G.G.1.1.t   .     X .   # u S { i S ] 5.7.m.h.7.1.<.>.h.7.h.b.G.G.G.b.G.b.G.G.",
"b.7.>.7.b.7   7   r   u 5 u i F ! j ; l ; j b.;.1.*.7.h.>.:.b.h.G.G.G.G.b.7.G.7.",
"1.i.G.b.3 i p     u O 2 r s ! b b.j D j ` > b.b.h.G.,.7.m.G.>.G.G.G.G.b.G.G.G.G.",
"b.G.7.b.3 $ $ p   +   $ 5 u v D h.9 ~ q : j j 7.>.G.m.h.2.G.b.7.7.G.b.G.G.b.G.G.",
"7.2.b.G.# p 2 $ . 3 O   4 % ! w 0 ! D j l = = j = b.b.:.1.<.h.1.G.G.G.b.b.G.G.7.",
"G.G.>.h.i t p %   5 @ $ . u b 0 ~ 9 x j O., = = j ; >.h.G.1.G.>.G.G.G.G.G.G.G.G.",
"m.h.=.h.i & +       .     y ^ 0 G.- = = j j G.z = * N h.>.*.G.m.7.G.G.b.b.G.G.G.",
"7.2.1.b.i a r r   i o r 3 3 G.h.1.j = z j = h.:.z B B B 7.G.b.>.G.G.b.G.b.G.G.G.",
"b.7.>.1.>.3 r i r u . r r 1.y.b.:.: x j o.= >.b.b.2.M h.:.1.G.:.G.G.b.b.b.b.G.G.",
"m.*.y.*.;.<.5 t 3 # 5 3 2 b.+.*.:.j = - j = 9.G.G.h.@.2.>.h.G.>.7.7.7.7.2.2.7.7.",
">.1.>.G.1.1.G.2 & p r r 2.7.b.i.G., l = j = h.5.m.7.h.h.G.b.>.7.G.G.G.G.G.G.G.G.",
" ._ ) I _ )  ..._ ) | ) ) T  ._ P = ; j X.l U R ( /  .Y _ _  .R _ _ _ _ _ _ _  .",
"G.h.1.b.G.>.7.1.h.>.h.m.h.2.h.7.5.= = j j z 5.G.G.9.h.*.G.7.G.G.G.G.G.G.G.G.G.G.",
"7.:.G.b.-.7.b.>.G.>.1.;.>.G.b.;.-.x = k j * h.&.G.7.*.m.G.:.>.>.7.G.G.G.b.G.G.7.",
"7.<.-.G.h.1.G.7.b.7.7.m.;.=.9.7.m.k j = O.j m.7.7.2.G.7.G.y.G.G.G.G.G.G.b.G.G.G.",
"G.7.7.:.5.>.5.b.7.y.G.;.b.>.7.b.1.j j j = j G.i.h.7.m.b.>.G.>.b.>.m.m.m.b.7.7.7.",
"G.G.G.b.G.G.G.G.G.G.G.G.G.G.G.G.m.& i r B 1.G.<.G.G.G.G.G.G.G.G.G.G.G.b.G.b.G.G.",
"G.G.b.G.b.G.G.7.G.G.G.G.G.G.G.G.9.i # y B :.i.5.G.G.G.G.G.G.G.G.G.G.G.G.b.7.G.7.",
"G.G.G.b.b.G.G.G.G.G.G.G.G.G.G.G.y.J K J J b.G.b.G.G.G.G.G.G.G.G.G.G.G.b.G.G.G.G.",
"7.G.G.G.G.G.G.G.G.G.G.G.G.G.G.G.>.H J H H >.h.G.G.G.G.G.G.G.G.G.7.G.b.G.G.b.G.G.",
"G.G.G.b.b.G.G.7.G.G.G.G.G.G.G.G.1.G.J K G.b.b.&.G.G.G.G.G.G.G.G.G.G.G.b.b.G.G.7.",
"G.G.b.G.G.b.G.G.G.G.G.G.G.G.G.G.G.7.J G h.7.;.h.G.G.G.G.G.G.G.G.G.G.G.G.G.G.G.G.",
"7.G.7.b.b.G.G.G.G.G.G.G.G.G.G.G.&.G.K K :.:.G.7.G.G.G.G.G.G.G.G.7.G.G.b.G.b.G.G.",
"G.G.G.b.G.G.G.G.G.G.G.G.G.G.G.G.b.G.H J h.:.5.G.G.G.G.G.G.G.G.G.G.G.b.G.b.G.G.G.",
"G.G.9.5.h.>.h.7.G.7.7.G.7.G.7.G.G.#.K H b.7.G.:.7.7.G.G.7.G.7.G.7.2.2.h.-.7.G.G.",
"G.m.5.h.>.y.>.2.G.G.G.G.G.G.G.G.y.b.K J G.h.G.y.G.G.G.G.G.G.G.G.b.>.,.>.h.m.2.b.",
"m.G.b.>.G.>.y.7.G.G.G.h.G.G.G.G.>.*.  X       *.G.G.7.G.G.G.G.2.7.h.*.h.7.G.G.m.",
"b.7.G.G.>.G.>.G.G.b.G.b.G.b.G.G.b.>.  X   o   h.b.G.G.G.h.b.G.b.G.>.h.7.7.G.5.h.",
"-.h.:.h.7.7.h.9.b.b.b.b.b.b.1.b.:.G.,.U G.b.>.:.b.b.b.1.b.b.b.b.5.y.7.G.h.:.y.m.",
"h.:.,.*.G.G.9.2.b.b.b.b.b.b.m.b.b.y.>. .G.i.7.b.b.b.b.b.b.b.b.b.9.7.2.b.*.,.*.y.",
">.y.*.y.5.G.m.7.b.G.G.G.G.G.G.G.G.>.:.( b.7.G.m.G.G.G.G.G.G.G.G.2.9.G.5.y.*.y.m.",
"G.m.b.5.b.5.-.7.G.7.7.G.G.G.G.7.>.G.G._ G.G.;.G.G.7.G.G.7.G.G.G.9.9.5.b.m.b.5.2."
};
