/* XPM */
static char *Ym90dG9tdm9pZCUyODIlMjklMjgxJTI5[] = {
/* columns rows colors chars-per-pixel */
"40 40 159 2 ",
"   c #010101",
".  c #0A0205",
"X  c #050902",
"o  c #0B0B05",
"O  c #03020B",
"+  c #08070C",
"@  c #050A0A",
"#  c #0A0A0B",
"$  c #110705",
"%  c #12130B",
"&  c #040414",
"*  c #080614",
"=  c #040813",
"-  c #0B0A12",
";  c #05041B",
":  c #090619",
">  c #0F0D1A",
",  c #100F12",
"<  c #100718",
"1  c #131313",
"2  c #141318",
"3  c #020225",
"4  c #001523",
"5  c #787570",
"6  c #7D7D7D",
"7  c #847F61",
"8  c #867B77",
"9  c #7D8379",
"0  c #8A8277",
"q  c #858F76",
"w  c #81817F",
"e  c #8C8A7E",
"r  c #7C7E81",
"t  c #797BEC",
"y  c #7F6FF4",
"u  c #7374F6",
"i  c #7A79F0",
"p  c #7477F8",
"a  c #7D75FC",
"s  c #7B7BFD",
"d  c #837E83",
"f  c #80748C",
"g  c #887D8B",
"h  c #8378FF",
"j  c #7E8285",
"k  c #7282FB",
"l  c #838383",
"z  c #85838A",
"x  c #898788",
"c  c #89898A",
"v  c #908F8A",
"b  c #8B8398",
"n  c #BEBAAF",
"m  c #BCBCBC",
"M  c #C0BFBE",
"N  c #BDC4BD",
"B  c #C2C1AF",
"V  c #C1C1BD",
"C  c #BDBEC1",
"Z  c #8181FF",
"A  c #8A82FF",
"S  c #C2BFC1",
"D  c #BCC3C4",
"F  c #C2C2C3",
"G  c #C1C8C1",
"H  c #C6C6C8",
"J  c #CBCBCD",
"K  c #EDEEED",
"L  c #F3FCE1",
"P  c #F3F2EE",
"I  c #FAFCEE",
"U  c #EBECF0",
"Y  c #F4F5F4",
"T  c #FAF6F3",
"R  c #F5FAF6",
"E  c #FDFEF6",
"W  c #FCFFF6",
"Q  c #FFFFF6",
"!  c #FEFFF7",
"~  c #FFFFF7",
"^  c #FEFEF6",
"/  c #FDFEF6",
"(  c #FCFCF2",
")  c #F6F6F8",
"_  c #F7F7FF",
"`  c #F8F7FD",
"'  c #FBF7FF",
"]  c #F6FAF9",
"[  c #F7FAFA",
"{  c #F7FDF9",
"}  c #F7FFF9",
"|  c #F7FBFC",
" . c #F9F9F9",
".. c #F8F8F8",
"X. c #FBFBF9",
"o. c #F9FBFA",
"O. c gray98",
"+. c #FBFBFB",
"@. c #F9F9F9",
"#. c #FCFBF9",
"$. c #FBFDF8",
"%. c #FAFCF9",
"&. c #F9FFF9",
"*. c #FAFCFB",
"=. c #F9FFFB",
"-. c #FBFFFA",
";. c #FAFFFB",
":. c #F9FEFA",
">. c #FDFCF8",
",. c #FCFDF8",
"<. c #FEFDF9",
"1. c #FFFCF9",
"2. c #FDFEF8",
"3. c #FCFEF9",
"4. c #FDFEF9",
"5. c #FCFFF8",
"6. c #FFFFF8",
"7. c #FFFEF9",
"8. c #FCFCFA",
"9. c #FDFDFB",
"0. c #FFFDFA",
"q. c #FEFDFB",
"w. c #FCFEFB",
"e. c #FFFEFA",
"r. c #FEFFFA",
"t. c #FFFFFB",
"y. c #FEFFFB",
"u. c #F9F9FF",
"i. c #FBF8FF",
"p. c #FAFBFF",
"a. c #FAFAFD",
"s. c #FDFBFC",
"d. c #FCF9FF",
"f. c #FDFBFF",
"g. c #F8FCFD",
"h. c #FBFCFE",
"j. c #FBFCFF",
"k. c #FAFEFF",
"l. c gray99",
"z. c #FDFDFD",
"x. c #FDFFFC",
"c. c #FCFEFD",
"v. c #FEFEFC",
"b. c #FFFEFC",
"n. c #FFFFFD",
"m. c #FEFFFD",
"M. c #FCFCFE",
"N. c #FDFDFF",
"B. c #FDFCFF",
"V. c #FFFDFE",
"C. c #FEFDFF",
"Z. c #FDFFFE",
"A. c #FCFFFF",
"S. c #FEFEFE",
"D. c #FEFEFF",
"F. c #FEFFFF",
"G. c white",
"H. c #FFFEFF",
"J. c #FEFEFC",
/* pixels */
"Z.$.p.W 3.3.3.3.Z.Z.Z.Z.Z.Z.Z.Z.$.3.3.s 3.Z.3.Z.Z...j.Z.Y 3.3.Z.Z.1.3.j.$.j.W Z.",
"3.p.I p.^ 3.3.Z.Z.Z.3.Z.Z.3.Z.Z.$.3.Z.s ^ Z.3.3.@.@.$.j.Z.K O.@.^ O.3.^ p.I p.^ ",
"j.I _ ( Z.3.3.1.Z.Z.Z.Z.Z.Z.Z.Z.$.1.3.s 3.3.$.} $.j.Y ] R j.] Z.1.3.Z.Z.I | I p.",
"$.p.I Z.Z.^ f.3.Z.Z.Z.Z.Z.Z.Z.Z.$.1.Z.s ^ Z.$.j.} Y j.g.j.| Y ] ( 1.( 3.j.I _ ( ",
"Z.^ Z.Z.^ Z.^ Z.Z.Z.Z.Z.Z.Z.Z.Z.$.Z.Z.s 3.3.3.$.Z.F S J m F Z.) Z.( Z.^ 3.Z.^ Z.",
"3.f.Z.^ Z.I f.3.Z.f.Z.Z.Z.f.Z.Z.$.3.1.s ^ Z.3.$.m m d     m S O.( f.I f.^ 3.O.O.",
"f.1.^ p.( f.( Z.3.Z.3.Z.Z.Z.Z.3.$.3.Z.s 3.3.3.Z.S x     x 6 F f.Z.I ' ( f.3.f.Z.",
"Z.3.1.^ Z.^ f.3.Z.Z.Z.Z.3.Z.Z.3.} 3.3.s ^ Z.3.Z.V 6   o w 6 m V V M M S M S D F ",
"1.Z.f.O.' O.Z.Y f.Z.Z.P Z...f.p.3.T R s ( @.^ R S w   X   l m 6 l l l 6 l x l V ",
"Z.O.) Z.Z.P K Z.Z.@.) Z.O.P 1.O.@.^ R h ^ Y 3.R m l # +   d l l       l     c 6 ",
"M m H f.Y ) j.Z.Y 1.T Y O.Z.) O.W Y Z.u ^ Z.P R H 6 6 X   d l   # # + X # #     ",
"w x m Z.H N m C F F f.Z.) ..Z.O.( T O.Z ^ 3.M F m l   1   l r X     +   #     # ",
"  6 D H m 6 6 8 6 C f.Y H m m m Y P 3.p ( m M 6 l l #           X # O #   1     ",
"  x l F j 8 X w H m N F m 6 6 l m W Z.s ^ M w X 6 l     , X X , #   o       O # ",
"  # x F r O     d m m x 6 X   6 V P Y u 3.6 X o l 6 % + O X #     O     2 o X   ",
"X     z l   #   6 l 6 x   X O l V M ..k ( 6 o         #   # O   # X   o O X     ",
"      x l   # O 6 z 6         x j D $.s O.9 . o                                 ",
"O #   z c 2 O O X %   #   O     l B T h ( e . *                                 ",
"O &   z 6 O + O +   +     X   X b 5 n a 3.' 0                                   ",
"O * , X z   O O     %   +   # #   A a k p u i 4                                 ",
"O O         X o + #     #   X   $ X r a Z.( 8 o                                 ",
"  # X 1 # + + O     o #   # + O < O v i L ( g 3                                 ",
"X   - O   - O     # +   #       &   g t F K 0 o                                 ",
"    + : > O -   X   #       X   : ; 9 p D D d &                                 ",
"                                @   = y q j   ;                                 ",
"                                O & @ ; & O X ;                                 ",
"                                & &   X O O O O                                 ",
"                                  O +     O O %                                 ",
"                                  &   O - O o                                   ",
"                                + O + , O + o O                                 ",
"                                O   , X   - O +                                 ",
"                                X : O O o -   +                                 ",
"                                                                                ",
"                                                                                ",
"                                                                                ",
"                                                                                ",
"                                                                                ",
"                                                                                ",
"                                                                                ",
"                                                                                "
};
