/* XPM */
static char *d6b515e505504d39c74ecf925a3d507aJJjszj9Z8ROoukFq[] = {
/* columns rows colors chars-per-pixel */
"40 40 170 2 ",
"   c black",
".  c #000100",
"X  c #010100",
"o  c #010101",
"O  c #020200",
"+  c #030301",
"@  c #000002",
"#  c #020202",
"$  c gray1",
"%  c #050503",
"&  c #060702",
"*  c #000004",
"=  c #020204",
"-  c #030305",
";  c #040404",
":  c gray2",
">  c #060604",
",  c #040406",
"<  c #050507",
"1  c #060606",
"2  c #070707",
"3  c #090909",
"4  c gray4",
"5  c #0B0B0B",
"6  c #7B7B79",
"7  c #79797B",
"8  c #7B7B7B",
"9  c #7C7C7A",
"0  c #7E7F7A",
"q  c gray49",
"w  c #7C7C7E",
"e  c #7E7E7E",
"r  c gray50",
"t  c #81817F",
"y  c #808080",
"u  c #818181",
"i  c gray51",
"p  c #838383",
"a  c #838385",
"s  c gray52",
"d  c #858587",
"f  c #868686",
"g  c #878789",
"h  c #B9B9B7",
"j  c #BABAB8",
"k  c #BDBDBB",
"l  c #BEBFBA",
"z  c #BBBBBD",
"x  c #BEBEBC",
"c  c #BFBFBD",
"v  c gray75",
"b  c #BEC1B8",
"n  c #C0C1BB",
"m  c #C0C1BC",
"M  c #C1C2BD",
"N  c #C2C3BD",
"B  c #C0C0BE",
"V  c #C1C1BF",
"C  c #C2C3BE",
"Z  c #C3C4BE",
"A  c #C1C1C1",
"S  c #C2C2C0",
"D  c #C3C3C1",
"F  c gray76",
"G  c #C5C6C1",
"H  c #C5C5C5",
"J  c #C6C6C4",
"K  c #EAECE7",
"L  c #EEEFE7",
"P  c #F2F4E7",
"I  c #F3F7E9",
"U  c #F3F6EB",
"Y  c #F3F4EC",
"T  c #F5F7EC",
"R  c #F4F5EF",
"E  c #F5F6EE",
"W  c #F6F7EF",
"Q  c #F5F8ED",
"!  c #F7F9EE",
"~  c #F8FAED",
"^  c #F8FAEF",
"/  c #F8FCED",
"(  c #F9FDEE",
")  c #FAFCEF",
"_  c #FCFDED",
"`  c #FCFDEF",
"'  c #F4F5F0",
"]  c #F5F6F0",
"[  c #F5F6F1",
"{  c #F6F7F1",
"}  c #F7F8F0",
"|  c #F6F9F0",
" . c #F7FAF1",
".. c #F7F8F2",
"X. c #F7FAF3",
"o. c #F8FBF0",
"O. c #F8F9F3",
"+. c #FAFBF3",
"@. c #FAFEF0",
"#. c #F9FCF3",
"$. c #FCFCF0",
"%. c #FCFEF1",
"&. c #FDFFF2",
"*. c #FEFFF2",
"=. c #F9FAF4",
"-. c #F9FAF5",
";. c #FAFBF5",
":. c #F8F8F6",
">. c #F9F9F7",
",. c #FAFBF6",
"<. c #F9FCF5",
"1. c #FBFCF4",
"2. c #FAFDF4",
"3. c #FBFCF7",
"4. c #F9FEF7",
"5. c #FBFEF7",
"6. c #FCFFF4",
"7. c #FDFFF4",
"8. c #FDFFF5",
"9. c #FEFFF4",
"0. c #FDFCF7",
"q. c #FCFDF7",
"w. c #FDFEF6",
"e. c #FDFFF7",
"r. c #FEFEF6",
"t. c #FFFFF6",
"y. c #FEFFF7",
"u. c #FFFFF7",
"i. c #F6F7F9",
"p. c #F7F7FF",
"a. c #FCFBF9",
"s. c #FCFAFB",
"d. c #FBFDF8",
"f. c #FAFCFB",
"g. c #FDFCF8",
"h. c #FCFDF8",
"j. c #FDFEF8",
"k. c #FCFEF9",
"l. c #FFFFF8",
"z. c #FEFFF9",
"x. c #FCFCFA",
"c. c #FDFCFA",
"v. c #FDFDFB",
"b. c #FEFDFB",
"n. c #FCFEFB",
"m. c #FEFFFA",
"M. c #FFFFFB",
"N. c #FBF8FF",
"B. c #FAF9FF",
"V. c #FAFBFF",
"C. c #FDFAFF",
"Z. c #FDFBFF",
"A. c #FEFBFF",
"S. c #FBFDFC",
"D. c #FBFCFF",
"F. c #FDFDFD",
"G. c #FFFCFD",
"H. c #FCFEFD",
"J. c #FEFEFC",
"K. c #FEFFFD",
"L. c #FFFFFD",
"P. c #FCFCFE",
"I. c #FDFCFF",
"U. c #FDFDFF",
"Y. c #FEFDFF",
"T. c #FDFEFF",
"R. c #FEFEFE",
"E. c #FEFEFF",
"W. c #FEFFFF",
"Q. c white",
/* pixels */
"                                                &     < 0 b #.<.s.s.j.T.<.S.<.T.",
"                                                  4 < i l  .#.#.7.A.T.7.S.( N.j.",
"                                                    8 j 7.7.! U s.7.j.T.#.p.( A.",
"                                                > e g B { I U 7.j.T.7.T.T.~ N.7.",
"                                                  a z v =.7.! ! T.1.T.7.j.T.7.T.",
"                                                  e H S L 7.j.k.7.A._ T.j.T.T.j.",
"                                                  f g S <.j.K T.T._ N._ A.0.j.T.",
"                                                &   e S =. .T.i.j.s.7.T.s.s.j.T.",
"                                                  ; i B h j.=.j.T.=.j.j.T 1.1./ ",
"                                                    < i J { =.7.a.j.j.T 7.~ 1.O.",
"                                                < <   i l =.j.T 1.Y 1.j.{ B B B ",
"                                                <   < 8 B O.7.~ 1.7.~ { G t 0 a ",
"                                                  5 3 i n B T 7.P O.j.{ j f = = ",
"                                                2     e 0 B Z } 7.=.n B a = ,   ",
"                                                  2 < & s 8 B 7.=.{ l i     4 & ",
"                                                    =     i v v v S c i   4     ",
"                                                  <         i i c S e           ",
"                                                                i t a   <     & ",
"                                                          &   <   <             ",
"                                                  <   <     <         <     <   ",
"                                                <           4       4           ",
"                                                    <             <   < <       ",
"                                                &         <       < <         < ",
"                                                    2               &   <       ",
"                                                                                ",
"                                                                                ",
"                                                                                ",
"                                                                                ",
"                                                                                ",
"                                                                                ",
"                                                                                ",
"                                                                                ",
"                                                                                ",
"                                                                                ",
"                                                                                ",
"                                                                                ",
"                                                                                ",
"                                                                                ",
"                                                                                ",
"                                                                                "
};
