/* XPM */
static char *_88bb28f774f4188d389d268e7cd257dJ3k08IZ5gl5f7QPf[] = {
/* columns rows colors chars-per-pixel */
"40 40 128 2 ",
"   c black",
".  c #000100",
"X  c #010101",
"o  c #030301",
"O  c #000002",
"+  c #010103",
"@  c #020202",
"#  c gray1",
"$  c #040402",
"%  c #050503",
"&  c #040404",
"*  c gray2",
"=  c #050507",
"-  c #060606",
";  c #070707",
":  c #070803",
">  c gray3",
",  c #090909",
"<  c gray4",
"1  c #7C7C7C",
"2  c gray49",
"3  c #7C7C7E",
"4  c #7E7E7E",
"5  c gray50",
"6  c #7F807B",
"7  c #808080",
"8  c #818181",
"9  c gray51",
"0  c #838383",
"q  c #848580",
"w  c #838385",
"e  c gray52",
"r  c #868686",
"t  c #878789",
"y  c #B8B8B6",
"u  c #BABDB6",
"i  c gray73",
"p  c #BEBFBA",
"a  c #BCBCBC",
"s  c #BEBEBC",
"d  c #BDBDBF",
"f  c gray",
"g  c gray75",
"h  c #BFC2B9",
"j  c #C0C0C0",
"k  c #C1C1C1",
"l  c #C2C2C0",
"z  c #C3C3C1",
"x  c gray76",
"c  c gray77",
"v  c #F0F2ED",
"b  c #F4F5ED",
"n  c #F5F9EB",
"m  c #F5F8ED",
"M  c #F6FAEC",
"N  c #F6F9EE",
"B  c #F7FAEF",
"V  c #F8FCEE",
"C  c #F9FDEF",
"Z  c #FAFCEF",
"A  c #FCFDED",
"S  c #F7F8F0",
"D  c #F7FAF1",
"F  c #F6F9F2",
"G  c #F8F9F3",
"H  c #F9FCF1",
"J  c #FAFEF0",
"K  c #F9FCF3",
"L  c #FCFCF0",
"P  c #FDFFF3",
"I  c #FEFFF3",
"U  c #F9FAF4",
"Y  c #FBFCF4",
"T  c #FBFCF7",
"R  c #F9FEF7",
"E  c #FBFEF7",
"W  c #FDFFF5",
"Q  c #FDFCF7",
"!  c #FCFDF7",
"~  c #FCFFF6",
"^  c #FDFFF7",
"/  c #FEFEF6",
"(  c #FEFFF7",
")  c #F7F7FF",
"_  c #F7F8FA",
"`  c #F8F8F8",
"'  c #FCFBF9",
"]  c #FCFAFB",
"[  c #FBFDF8",
"{  c #FDFCF8",
"}  c #FDFEF8",
"|  c #FDFEF9",
" . c #FDFFF9",
".. c #FEFFF8",
"X. c #FFFFF8",
"o. c #FFFEF9",
"O. c #FEFFF9",
"+. c #FCFCFA",
"@. c #FDFCFA",
"#. c #FDFDFB",
"$. c #FEFDFB",
"%. c #FCFEFB",
"&. c #FEFFFB",
"*. c #FAFBFD",
"=. c #FBF8FF",
"-. c #FAF9FF",
";. c #FAFBFF",
":. c #FDFAFF",
">. c #FDFBFF",
",. c #FEFBFF",
"<. c #FBFDFC",
"1. c #FBFCFF",
"2. c gray99",
"3. c #FDFDFD",
"4. c #FFFCFD",
"5. c #FCFEFD",
"6. c #FEFEFC",
"7. c #FEFFFD",
"8. c #FFFFFD",
"9. c #FCFCFE",
"0. c #FDFCFF",
"q. c #FCFDFF",
"w. c #FDFDFF",
"e. c #FEFDFF",
"r. c #FDFEFF",
"t. c #FEFEFE",
"y. c #FEFFFF",
"u. c white",
/* pixels */
"#.E ;.E <.#.[ #.F ! h 6       :                                                 ",
"#.;.J 2.E 2.#.#.E m F h e = -                                                   ",
"2.V ) J 2.#.#.T m J ! U g 5   %                                                 ",
"! ;.V ,.2.#.2.T C n n E f 0 5                                                   ",
"2.#.2.#.#.2.! 2.H m I b x f 8 %                                                 ",
"2.2.2.#.2.A 2.#.#.#.J b l x                                                     ",
"2.2.T ,.A ,.I #.2.b #.U y t 0                                                   ",
"2.2.] ! ,.! #.#._ #.u q -                                                       ",
"x x x f 2.2.] 2.2.h j t     - -                                                 ",
"5 8 5 x f 2.2.2.f x 9     >                                                     ",
"-   5 e f x x f c 8 5 -                                                         ",
"      8 e 5 5 c 5     -   >   -                                                 ",
"  -       -   8 8   >   - -                                                     ",
"      - >       -     >     -                                                   ",
"  >         >     #   - - - -                                                   ",
"-   -         -                                                                 ",
"                                                                                ",
"                                                                                ",
"                                                                                ",
"                                                                                ",
"                                                                                ",
"                                                                                ",
"                                                                                ",
"                                                                                ",
"                                                                                ",
"                                                                                ",
"                                                                                ",
"                                                                                ",
"                                                                                ",
"                                                                                ",
"                                                                                ",
"                                                                                ",
"                                                                                ",
"                                                                                ",
"                                                                                ",
"                                                                                ",
"                                                                                ",
"                                                                                ",
"                                                                                ",
"                                                                                "
};
