/* XPM */
static char *Y29pbjElMjgxJTI5[] = {
/* columns rows colors chars-per-pixel */
"40 40 196 2 ",
"   c #020202",
".  c #0A0201",
"X  c #010A01",
"o  c #0B0801",
"O  c #02020B",
"+  c #0B010A",
"@  c #030A0B",
"#  c #0F0B0A",
"$  c #120306",
"%  c #160009",
"&  c #141205",
"*  c #040214",
"=  c #0A0314",
"-  c #020B13",
";  c #060320",
":  c #767E07",
">  c #7B7C00",
",  c #757C08",
"<  c #7C7F0C",
"1  c #6E742C",
"2  c #7F7D4D",
"3  c #827E02",
"4  c #877D07",
"5  c #827E3E",
"6  c #FD7D34",
"7  c #F57C3A",
"8  c #837F43",
"9  c #8A7E46",
"0  c #857B4A",
"q  c #897D4C",
"w  c #8B7E5E",
"e  c #FF7742",
"r  c #F07E42",
"t  c #FC7C41",
"y  c #FE754A",
"u  c #F47D4C",
"i  c #FE7C4C",
"p  c #FB7B51",
"a  c #FE715A",
"s  c #F67A58",
"d  c #FA7E5C",
"f  c #FF7B61",
"g  c #6E8104",
"h  c #768301",
"j  c #7B8302",
"k  c #7B820A",
"l  c #7A8335",
"z  c #7C883E",
"x  c #7E843E",
"c  c #7C8444",
"v  c #7A834B",
"b  c #7D8A49",
"n  c #7A914D",
"m  c #828303",
"M  c #898203",
"N  c #828801",
"B  c #83840A",
"V  c #848414",
"C  c #808332",
"Z  c #81823C",
"A  c #FF8332",
"S  c #F3833D",
"D  c #FF833B",
"F  c #FC8938",
"G  c #F28236",
"H  c #DFFD05",
"J  c #E9F700",
"K  c #E7FF00",
"L  c #EDFE00",
"P  c #E6FE09",
"I  c #F3F600",
"U  c #FFF402",
"Y  c #F4FD01",
"T  c #FCFD02",
"R  c #FFF50C",
"E  c #F3FF0E",
"W  c #FDFD0A",
"Q  c #FFF110",
"!  c #F7FF12",
"~  c #FDFD15",
"^  c #FCF71A",
"/  c #838544",
"(  c #8B8247",
")  c #85834D",
"_  c #88894F",
"`  c #828050",
"'  c #8A8D56",
"]  c #EA8340",
"[  c #EE8649",
"{  c #FC8344",
"}  c #FD824B",
"|  c #F98D4F",
" . c #F48744",
".. c #F48252",
"X. c #FD8353",
"o. c #F7825C",
"O. c #FFEF6D",
"+. c #FFF26C",
"@. c #FCFD6D",
"#. c #F3F66B",
"$. c #F8ED79",
"%. c #FCEB75",
"&. c #ECFB72",
"*. c #ECF576",
"=. c #F3F574",
"-. c #F9F373",
";. c #F4FB73",
":. c #FDFB75",
">. c #F7F57C",
",. c #F5FB7B",
"<. c #FEFC7B",
"1. c #FCF17D",
"2. c #7A6ED2",
"3. c #7678E8",
"4. c #8572EF",
"5. c #9375EE",
"6. c #886EF3",
"7. c #8674F1",
"8. c #8779F3",
"9. c #8B75FF",
"0. c #9675F2",
"q. c #957DFF",
"w. c #F7EF84",
"e. c #EEF780",
"r. c #E6FF80",
"t. c #EEFF84",
"y. c #FCF683",
"u. c #F4FC83",
"i. c #FDFD83",
"p. c #FEF68A",
"a. c #F6FD8A",
"s. c #FCFC8E",
"d. c #F1F586",
"f. c #FEF397",
"g. c #FEFE93",
"h. c #FFF598",
"j. c #F5FF9F",
"k. c #FEFE9C",
"l. c #E8FFED",
"z. c #F7FFE5",
"x. c #FCFEE4",
"c. c #F3F4EE",
"v. c #FBF5ED",
"b. c #F6FAEB",
"n. c #FBFEEC",
"m. c #F5F4E2",
"M. c #E1FFF7",
"N. c #EBFEF4",
"B. c #EDF2FE",
"V. c #EEFBFC",
"C. c #F4F4F5",
"Z. c #FFF4F3",
"A. c #F4FDF4",
"S. c #FCFDF5",
"D. c #F4F5FC",
"F. c #FBF6FD",
"G. c #F5FDFD",
"H. c #FBFDFA",
"J. c #FAFFFB",
"K. c #FAFDF9",
"L. c #FCFDF8",
"P. c #FDFCF8",
"I. c #FEFDF8",
"U. c #FDFEF9",
"Y. c #FEFFF8",
"T. c #FCFCFA",
"R. c #FDFDFB",
"E. c #FDFCFA",
"W. c #FEFDFB",
"Q. c #FFFDFA",
"!. c #FFFFFB",
"~. c #FFFFFA",
"^. c #FCFEFB",
"/. c #FAF9FF",
"(. c #FDFAFF",
"). c #FBFDFC",
"_. c #FBFFFF",
"`. c #F9FEFE",
"'. c gray99",
"]. c #FDFDFD",
"[. c #FCFEFD",
"{. c #FDFFFC",
"}. c #FEFEFC",
"|. c #FFFEFC",
" X c #FEFFFD",
".X c #FFFFFD",
"XX c #FCFDFF",
"oX c #FFFDFF",
"OX c #FCFFFF",
"+X c #FEFEFE",
"@X c #FFFEFF",
"#X c #FEFFFF",
"$X c white",
"%X c #FEFEFF",
"&X c #FEFCFD",
"*X c #FDFDFC",
/* pixels */
"$X$XT.S.H.$X$XC.H./.(.P.T.n.P.$XS.$Xb.5.A.S.G.`.$XK.K.n.n.(.(.v.$X$XK./.T.$X`.`.",
"$XT.T.S.K.$X$XS.n.v.n.b.T.T.b.P.T.T.$X0./.T.K.F.C.n.b.$Xc.n.(.x.$XT.$X$X$XH.H.K.",
"$XK.K.C.K.$X$XP.(.b.P.`.$XK.T.v.`.m.A.9.A.T.S.n.S.S.F.$XS.`.A.$XT.(.$X$X$XT.K.F.",
"$XK.S.S.K.(.$XT.(.$X/.C.S.K.F.T.N.G.A.3.b.B.A.N.S.(.K.v.K.K.`.G.`.$XT.$X$X/.K.K.",
"$XH.P.$X(.$X$XT.T.n.P.C.(.b.$X    . + O O & + $X$XS.A.`.c.n.S.P.$X$XT.$X$X$X$X$X",
"$XS.T.T.(.$X$XP.b.n.n.$X$Xx.. P O   <.<.:.y.>.X . $X`.b.S.(.v.D.$XT.T.T.T.T.T.$X",
"H.H.T.S.P.(.$XK.T.$XK.D.$X. H . i.*.W Y K ~ Q u.y.. `.S.T.P.(.(.$XT.T.T.T.T.T.T.",
"$X$X$XP.P.$XT.K.x.$XT.n.  P . s.L ~ i y { { u T ! >.  $XK.$Xn.n.T.$XT.T.$X$XT.(.",
"`.$XT.H.H.K.H.$XP.n.K.$X  E   ,.R [ k N > N M i T f.X T.`.A.H.H.P.P.P.P.T.$X$X`.",
"H.H.T.H.H.H.H.$XV.`.T.`.. Y + >.T { 4 c / c k { T #.. $X(.Z.S.K.T.T.T.T.T.T.H./.",
"H.$XT.T.H.H.$XT.G.$XF.X L O <.T p m 5 0 1 w / N t W t.  /.`.A.(.T.T.$XT.T.H.S.P.",
"H.T.T.T.T.T.T.$Xz.P.(.  T - w.T o.4 v A D ..l , u T %.+ S.S.S.Z.$X$XT.T.T.T.K.S.",
"H.T.P.T.T.T.T.$Xn.P.  L = <.y.T } m c 6 Y y ( m f L p.s.X `.Z.N.$X$X$X$XT.P.P.P.",
"S.T.P.P.H.$XT.$Xn.$X  ! * $.K s > ' r W ^ K D 0 h p T @.  $X(.$X$X$X$XT.T.P.T.T.",
"H.P.P.P.T.H.$X$X$X(.. K X y.R { m x G :.d.i.S / m i T p.@ A.b.n.$X$X$XT.T.T.T.T.",
"T.T.T.T.T.$XH.$XS.  T   ,.R i j 0 { a.. i.  . t v j X.I u.o G.(.T.$XT.$XT.T.P.P.",
"P.P.T.T.T.$XT.T.P.  T @ +.W | j 2 i.. O g.+.X p 8 j { T <.@ K.n.$X(.$X$XP.(.(.$X",
"K.K.K.T.$X$X$X$XM.+ Y O r.} > o.<.X X <.<.a.X t / j { T p.  $XS.$X$X$X$XP.K.K.`.",
"$XK.T.$X$XT.$X$XG.  L X a.s 3 i   $ u.y.p.;.X i 0 j i T +.X K.P.$X$X$X$X$X`.`.$X",
"7.7.7.4.7.7.4.4.8.. Y   u.d B {   >.i.i.:.. :.{ Z V i T <.- 2.6.4.4.7.4.7.7.7.8.",
"`.(.`.$X$X$X$X$XD.. T + O.X.k :.+ X .   i.= - 6 ) > i T >.O `.S.$X$X$X$X`.`.`.`.",
"K.K.K.K.P.T.T.T.G.X I X =.Y t V <.s.<.- >.>.;.F C k } W <.X /.P.T.$X$XT.T.H.H.S.",
"T.T.P.P.T.T.T.T.$X. L @ u.I X.: b 6 <.X :.,.s.7 / > p T y.@ $XT.T.T.T.T.T.$XT.T.",
"$X$X$XP.$X$X$X$XK.. K   g.T { 4 5 } :.i.,.j.>.} ` B { T y.@ C.P.$X$X$X(.P.$X$XP.",
"T.T.T.T.S.H.T.T.S.  E O @.L o.m z u p.<.;.i.<.6 q h t T h.@ Z.G.$XT.$XT.T.$XT.$X",
"T.P.P.P.S.H.T.$XS.D.$ J O <.U X.> _ D +.u.y.t n B i T -.o G.D.K.T.$XT.T.T.T.$XT.",
"T.P.P.T.H.H.$XT.P.S.  T * -.P a m 0  .<.g.:.{ 0 j X.T ;.O S.$XT.T.$XT.H.T.H.T.T.",
"T.P.T.T.H.`.$X$XV.H.  I = @.T  .4 / G g.:.<. .( j a E s.  (.n.G.$X$XT.H.H.H.T.T.",
"K.C.P.K.K.G.$X$XS.K.K.. U X 1.T } k 9 S A 6 b j i T y.o Z.G.G.b.$XT.T.T.H.T.T.T.",
"K.K.P.T.K.K.T.T.S.T.H.  Y @ <.U { 3 0 t } 7 0 h u Y s.X S.S.$X`.$XT.T.T.T.T.T.T.",
"P.S.T.$XH.S.T.P.F.P./.G.. K   k.T { < l ) ) h } T y.  /.n.T.D.P.T.T.T.T.P.P.P.P.",
"P.K.T.`.K.S.S.S.$Xb.b.S.. Y % &.T 7 k N : B k ..Y a.  `.`.P.$XS.T.T.P.T.T.P.P.T.",
"T.$XP.$XP.P.T.T.x.T.T.n.. P . a.Y ~ u y } { u W ~ =.  $X$XP.T.x.T.T.T.$X$XT.T.$X",
"$XT.`.P.$XP.(.P.$X$XK.D.$X. H . y.*.W W K ^ Q ,.>.o $X`.S.(.(.T.$XH.T.T.T.P.T.T.",
"$X$XP.$XP.$XT.T.b.n.n.$X$Xx.. P   . y.,.a.u.<.X . $XG.D.x.(.v./.T.T.T.T.T.$XT.$X",
"$XT.$XP.$XT.$XT.$Xn.P.C.(.b.$X  X o + *   #   A.`.b.A.`.C.n.K.S.$X$X$X$X$X$X$X$X",
"$XH.(.K.$XP.$XT.(.(.F.C.K.K.F.T.A.G.N.3.l.B.G.`.b.$X/.S.D.K.`.`.$X$X(.$X$X(.K.D.",
"T.`.A./.S.$XT.T.(.b.S.$XK.F.T.v.$XC.A.q.b.T.b.T.P.T.F.(.K.`.b.$X`.K.K.$X$XK.K.K.",
"$XH./.S.(.P.$XT.x.S.n.b.T.T.b.P.(.S./.5.G.S.$XZ.$XS.b.F.n.b.$XS.$XP.(.$X$X$XK.K.",
"$X$XS.`.T.$XP.S.P./.(.S.$Xn.P.$Xn.`.A.0.G.A.H.G.T.$XP.x.K.(.P.S.$X$XH.$XP.`.$X/."
};
