/* XPM */
static char *Y29pbjM_[] = {
/* columns rows colors chars-per-pixel */
"40 40 202 2 ",
"   c #030202",
".  c #0A0203",
"X  c #010B00",
"o  c #03030B",
"O  c #0B020C",
"+  c #02090C",
"@  c #0C0B07",
"#  c #120204",
"$  c #120E02",
"%  c #040014",
"&  c #0D0215",
"*  c #000A13",
"=  c #0A0A14",
"-  c #05001E",
";  c #18001A",
":  c #120614",
">  c #7C7600",
",  c #7C7C01",
"<  c #757C08",
"1  c #7E7F0E",
"2  c #6E742C",
"3  c #7F7F3F",
"4  c #7F7F41",
"5  c #7F7D4A",
"6  c #847E04",
"7  c #877D07",
"8  c #827E3E",
"9  c #FD7D34",
"0  c #FC7C3B",
"q  c #F27B39",
"w  c #877F40",
"e  c #8A7E46",
"r  c #857B4A",
"t  c #897C4B",
"y  c #8B7E5E",
"u  c #FE7642",
"i  c #F47F43",
"p  c #FE7D44",
"a  c #FF774C",
"s  c #F47D4C",
"d  c #FE7B4B",
"f  c #FF6F56",
"g  c #FF7657",
"h  c #F77C50",
"j  c #FC7C53",
"k  c #FF7565",
"l  c #6B8800",
"z  c #6E8104",
"x  c #768101",
"c  c #7C8303",
"v  c #768B00",
"b  c #77800B",
"n  c #7D820A",
"m  c #798904",
"M  c #7A8335",
"N  c #7C883E",
"B  c #7E843E",
"V  c #7C8444",
"C  c #78854D",
"Z  c #7D8A49",
"A  c #7A914D",
"S  c #7D8051",
"D  c #828302",
"F  c #898204",
"G  c #838900",
"H  c #81830A",
"J  c #FF8332",
"K  c #F3833D",
"L  c #FF833B",
"P  c #FC8938",
"I  c #F28236",
"U  c #FFE707",
"Y  c #FFE902",
"T  c #E4FF01",
"R  c #ECFE01",
"E  c #E7FF0F",
"W  c #EFFF0A",
"Q  c #F7F300",
"!  c #FFF600",
"~  c #F3FE01",
"^  c #FCFE01",
"/  c #FFF00D",
"(  c #F4FC0A",
")  c #FEFC0B",
"_  c #FFF310",
"`  c #F6FF12",
"'  c #FCFE12",
"]  c #FFF71C",
"[  c #FDFC1A",
"{  c #838444",
"}  c #8B8247",
"|  c #86854C",
" . c #88894F",
".. c #8A8D56",
"X. c #EE8649",
"o. c #EA8340",
"O. c #F68045",
"+. c #FC8342",
"@. c #F3834C",
"#. c #FD824B",
"$. c #F6884B",
"%. c #F48352",
"&. c #FD8354",
"*. c #F7835E",
"=. c #FF835A",
"-. c #F8F862",
";. c #FCF36D",
":. c #FDFD6D",
">. c #F6F36E",
",. c #FAEE7E",
"<. c #EEFB7D",
"1. c #F1F773",
"2. c #FDF376",
"3. c #F4FC75",
"4. c #FDFC75",
"5. c #F5F57D",
"6. c #FDF57C",
"7. c #F4FA7B",
"8. c #FEFC7C",
"9. c #7179E4",
"0. c #8D6DEA",
"q. c #8D70E7",
"w. c #8572ED",
"e. c #8B7AEC",
"r. c #846EFD",
"t. c #8674F1",
"y. c #857BF4",
"u. c #8A74F0",
"i. c #9376F1",
"p. c #9277FF",
"a. c #E7FA86",
"s. c #EDFF83",
"d. c #F4F584",
"f. c #FBF684",
"g. c #F3FD83",
"h. c #FDFE83",
"j. c #FFF68B",
"k. c #F7FF8C",
"l. c #FEFC8A",
"z. c #F5FC95",
"x. c #FCFF92",
"c. c #F5FF9F",
"v. c #FFFB99",
"b. c #F9FFD9",
"n. c #E4FDE7",
"m. c #EFFEE7",
"M. c #F7F4E3",
"N. c #FAF2E7",
"B. c #F6FAE7",
"V. c #FAFDE5",
"C. c #F4F7EC",
"Z. c #F5FBEC",
"A. c #FCFDED",
"S. c #E1FFF3",
"D. c #EEFDF3",
"F. c #EEF5FD",
"G. c #F3F4F2",
"H. c #FEF4F5",
"J. c #F4FCF4",
"K. c #FCFDF4",
"L. c #F5F5FC",
"P. c #FBF5FC",
"I. c #F5FDFC",
"U. c #FBFDFA",
"Y. c #FAFFFB",
"T. c #F9FDF9",
"R. c #FCFDF8",
"E. c #FDFCF8",
"W. c #FDFEF9",
"Q. c #FFFFF9",
"!. c #FCFCFA",
"~. c #FDFDFB",
"^. c #FDFCFA",
"/. c #FEFDFB",
"(. c #FFFDFA",
"). c #FFFFFB",
"_. c #FFFFFA",
"`. c #FDFEF9",
"'. c #FAF9FE",
"]. c #FFFAFF",
"[. c #FEFAFE",
"{. c #FBFDFC",
"}. c #FBFFFF",
"|. c #FAFDFE",
" X c #FDFDFD",
".X c gray99",
"XX c #FCFEFD",
"oX c #FDFFFC",
"OX c #FEFEFC",
"+X c #FFFEFC",
"@X c #FFFFFD",
"#X c #FEFFFD",
"$X c #FCFDFF",
"%X c #FFFCFF",
"&X c #FCFFFF",
"*X c #FEFEFE",
"=X c #FFFEFF",
"-X c #FEFFFF",
";X c white",
":X c #FEFEFF",
">X c #FEFCFD",
",X c #FDFDFC",
/* pixels */
";X;X!.R.T.;X;XH.T.[.;X[.E.K.J.;XE.!.T.q.T.K.L.|.|.E.;XK.A.P.[.A.;X;XT.;X^.|.;X|.",
";X!.T.J.T.;X;XT.K.B.K.C.!.A.K.|.K.^.|.i.'.K.;X^.T.B.V.!.V.K.;XB.;XT.[.;X;X|.T.T.",
";XT.T.H.T.;X;XK.'.E.V.!.;XT.!.J.L.M.|.r.|.H.K.A.!.A.[.;XC.|.G.|.!.;X[.;X;X'.T.L.",
";XT.K.K.T.[.;X^.[.L.'.G.L.;XT.A.I.I.m.y.m.F.T.T.E.[.L.G.;XL.T.Z.|.;X!.;X;X^.^.T.",
";X!.!.!.[.;X;X!.E.K.!.L.'.R.K.A.K.P.: o o $ .   o @ T.E.G.!.Z.;X;X;X;X;X;X;X;X;X",
";XE.!.!.[.;X;X!.P.V.B.;X;XA.!.[.=   2.2.8.h.h.X . T . K.V.;XM.P.;X!.R.!.;X!.!.;X",
"T.T.!.E.^.[.;XT.;X!.E.K.!.;X;X  5.7.) ~ R [ Y h.d.& T . ;XK.[.;X!.!.!.!.!.!.!.!.",
";X;X!.^.T.;X;XK.b.;X;XE.!.[.  z.~ ) h g L s &.^ ) ;.# E   K.K.A.;X!.;X!.;X!.!.!.",
"T.;X!.T.T.T.!.!.K.K.|.!.K.J.  g.) $.x F , G 6 #.! z.  (   T.J.;XE.E.E.E.!.;X;X'.",
"T.;X!.^.!.T.;X;X|.|.T.;XP.[.. d.^ +.7 V { V n +.( >.  ^ . H.E.[.E.!.E.!.!.!.T.^.",
"!.!.!.!.T.T.!.;XJ.|.|.A.P.  k.^ h D 8 r 2 y { G p ) a.X ) + P.;X!.;X;X!.!.!.^.T.",
"T.;X!.!.!.T.;X;XK.!.P.J.A.* d.Q *.7 C J L %.M < s ^ ;.  ( O A.E.;X!.;X!.!.T.R.T.",
"T.!.E.!.!.!.;X!.E.R.H.!.o l.f.^ d c V 9 ~ a e D k ~ v.l.X ~   I.;X;X;X;X!.E.E.E.",
"!.!.E.E.T.;X!.;XE.;X;X;XX 6.R s , ..i ) ] R L r 1 O.^ 7.. ^ . !.;X;X;X!.!.E.!.!.",
"!.E.E.E.!.;X!.;X!.[.A.A.+ 5./ s F B I 4.d.g.K V F p ^ f.= T o A.;X;X;X!.!.E.!.!.",
"!.!.E.!.;XT.!.;XK.J.!.  g.) u v t K k.  h.  . p 5 m j ^ 1.# ( . !.!.;X;X!.!.!.!.",
"|.T.T.;X;X!.!.;X^.L.^.+ 5.! $.c 5 l.. o j.;.X j { c p ^ 6.o ~   ;X[.;X;X[.^.^.;X",
"T.H.T.!.;X;X;X;XS.^.;X  s.#.> j 8.X   8.8.k.  +.{ D #.^ 6.@ ~ . ;X;X;X;X[.T.P.T.",
"!.!.!.;X!.;X;X;X;XK.[.  7.#.F d   # g.f.h.7.  d 4 n p ^ 2.o R   ;X;X;X;X;X|.|.;X",
"y.t.t.t.w.w.w.w.e.u.w.  <.=.n +.o 5.8.h.4.  4.O.{ H #.^ 6.+ ~ O w.w.t.w.t.t.y.y.",
"|.;X'.;X;X;X;X;X'.P.;X. 2.j D 7.O   . o h.% = J V n s ^ 2.  ~ o ;X;X;X;X|.;X|.|.",
"T.R.T.T.E.!.!.!.|.J.P.o 5.~ j 7 8.l.8.* 5.4.3.P { D d ^ f.o ~ O !.;X;X!.T.T.T.R.",
"!.!.E.E.!.!.!.!.E.K.J.X l.~ &.b Z 0 4.  4.7.l.q { , p ^ 6.o ~ o !.!.!.!.!.;X!.!.",
";X;X;XT.;X;X;X;XJ.E.I.  f.^ &., { +.4.8.<.c.6.#.{ H p ^ 8.o ~   ;X;X;X[.^.;X;X^.",
"!.!.!.!.R.T.!.!.R.T.J.o 6.R @.7 N h j.8.3.l.8.9 t l u ^ v.  ^ o ;X;X!.!.;X;X;X!.",
"!.E.E.E.R.R.!.!.;XG.|.T.  4./ i c  .J :.g.f.p A D j ^ ;.  (   [.!.;X!.!.!.!.;X!.",
"!.E.E.!.T.T.;X!.[.K.A.[.% 5.T g D r O.6.x.3.+.r c =.( 5.X (   [.;X!.!.!.R.T.!.!.",
"E.E.!.!.|.|.;X;X!.;Xm.;XX h.! $.7 { K l.4.4.K } m f T 8.  ' % T.;X;X!.T.R.T.!.!.",
"T.J.T.^.T.T.;X;XT.P.T.P.;X  8.^ #.b e K L J Z m 0 ^ 7.. ^   I.B.;X!.!.!.T.!.!.!.",
"T.H.^.T.T.|.!.!.;XG.!.I.G.  8.! +.6 r 0 #.u r x @.~ l.o W = J.;X;X!.!.!.!.!.!.!.",
"E.T.!.;XR.R.!.E.A.;XN.;X[.I.  k.~ L 1 M | | x #.^ f.  ~ & C.[.A.!.!.!.!.!.E.E.!.",
"!.K.T.;XJ.R.K.K.|.A.'.A.A.;X# <.^ u n G z H D @.( d.  ^ o ;XK.P.!.!.E.!.!.E.!.!.",
"!.;X!.;XE.^.!.!.b.;X;XK.!.[.  z.~ ) &.d +.O.&.^ ` -.. E   K.;XV.;X;X!.!.;X!.!.!.",
";X!.[.K.;XE.[.E.;X!.E.K.!.;X;X  g.3.Y ( ~ [ U h.d.; R . ;XK.P.[.!.!.!.!.!.!.!.!.",
"!.;XE.;XE.;XE.!.P.V.B.;X;XA.!.;X. . 8.1.k.l.4.  . T . P.V.[.B.T.;X!.!.!.!.;X;XT.",
";X;X;X!.;X!.;X!.K.E.;XL.'.R.K.A.J.;XO - o       o @ '.E.T.V.K.;X;X;X;X;X[.;X;X;X",
";XT.'.R.|.!.;X!.;XL.[.G.L.;XT.J.I.L.D.9.n.I.I.J.A.'.P.J.P.G.;XC.;XT.;X;X;XT.P.T.",
"!.;XK.'.R.;X!.!.'.E.B.E.;XJ.!.J.'.K.Z.p.E.H.K.!.K.;XT.;XC.|.K.;XT.;XT.;X;X[.T.T.",
";XT.|.K.;XE.;XR.K.B.A.G.!.A.K.!.P.E.;Xi.F.A.;XH.;XJ.b.E.K.K.[.B.;X[.T.;X;X|.T.T.",
";X|.T.[.R.;XR.R.T.[.;X;XE.K.K.;XK.T.J.0.I.T.T.|.[.!.P.A.G.;X'.A.;X;X;X[.^.|.;X|."
};
