/* XPM */
static char *Y29pbjI_[] = {
/* columns rows colors chars-per-pixel */
"40 40 173 2 ",
"   c #020202",
".  c #0A0401",
"X  c #040900",
"o  c #020009",
"O  c #0A050C",
"+  c #05080C",
"@  c #100000",
"#  c #030210",
"$  c #EE723C",
"%  c #FD764B",
"&  c #F87B4B",
"*  c #EB7B55",
"=  c #EE7C5A",
"-  c #F77950",
";  c #FC7D52",
":  c #F67659",
">  c #FF705D",
",  c #FA7966",
"<  c #F9F601",
"1  c #F5FD00",
"2  c #FEFD03",
"3  c #FFFE0E",
"4  c #7979F1",
"5  c #8773E6",
"6  c #8D72E7",
"7  c #8D7EE3",
"8  c #8572ED",
"9  c #8873EB",
"0  c #8A79EB",
"q  c #9F71ED",
"w  c #8674F1",
"e  c #8F77F3",
"r  c #8779F3",
"t  c #8F7AF3",
"y  c #8770FE",
"u  c #8A72FF",
"i  c #9978FF",
"p  c #7080E2",
"a  c #E6EFD2",
"s  c #EEF3ED",
"d  c #F0FCE4",
"f  c #FEFAE1",
"g  c #F6FCEB",
"h  c #FBFCEC",
"j  c #EDF7F6",
"k  c #E6FFF3",
"l  c #E7FAF8",
"z  c #EEFFFD",
"x  c #F7F7F5",
"c  c #FEF5F4",
"v  c #F4FEF4",
"b  c #FBFCF5",
"n  c #F5F6FB",
"m  c #FCF4FE",
"M  c #F4FEFF",
"N  c #F5FFFF",
"B  c #F6FFFD",
"V  c #F5FCFB",
"C  c #F9F9F9",
"Z  c #F9FBF8",
"A  c #F8FAF9",
"S  c #FAFAF8",
"D  c #FBFAF8",
"F  c #FBFBF9",
"G  c #F8F8FA",
"H  c #F9FBFA",
"J  c gray98",
"K  c #FBFBFB",
"L  c #FCFBF9",
"P  c #FCFAFB",
"I  c #FFFBFA",
"U  c #F8FDF9",
"Y  c #FBFDF8",
"T  c #FAFCF9",
"R  c #F9FEF8",
"E  c #FAFFF9",
"W  c #FBFFF9",
"Q  c #F8FCFB",
"!  c #FBFDFA",
"~  c #FAFCFB",
"^  c #F9FEFA",
"/  c #FBFFFA",
"(  c #FAFFFB",
")  c #FDFCF8",
"_  c #FCFDF8",
"`  c #FEFDF8",
"'  c #FFFDF8",
"]  c #FEFDF9",
"[  c #FDFEF8",
"{  c #FCFEF9",
"}  c #FDFEF9",
"|  c #FFFEF9",
" . c #FEFFF9",
".. c #FCFCFA",
"X. c #FDFCFA",
"o. c #FDFDFB",
"O. c #FFFCFA",
"+. c #FFFDFA",
"@. c #FFFCFB",
"#. c #FEFDFB",
"$. c #FCFFFA",
"%. c #FDFFFA",
"&. c #FCFEFB",
"*. c #FFFEFA",
"=. c #FEFFFA",
"-. c #FFFFFA",
";. c #FEFFFB",
":. c #FFFFFB",
">. c #FBF9FC",
",. c #F9FAFC",
"<. c #FBFBFD",
"1. c #FBFAFF",
"2. c #FFF9FC",
"3. c #FDFBFC",
"4. c #FCFAFD",
"5. c #FCF9FF",
"6. c #FDF9FF",
"7. c #FEF8FF",
"8. c #FFF8FF",
"9. c #FDFBFE",
"0. c #FCFAFF",
"q. c #FDFAFF",
"w. c #FCFBFF",
"e. c #FDFBFF",
"r. c #FFFAFE",
"t. c #FFFAFF",
"y. c #FEFBFF",
"u. c #FFFBFF",
"i. c #F9FDFC",
"p. c #FBFDFC",
"a. c #FBFFFC",
"s. c #FAFEFD",
"d. c #F8FDFF",
"f. c #FBFCFE",
"g. c #F9FEFF",
"h. c #F8FFFF",
"j. c #F9FFFF",
"k. c #FBFFFE",
"l. c #FAFEFF",
"z. c #FAFFFF",
"x. c #FBFFFF",
"c. c gray99",
"v. c #FDFDFD",
"b. c #FFFDFC",
"n. c #FEFCFD",
"m. c #FFFCFD",
"M. c #FDFFFC",
"N. c #FCFEFD",
"B. c #FCFFFD",
"V. c #FEFEFC",
"C. c #FFFEFC",
"Z. c #FFFEFD",
"A. c #FEFFFD",
"S. c #FFFFFD",
"D. c #FCFCFE",
"F. c #FDFCFF",
"G. c #FCFDFF",
"H. c #FDFDFF",
"J. c #FFFDFE",
"K. c #FEFCFF",
"L. c #FFFCFF",
"P. c #FEFDFF",
"I. c #FFFDFF",
"U. c #FDFFFE",
"Y. c #FCFEFF",
"T. c #FDFEFF",
"R. c #FCFFFF",
"E. c #FEFEFE",
"W. c #FEFEFF",
"Q. c #FFFEFF",
"!. c #FEFFFF",
"~. c white",
"^. c #FDFDFC",
/* pixels */
"~.~.b Z / ~.~.x ..Z b ..b b b b D v 4.7 M ..m M ..b b b b b b D ~.D 4.~.D s.~.>.",
"~...b Z / ~.~.D b b b b b ..b ..D s.h q G h s.b ..b b b b b b ..~.~.~.~.~.~./ M ",
"~.D Z Z D 4.~.D b ....D ..D ....m a ~.u M v / c b b b Z D / ..~.>.s...~.~.>./ A ",
"~.S Z b >.~.~...~...~.4.~.~.~.4...M 4.4 4.D b z ......4.>./ s./ / ~.~.~.~.D >.A ",
"~.......~.~.~...~.~.~.~.~.~.4.~.c X   . . O ..s.D ~.~.4.~.s./ A ~.~.~.~.~.~.~.~.",
"........~.4.~.b ~.~.4.~.4.4.~.~.s.o 3 = 3 . V ..~.4.~.~.~.>./ x ~...S ..~.....~.",
"~./ ..b D ~.~.S ~.4.4.~.~.4.~.4.4.. 2 % 1   M D ~.4.~.~.~...S v ................",
"~...~...D ~.~.Z 4.~.~.4.~.~.4.~.D X 2 % 2 X 4.4.~.~.4.~.4.~.b b ~.~.....~.....~.",
"s.~.~.D D V / ~.~.~.~.4.~.~.4.~.4.  2 & 2   ~...4.~.~.4.~.4.~.4...b ..b ..~.>.s.",
"/ ..~.D D / ..~.~.4.4.~.4.~.~.4.~.  2 & 2   ~...~.4.4.~.~.~...~.b ........../ ~.",
"/ ..../ / / ~...~.~.~.~.~.4.4.~.4.  2 & 2   ~.~.~.4.~.4.~.4.~.4...~.~.......D ..",
"/ ~.D D / / ~.~.4.4.~.4.~.4.~.~.~.  2 & 2   ~...4.~.4.~.4.~./ ~.~...~.......Z b ",
"/ ..b ....~...~.~.4.4.~.4.~.~.4.4.  2 & 2   ~.~.4.~.4.~.~.4.~.4.~.~.~.~.......b ",
"/ ............~.~.~.~.~.4.~.4.~.~.  2 & 2   4...~.~.4.4.~.~...~.~.~.~.....b ....",
"/ ..b b ../ ~.~.4.~.~.4.~.~.4.~.~.o 2 & 2   ~.~.~.4.~.~.~.>.~.D ~.~.~...........",
"..b ....~.s...~.~.4.4.~.4.~.~.4.4.  2 & 2   4.~.4.~.4.4.~.~.~.~.....~.~.........",
"../ ..~.~.....~.~.D ~.4.~.~.~.4.~.  2 - 2   4...~.~.4.~.~...b b 4.~.~.~.4.D 4.~.",
"D x S ..~.~.~.~.>.~.4.~.4.4.4.~.4.# 2 $ 3   ..~.~.4.~.4.4.~.~.~.~.~.~.~.4.D D s.",
"~./ ..~.~...~.../ s.D 4.4.7.5.D S   2 & <   ~.n 4.4.7.7.4.4.4.4.~.~.~.~.~.~.s.s.",
"w w w w w 8 8 8 0 9 9 9 9 9 9 5 5   < , 2 o e y 9 9 9 8 w 9 9 9 8 w 8 w w w r r ",
"s.s.s.4.~.~.~.~.../ >.4.4.4.~.~...X 2 - 2   m f D D 4.4.4.4.D D ~.~.~.~.s.s.s.s.",
"/ S S / b ....~.~.~.~.~.~.~.~.~.4.  2 : 2 X ~.~.~.~.~.~.~.4.~.~...~.~...~./ / / ",
"................~.~.4.4.4.4.4.5.4.  2 ; 2   4.~.4.4.~.4.4.~.4...................",
"~.~.~...~.~.~.~.D ~.~.~.4.~.~.~.b X 2 & 2 o 4.b ~.~.4.~.~.~.....~.~.~.~.D ~.~.D ",
"........b ......~.~.4.~.~.4.~.~.~.  2 & 2   ~.~.4.~.~.4.~.4.~.~...~.~.....~.~...",
"..b ..b Z Z ....4.4.~.4.4.~.4.~.4.  2 & 2   4...~.4.4.~.~.~.~.4.~...........~...",
"....b ~.V / ~.~.~.~.~.4.~.~.4.4.~.  2 & 2   ~.~.~.4.~.4.~.~.~.D ~.~./ / ../ ....",
"..b ..../ / ~.~.4.4.~.~.~.4.~.~.4.  2 & 2   ~...4.~.~.4.~.4.~.~...~.../ Z / ....",
"Z x D >.A / ~...4.~.4.4.4.~.~.4.~.  2 & 2   ~...~.~.~.4.~.4.~.~........./ ......",
"Z S ..D M / ....~.4.~.~.~.4.~.~.4.  2 & 2   4.~.4.4.~.4.4.~.~.4.~.~.~...........",
"b b ..~./ b ..b 4.~.4.~.~.4.~.4.~.  2 & 2   ~.D ~.4.4.~.~.4.~.~...........b ....",
"....D ~./ Z b b ~.4.~.~.4.~.~.4.~.o 2 & 2   4.~.~.~.~.4.~.~.~.D ....b ......b ..",
"..~...~...~.....h h ..~.~.4.4.~.~.. 1 , 2   s.c ~.~.4.~.~.~.b b ~.~.....~.~.....",
"~...~.b 4.b ~.D ~.~.4.4.4.4.4.~.s.. < ; 1   ~.4.4.~...4.~.b 4.b ..........D ....",
"..~.b ~.b ~.b ..>.~.~.~.~.~...b M   2 * 2 o c / 4...4.~.~.4.b D ~.......~.....~.",
"~.~.~...~...~...D ..D x S b b b d O X   @ + s.s...~.~.~.~.D D ..~.~.~.~.~.~.~.~.",
"~./ 4.D ~...~.......D m n >.s.>...4.k 4 s.j G Z b ~.b D >.A V / ..~.~.~.~.D s.A ",
"~.s.v >.b ~.....c v Z D D ~.>.A / s ~.i h ~.f ~./ b ~.x V G Z ~.s./ 4.s.~.4.D A ",
"~./ >.Z ~.b ~...b h h v h b b b 5.g g t l g 4.h b ~.b D ..b ..b ~.4.~.~.~.>.s.D ",
"~.s.S s.b ~...........~.....b b b D / 6 ..c s.s.....D D ....b b ~.~.D ~.~./ s.s."
};
