/* XPM */
static char *_4a2d4d1256c4b84db0cd988d57a7b05kmHUhcgdbVPG2Dkm[] = {
/* columns rows colors chars-per-pixel */
"40 40 187 2 ",
"   c #693F00",
".  c #6E3D0A",
"X  c #743C01",
"o  c #7D3D01",
"O  c #7D3D0A",
"+  c #6F4000",
"@  c #6E410A",
"#  c #754401",
"$  c #7C4301",
"%  c #774A06",
"&  c #7B4A01",
"*  c #76430A",
"=  c #7B440A",
"-  c #7C4909",
";  c #7E4116",
":  c #77481C",
">  c #7B7502",
",  c #7C7D02",
"<  c #7D7D0B",
"1  c #7E7F17",
"2  c #823702",
"3  c #893602",
"4  c #833D01",
"5  c #8A3C02",
"6  c #823E0B",
"7  c #8C3B0C",
"8  c #943600",
"9  c #833F10",
"0  c #824201",
"q  c #894201",
"w  c #834A01",
"e  c #83420B",
"r  c #8A430C",
"t  c #8A480E",
"y  c #83490A",
"u  c #914001",
"i  c #844116",
"p  c #884518",
"a  c #807500",
"s  c #897700",
"d  c #827D02",
"f  c #897800",
"g  c #817F08",
"h  c #8A780A",
"j  c #EF7D34",
"k  c #FF7536",
"l  c #FF7C35",
"z  c #FE773D",
"x  c #F47F3D",
"c  c #FF7D3C",
"v  c #FF7643",
"b  c #F37F42",
"n  c #FE7D44",
"m  c #FF774A",
"M  c #FE7C4A",
"N  c #FE7D53",
"B  c #768201",
"V  c #7C8301",
"C  c #7C8B03",
"Z  c #7D820B",
"A  c #828302",
"S  c #8B8202",
"D  c #8C8E00",
"F  c #84810A",
"G  c #818B08",
"H  c #FD832D",
"J  c #F68232",
"K  c #FC8235",
"L  c #F5823D",
"P  c #FD823C",
"I  c #F38838",
"U  c #FC8A3A",
"Y  c #FFF700",
"T  c #F6FD02",
"R  c #FEFD01",
"E  c #F58242",
"W  c #FE8343",
"Q  c #F58843",
"!  c #FF8940",
"~  c #FE834B",
"^  c #F4824E",
"/  c #FE8353",
"(  c #8776F6",
")  c #847AFD",
"_  c #8C7BFF",
"`  c #7C82F2",
"'  c #BABCAF",
"]  c #BCBEB4",
"[  c #BCBCBB",
"{  c #C3BEB5",
"}  c #CDBBB6",
"|  c #C2BEBD",
" . c #C9BABD",
".. c #B7C3AD",
"X. c #BCC3AF",
"o. c #B6C8AE",
"O. c #B5C2B3",
"+. c #BDC3B6",
"@. c #B6C4BA",
"#. c #BBC3BC",
"$. c #C0C5AF",
"%. c #C0C0B5",
"&. c #C2C2BC",
"*. c #CBC1BC",
"=. c #C1CAB9",
"-. c #BFB7C6",
";. c #B6BEC0",
":. c #BBBEC2",
">. c #B4BEC8",
",. c #B9BCCF",
"<. c #8080EE",
"1. c #8882EC",
"2. c #8087F2",
"3. c #8983F7",
"4. c #8484FD",
"5. c #C4BCC3",
"6. c #C9BCC3",
"7. c #C4B7C8",
"8. c #C2BDC9",
"9. c #C9BDCB",
"0. c #C4BBD0",
"q. c #B6C3C4",
"w. c #BCC2C4",
"e. c #BCC4CB",
"r. c #B4C0CC",
"t. c #C2C2C2",
"y. c #CAC2C3",
"u. c #C0C9C4",
"i. c #C4C3C9",
"p. c #C8C7CC",
"a. c #C3C4D3",
"s. c #ECF9E7",
"d. c #E8F3ED",
"f. c #F3F6E4",
"g. c #F5FEE3",
"h. c #FCFCE4",
"j. c #F4F7EE",
"k. c #FDF2EE",
"l. c #F7FEEC",
"z. c #FCFEED",
"x. c #FDEEFF",
"c. c #EEF4F0",
"v. c #EEFAF5",
"b. c #ECFDFE",
"n. c #F5F5F2",
"m. c #FEF6F5",
"M. c #F5FDF4",
"N. c #FDFEF4",
"B. c #F6F7FF",
"V. c #FEF5FD",
"C. c #F6FFF9",
"Z. c #F2FEFF",
"A. c #F7FFFF",
"S. c #F4FFFE",
"D. c #F5FEFD",
"F. c #FEFBFA",
"G. c #FBFDF8",
"H. c #FAFEFA",
"J. c #FDFEF9",
"K. c #FFFFF9",
"L. c #FDFDFB",
"P. c #FDFCFA",
"I. c #FFFFFA",
"U. c #FFFFFB",
"Y. c #FDFEFA",
"T. c #FAFAFE",
"R. c #FFF9FF",
"E. c #FDFBFF",
"W. c #FFFBFF",
"Q. c #FFFBFF",
"!. c #FCF9FF",
"~. c #FBFCFF",
"^. c #F9FFFF",
"/. c #FBFFFF",
"(. c #FAFDFD",
"). c #FDFDFD",
"_. c #FFFCFD",
"`. c #FEFEFC",
"'. c #FFFFFD",
"]. c #FDFDFF",
"[. c #FCFCFF",
"{. c #FFFDFF",
"}. c #FCFFFF",
"|. c #FFFEFF",
" X c #FEFFFF",
".X c #FCFEFD",
"XX c #FDFDFD",
/* pixels */
"L.G.T.G.H.H.L.L.!.z.H.M.z.V.~.~.).M.B.) z.L.R.M.L.L.).).).J.L.).L.L.L.L.J.).G.).",
"J.~.l.T.J.).L.L.!.Z.).J.b.~.h.H.z.H.F.3.J.).).M.).).L.l.H.).).G.L.L.L.N.).l.T.L.",
").l.B.N.).L.J.F.M.J.).~.n.C.v.).!.).T.` L.D.).l.).L.N.).).).J.G.L.L.L.).N.B.z.!.",
"J.T.z.!.).J.L.F.Z.N.V.T.H.S.J.F.).L.).4.).~.~.).).~.H.).R.).L.).L.).J.L.).l.B.L.",
").L.).L.J.).J.).S.G.).H.m.G.~.S.G.).o 2 - 4 2 ).!.H.N.).).Z.G.R.).N.).L.).).L.).",
").).).J.).z.!.J.V.L.m.Z.!.S.F.).3 & $ O 4 & 4 O O z.S.Z.h.Z.~.!.J.!.z.).L.).).).",
").).F.!.z.!.z.).R.~.m.M.Z.v.= 0 - = n c L n c - $ y o L.).D.h.L.).N.!.N.).L.L.).",
").).F.L.).J.L.L.~.M.).z.o q 4 6 k W W n P ~ c L P o w O 4 L.).!.L.L.J.L.J.L.L.).",
"J.H.!.v.b.).F.~.).J.0 O 4 0 ^ H n Q L n W k / L W n W o & - 3 l.).S.!.!.).S.N.~.",
"N.G.m.N.F.V.J.n.# 4 % & P W W n n H W P P n W P j W ~ z P 3 = = $ ).L.L.h.L.T.L.",
"!.Z.~.V.S.M.# y 4 5 k k ~ c M ~ ~ c n M c W n c n P N M n K c 4 4 # & L.S.).!.m.",
").S.z.$ 2 i o 5 # & 7 y + $ 0 4 o 0 q 0 4 = $ 5 0 4 $ $ $ $ 0 0 4 w 0 $ @ !.L.S.",
"C.L.k.o = 0 O = 0 # 2 - 5 0 # 4 4 o o 2 0 4 4 o * $ 4 = $ o O q 5 0 . o y V.J.S.",
"x.~.b.w $ $ 2 0 8 * 4 & 4 $ 4 q 0 & 0 4 = q % - 4 0 0 o r q # = O o w 4 O N.J.J.",
"M.L.).~.B.q 0 4 4 P ~ c / 7.M n l P w.~ c j z ] ~ L P n { b c 5 $ u 2 N.L.z.).L.",
"T.L.h.V.).w o $ 4 L W K H u.L W M L i.c W ~ n t.c P N W :.W M & $ 0 e Z.~.F.~.).",
"F.N.!.!.!.0 $ 0 $  .:.&.$.5.u.[ &.5.&.i.&.t.+.+.[ =.:.y.>.{ w.5 0 o y ~.T.~.~.J.",
"H.).~.z.L.# y o q E n 5.M K n W e.n P k n a.b M ~ v y.x P n W o 0 q o N.z.N.).L.",
"S.B.C.).L.4 4 4 o / W >.U n v K [ P ~ W c [ W n J W i.b W I n & 2 r $ ).).S.).).",
"4.3.` ( 3.; X w & 6.+.y.#.w.6.5.y.O.i.&.w.} i.+.&.+.-.t.| [ 6.O &   : 2.) ` ` 4.",
"h.!.J.!.L.o p 4 4 z K P M } W P n M O.M W J M O.M n W W { ~ M o 4 r 2 ).L.).R.L.",
"J.l.).!.~.& o $ 9 n ~ b ~ | W x W / 5.~ n ~ c 9.n P E x w.E k & o 0 w T.!.N.N.J.",
"!.).L.!.).q 4 4 o ] #.*.t.] w.9.' w.%.| t.&.@.e.>.o.:.w.*.q.+.q 0 4 $ ).L.J.L.F.",
"N.N.C.J.).0 o 4 0 K W 0.c / P K 0 # 5 $ 4 $ 0 4 5 M 5.c M P W O 0 = 0 H.L.~.).L.",
"L.L.C.S.).0 $ 4 $ l W 0.c ~ P c 4 0 $ 0 4 6 4 0 0 L t.K M ^ z w 0 4 $ ).).).).).",
"L.L.M.~.).0 $ 0 4 ] #.*.i.O.w.i.$ 9 4 4 9 0 $ 4 5 ,.p.' &.a.' # 0 o $ ).).~.).).",
"L.L.M.H.).0 $ 4 ; P ~ E ~ 5.n c # X r 0 X & # $ 0 K M W ] n c i 0 0 $ ).).~.).).",
"L.L.C.~.).0 $ 4 4 c K c M } P L 4 i 0 0 e o 4 5 4 I E M 5.I n 5 0 0 $ ).).).).).",
").).C.).).0 & 4 # 6.X.y.+.w.y.5.$ Y T R Y $ 0 0 = 7.t.{ 9.w.+.$ 0 0 $ ).).~.).).",
"L.).M.).).q $ o o / ~ >.W W v P 0 Y T T R O 0 o 4 n 6.P l n W 4 0 4 $ ).).).).).",
"L.!.C.).).0 $ 0 0 W W 5.M P n W = R T R R = 0 # 0 L p.n n c M # 0 $ $ ).).).).).",
"H.!.S.).).0 $ $ 0  .:.&.X.5.&.[ o 0 0 e 4 4 0 4 = +.8.o.i.] i.o 0 0 0 ).).~.).).",
"H.F.S.G.J.o 0 = 6 c W P P #.n ! i o 0 4 0 $ e o 0 W z U 5.Q P 4 4 0 $ R.M.V.l.S.",
"G.m.T.A A r o o # l M c W @.M n o 0 $ o 0 O o 0 o W W n q.z n # 0 4 6 d Z d R.).",
"~.!.)., A o 0 $ 0 A d G > , Z s A , A F V , A V C > V F > A F % # o o S B A m.J.",
"D.N.J.B B s S g , B , A S B B A F V , , A , < g A d g B Z V , V A d V B H.~.C.Z.",
"D.M.s.).).F G , d Z C R.B Z Z A , A A g , D d d , B C > V A a F A S d 1 x.z.N.V.",
"V.R.V.N.).).c.).T.d n.h L.k.S.M.S.M.S.1.H.d.S.J.g R.m.N.V ~.h.Z.B B J.).h.Z.f.H.",
"l.!.n.G.).L.z.h.N.z.H.H.!.h.!.R.L.!.N.( ).).N.!.l.G.H.~.A f.).!.G.L.~.m.).v.R.F.",
"L.D.J.~.N.S.J.!.J.F.~.z.~.z.N.G.T.g.J._ n.N.!.).).!.).z.R.).g.N.T.m.Z.N.G.Z.F.F."
};
