/* XPM */
static char *aG9tZW9wZW4_[] = {
/* columns rows colors chars-per-pixel */
"40 40 201 2 ",
"   c #000000",
".  c #030309",
"X  c #0B0003",
"o  c #040112",
"O  c #6D3F00",
"+  c #6A3F0A",
"@  c #773B00",
"#  c #7C3D01",
"$  c #7C3E09",
"%  c #76380D",
"&  c #773F10",
"*  c #7D3F10",
"=  c #7D3F18",
"-  c #6E4600",
";  c #6E400C",
":  c #754402",
">  c #7D4301",
",  c #7A4902",
"<  c #76440B",
"1  c #7D430A",
"2  c #724A09",
"3  c #7D490A",
"4  c #7D4515",
"5  c #794A17",
"6  c #6C7509",
"7  c #7C7504",
"8  c #747D00",
"9  c #7C7C02",
"0  c #7D7C0C",
"q  c #757F0C",
"w  c #787410",
"e  c #7E7E1A",
"r  c #823603",
"t  c #893700",
"y  c #833D02",
"u  c #8B3D01",
"i  c #843D0A",
"p  c #8B3C0D",
"a  c #85360B",
"s  c #913A00",
"d  c #933B08",
"f  c #823D16",
"g  c #824202",
"h  c #8B4301",
"j  c #834901",
"k  c #82430A",
"l  c #8A420C",
"z  c #854A0A",
"x  c #924103",
"c  c #815105",
"v  c #8C4312",
"b  c #86441B",
"n  c #867703",
"m  c #8A7700",
"M  c #837D04",
"N  c #867A0A",
"B  c #827717",
"V  c #FE7E2E",
"C  c #EC7C32",
"Z  c #FF7236",
"A  c #FE7D35",
"S  c #FE763C",
"D  c #FE7D3C",
"F  c #F17E3B",
"G  c #FF7742",
"H  c #F27D41",
"J  c #FD7D44",
"K  c #F67D4B",
"L  c #FD7C4B",
"P  c #FF754A",
"I  c #FD7D51",
"U  c #F97F58",
"Y  c #6F8800",
"T  c #6F8204",
"R  c #778202",
"E  c #7E8301",
"W  c #7D8901",
"Q  c #7C8109",
"!  c #7A8112",
"~  c #828203",
"^  c #8B8104",
"/  c #83810B",
"(  c #838A09",
")  c #8A8805",
"_  c #948508",
"`  c #F9822C",
"'  c #F58234",
"]  c #FD8235",
"[  c #F5823C",
"{  c #FC833C",
"}  c #FF893E",
"|  c #F2883E",
" . c #F4FD03",
".. c #F8FE00",
"X. c #EFF811",
"o. c #F58141",
"O. c #FE8343",
"+. c #FF8843",
"@. c #F4824E",
"#. c #FD834B",
"$. c #F28C44",
"%. c #FE8354",
"&. c #7F7FED",
"*. c #7F78FF",
"=. c #8577F3",
"-. c #8C79FF",
";. c #857FFD",
":. c #7981EE",
">. c #7E82F0",
",. c #BCBDB3",
"<. c #BDBCBA",
"1. c #BDB7BB",
"2. c #C0BEAF",
"3. c #CCBAB6",
"4. c #C4BCBC",
"5. c #CBBBBB",
"6. c #D4BDB5",
"7. c #BCC5AF",
"8. c #B5CBA5",
"9. c #B3C3B5",
"0. c #BCC3B1",
"q. c #B3C3BA",
"w. c #BAC3BA",
"e. c #B5C9B0",
"r. c #C3C2BC",
"t. c #C3C5B9",
"y. c #BCBEC1",
"u. c #B2BFC8",
"i. c #BCBECA",
"p. c #B4BEC0",
"a. c #BBBBD1",
"s. c #8980E9",
"d. c #8883F5",
"f. c #8484FE",
"g. c #8384F4",
"h. c #C3BCC3",
"j. c #CABCC4",
"k. c #CCB6CB",
"l. c #C5BDCB",
"z. c #CEBEC9",
"x. c #C4BBD0",
"c. c #ADC6C2",
"v. c #B6C4C3",
"b. c #BDC1C3",
"n. c #B4C7CE",
"m. c #BDC4CA",
"M. c #BDC9C5",
"N. c #B5C8D6",
"B. c #BEC4D0",
"V. c #C3C3C3",
"C. c #C4C2CB",
"Z. c #C7C9C8",
"A. c #CBC1C9",
"S. c #F9EFEE",
"D. c #EBF3ED",
"F. c #EFFCEF",
"G. c #EBF8E6",
"H. c #FFF7E5",
"J. c #F6FEE4",
"K. c #FCFEE5",
"L. c #FDF4EC",
"P. c #F5FEEB",
"I. c #FCFDED",
"U. c #F3F5E8",
"Y. c #FEEDFE",
"T. c #ECFBF4",
"R. c #E6FEFE",
"E. c #EDFDFD",
"W. c #F4F5F4",
"Q. c #FDF5F3",
"!. c #F4FDF4",
"~. c #FDFEF5",
"^. c #F4F6FE",
"/. c #FEF5FD",
"(. c #F1FFFF",
"). c #F7FFFF",
"_. c #F6FEFE",
"`. c #F4FDFD",
"'. c #FDFBF9",
"]. c #FAFEF9",
"[. c #FDFEF8",
"{. c #FDFEF9",
"}. c #FFFFF9",
"|. c #FDFDFB",
" X c #FCFCFA",
".X c #FFFFFB",
"XX c #FEFFFA",
"oX c #FDFDFA",
"OX c #FAF9FF",
"+X c #FDFAFF",
"@X c #FFFBFF",
"#X c #FEF8FE",
"$X c #FBFCFF",
"%X c #F9FEFE",
"&X c #FDFDFD",
"*X c #FDFDFF",
"=X c #FFFDFF",
"-X c #FDFFFF",
";X c #FEFFFF",
":X c #FEFEFD",
">X c #FDFDFD",
/* pixels */
"|.]. X]. X].|.|.&XI.].!.L.#X_._.>X!.OX;.J.~.#XP.&X'. X&X|.~.[.&X|.[.[.|.~.&X].&X",
"[.$XP.$X[.&X|.[.Q.(.$X[.R._.K.].J.&XQ.;.[.|.'.P.&X&X].P.].&X&XP.|.|.|.[.$XI.$X X",
">XP.^.~.&X|.[.'.!.].&X&X!.!.T.$X>X'.$Xf.[.W.|.P.|.|.I. X>X>XQ. X|.[.|.&XI.^.P.$X",
"[.$XQ.&X|.[.>X~.(.Q./.&X'.(.~.L.>X|.&X&.&X$X_.&X|._. X&XY.>X|.$X|.&X[.|.&X~.$X X",
"&X[.&X&X[.&X~.&X$X!.>X!.Q.!.$X_.~.|.# y , y t &X>X^.~.$X&XE.^.#X&X~.&X[.&X&X[.&X",
"|.&X&X|.&XI.&X|.^.].W.`.>X_.].|.t , # $ y , # $ @ I.(.(.H.(._.&X|.>XI.&X[.|.&X|.",
"&X|.~.#XI.>XI.&X#X_.Q.P.E.T.3 > , < J D F G D 2 k z # |.&XT.K.|.&X~.>X~.&X[.|.&X",
"&X|.>X'.>X[.|.|.$X!.$XJ.# u t i D J O.H { #.D o.J @ j 1 r [.$X>X|.&X[.&X[.|.&X&X",
"[.!.>XT.R.|.Q.(.&X[.1 # y g @.A J [ [ O.[ A %.F +.J #.# > 1 t I.&XE.&X X$XE.I.$X",
"I.].L.].Q./.~.W.> g 2 , { O.O.L J ` O.{ { L O.{ C { K S } t 1 3 # &X X].K.[.W.[.",
"&X(._.Y.(.!.: k i u Z Z #.D L #.#.D J K D #.L D D [ I I J [ [ t # < :  X(.$X|.Q.",
"$X(.I.g r b # t : , p k O , g a $ y l > y i > h > y > > , > , g # j h > + '.|.(.",
"!.[.L.@ k g $ 4 > > y 3 p g : > $ y # y g i # $ < # y 1 > y $ h p u % > z Q.[.(.",
"Y.`.R.j > > a 1 s ; y , y 1 y g g , g t 3 y : < y j g > v h @ $ & # j y $ ].[.~.",
"F.|.&X$X^.u k y t } #.J %.l.L L A O.v.#.D ' S ,.%.F [ G 4.J J t : x r ~.[.L.'.|.",
"OX'.K.Y.&Xj # 1 g [ J A ` M.[ O.#.[ b.D @.O.G b.O.{ %.J q.O.I , # j l (.$XL._.&X",
"~.I.Q.>X&Xg > k > 4.y.r.7.h.V.<.h.j.y.l.b.V.w.t.4.t.1.A.a.,.k.y > # z $X$X_.$X].",
"$X$X$XP.&X> k # g o.L h.L ] J +.n.D O.A O.m.o.L H O.C.A O.{ ] - y v @ [.H.~.&X[.",
"_.^.].&X|.# i i # %.#.u.} O.G ] <.] O.O.D 4.O.J ' L 5.$.O.' L : # p > &X&X$X&X&X",
"f.d.&.=.d.4 @ j , k.0.V.w.b.j.h.A.9.C.h.b.5.l.w.Z.t.a.2.V.q.k.l , + 5 g.*.:.>.f.",
"K.>X[.>X[.# v y t D { D K 3.O.[ J L 9.L #.' L 9.K K ] +.V.$.G # u v # &X>X&XOX[.",
"[.U. X>X`.j # > 4 D #.H #.4.O.D o.#.4.#.D @.D l.' L O.D h.H V 2 # g h `.#X[.K.~.",
">X&X&X#X|.g g i # 2.q.r.b.,.v.A.7.b.w.w.V.r.q.B.v.8.C.y.6.N.e.x g # g &X>X[.~.Q.",
"!.~.W.[.|.# y y k { O.x.D #.O.A     X           x @ O.i.] ` L % g 1 1 $X'.`.&X[.",
"|.|.`.].&Xg > y > { O.x.D #.[ D                 u h u k #.{ Z g g # g $X&X X&X&X",
"|.'.!._.&X> > g y ,.w.V.h.,.v.C.                y k h : y v.m.: g > > $X&X$X&X|.",
"|.&X!.].&Xg > y 4 D #.H #.h.O.A                 i g v h g s ' 4 g y > &X&X X&X|.",
"|.|.].$X&X> > y u D [ D K 3.O.{                 i h j : d l O.t g g > $X>X$X&X&X",
"|.|.!._.&Xg > y : j.0.V.q.b.j.V.                3 , u h k > c.i g # g $X&X X&X|.",
" X|.`. X&Xg , g # %.#.u.} J G ]                 y h s X.z h A > g > > $X&X$X&X|.",
" X>X`. X&Xg > y g J J j.L ] J O.                < h l  . .y #.: g y > &X&X$X&X&X",
" X$X].&X&Xg > # > h.b.r.7.h.V.<.                j g h y ..: b.y g g > $X&X X&X&X",
"!.Q.(.'.[.# g > a { } D { w.J | o           .   j h s u z u { y g y @ >XP.Y.P.(.",
"!.Q.$XE ~ l # $ : D @.G O.q.P J   .   . . .     f $ c > > g } # g y i n ! M >X&X",
"$X'.$X9 / # y j j ^ M ( 9 0 Q n ~ 9 E / ~ 9 ) R 8 e s k y g _ * < # : ^ 8 M /.[.",
"^.Q.~.R R m ^ M 9 8 9 E ^ R R ~ / 9 Q 0 E 9 0 ~ m Q B w x l 6 ( 9 M 9 R  X$X!.E.",
"E.!.G.$X&XQ Q R M Q W /.R Q 0 ~ 9 N ~ 0 7 ) 9 N n W Y 8 n q M 6 ~ _ M e Y.L.I.Q.",
"'.>X#XQ.&X&XD._.`.M W.N |.S._.!.`.~.].s.~.D.OX[.! P.Q.>XQ W.~.$XT R |.>XP.`.U.$X",
"I.$XW. X&X XI.H.].I. X!.#XK.>X/.].!.I.=.$X$X~.>XP.#X>X^.E T._.#X!.|.`.W.&XP.#XI.",
"|.`.~. X~._.~.$X[.Q.(.H.$XP.I. X XJ.[.-.!.K.>X&X~.$X>XI.Q. XK.I.&XQ.].[.!.(.Q.~."
};
