/* XPM */
static char *b29ecc961cb04d76cb0a325094985df2aRigxRByL2bmcSyI[] = {
/* columns rows colors chars-per-pixel */
"40 40 138 2 ",
"   c #000001",
".  c #0B0302",
"X  c #030B03",
"o  c #0B0B03",
"O  c #03020B",
"+  c #08070D",
"@  c #040D08",
"#  c #0A0A0B",
"$  c #13080E",
"%  c #040312",
"&  c #0B0513",
"*  c #0B0A11",
"=  c #03021A",
"-  c #04091D",
";  c #0D0B18",
":  c #121213",
">  c #001125",
",  c #7D7D7E",
"<  c #837D7B",
"1  c #7E827C",
"2  c #77897B",
"3  c #83837E",
"4  c #89897F",
"5  c #7F7F81",
"6  c #7276EE",
"7  c #6F70FE",
"8  c #777AF5",
"9  c #797BF6",
"0  c #7876FB",
"q  c #7B7FFA",
"w  c #857D8A",
"e  c #768484",
"r  c #788083",
"t  c #758C86",
"y  c #6585E8",
"u  c #7C82F0",
"i  c #7C80FB",
"p  c #838283",
"a  c #80808C",
"s  c #B7B7B7",
"d  c #B9B6BD",
"f  c #BDBDBD",
"g  c #C1BCB6",
"h  c #C1BFBD",
"j  c #BEC3BE",
"k  c #B6CBBC",
"l  c #C1C1BE",
"z  c #BFBFC1",
"x  c #8388EE",
"c  c #8690EF",
"v  c #8385FF",
"b  c #C2BFC1",
"n  c #C4BCCF",
"m  c #B6C6C3",
"M  c #BEC2C1",
"N  c #C2C2C3",
"B  c #F7FFDA",
"V  c #ECEEED",
"C  c #F2EEEB",
"Z  c #FAFEE5",
"A  c #F1F0EB",
"S  c #F8F5EC",
"D  c #FAFDEE",
"F  c #EEF2F1",
"G  c #F5F5F5",
"H  c #F7F9F4",
"J  c #FDFDF5",
"K  c #F6F6FD",
"L  c #F9F7F8",
"P  c #F7F8FA",
"I  c #F7FBFA",
"U  c #F6FAFB",
"Y  c #F5F9F9",
"T  c #F7FDFB",
"R  c #F7FBFC",
"E  c #F9F9F9",
"W  c #F8FAF9",
"Q  c #FAFAF8",
"!  c #FBFBF9",
"~  c #F8F8FA",
"^  c #FBF9FA",
"/  c #F9FBFA",
"(  c #FBFBFB",
")  c #FCFBF9",
"_  c #FBFDF8",
"`  c #F8FCFB",
"'  c #FBFDFA",
"]  c #FAFCFB",
"[  c #FDFCF8",
"{  c #FCFDF8",
"}  c #FEFDF8",
"|  c #FFFDF8",
" . c #FDFEF8",
".. c #FCFFF8",
"X. c #FDFEF9",
"o. c #FFFEF9",
"O. c #FCFCFA",
"+. c #FDFCFA",
"@. c #FDFDFB",
"#. c #FEFDFB",
"$. c #FDFFFA",
"%. c #FEFFFA",
"&. c #FFFFFA",
"*. c #FEFFFB",
"=. c #FFFFFB",
"-. c #F9F8FE",
";. c GhostWhite",
":. c #FBF8FF",
">. c #FAFBFF",
",. c #FDFBFC",
"<. c #FCF9FF",
"1. c #FCFAFF",
"2. c #FDFAFF",
"3. c #F9FDFC",
"4. c #F8FCFD",
"5. c #FBFDFC",
"6. c #F9FFFD",
"7. c #FAFEFD",
"8. c #FBFCFE",
"9. c #FAFEFF",
"0. c #FBFFFF",
"q. c gray99",
"w. c #FDFDFD",
"e. c #FEFCFD",
"r. c #FCFEFD",
"t. c #FEFEFC",
"y. c #FEFFFD",
"u. c #FFFFFD",
"i. c #FCFCFE",
"p. c #FFFDFE",
"a. c #FDFFFE",
"s. c #FCFFFF",
"d. c #FEFEFE",
"f. c #FEFEFF",
"g. c #FFFEFF",
"h. c #FEFFFF",
"j. c white",
"k. c #FEFEFD",
/* pixels */
"                                                    O   +   < N N ~ ..h.Q ....h.",
"                                                  X X       p p N ^ h.J K D 6.J ",
"                                                + o   #   X   p z ~ h.h.D :.D 6.",
"                                                  :     X $ X , h e.J o.:.D >._ ",
"                                                #     #     < , b J e.J ..h.....",
"                                                    #   # O   p h <.D e.J h...o.",
"                                                .     +   O X w h D e.J ~ o...~ ",
"                                                X     X   o   1 l ~ J h.J J o.o.",
"                                                    + X     5 w l e.L L R h.Y o.",
"                                                  # #   < 5 3 f h b f h.G Y h.Q ",
"                                                #       p p 1 , , , b N 6.>.V h.",
"                                                  X #           p p   M >.Y >.o.",
"                                                o +     # . X O .     N Y 6.h.o.",
"                                                  #   X   , #       p b >.F ..~ ",
"                                                  , p p p , p 1 3 p f j Y >.o.Q ",
"                                                  p , , N N f N f N f h.>.>.~ h.",
"                +   O O *   O % X X = o >   O #   X . , M I Y I h.>...>.6.6.h.h.",
"                  O X o X O + O w 3 w , 2 <     $   p l j A o.o.o.J J o.o.J J J ",
"                * *       % % 1 h C D Z x K p 1 p , N f h.h.Y ~ h.h.>.>.>.>.h.h.",
"                O     #   O & r k k x 6 y c 0 q 6 v v 8 9 8 i 9 i i i i i i i i ",
"                X O +   O . X 5 < n d h 7 Z J B h.Q ~ L h.G ^ e.h.o.:.h.h.>.:.h.",
"                  #   % O   X % 3 w 3 , t n S h.Q G h.h.H h.Q ^ h...o.o.o...o.o.",
"                +   O &   X %   % . O $ e < g j l G h.H H Q h.^ :.h.e.h.h.h.h.h.",
"                  O O   + % O . - % & . X w p r j j s H o.Q Q o.........o.o.....",
"                                        #     p , , p f ~ h.~ h.h.o.h.h.h.h.h.o.",
"                                    #   + X     X   , N h.H e.h.o.h.h.h.h.h.h.o.",
"                                    o     o X       p b e.h.H H h.o.h.h.h.h.h.h.",
"                                  #   # O         p f N L L e.h.h.^ h.h.h.h.o.h.",
"                                    #       *   p p N G h.L h.G h.o.h.h.h.h.h.h.",
"                                O . X   :     1 , f b h.~ H H h.o.h.e.h.h.h.o.o.",
"                                      #     # p p j f f f e.:.e.h.o.h.h.h.h.h.h.",
"                                    X       o , , p z p N H ~ h.h.o.h.h.h.h.h.h.",
"                                    O + O O O     X , p f h.o.~ o.^ o.h.J ..h...",
"                                +   o O + O   * +     , f h.H h.h.J h.J >.o.o...",
"                                O * o     O :       < p N ~ G ^ J <.D h.o.o.h.o.",
"                                ;   O   p 5 p 5 5 5 5 N b H h.h.h.D h.J o.h.J o.",
"                                ;   #     p p p p M f N h.h.~ h.J e.J o.h.D >.J ",
"                                O ; O X ;         p p f f N ^ h.o.^ h.h.H K D >.",
"                                    O O & + O     + p p p s h.h.o.~ h.J :.D :...",
"                                  X     % O O   X       3 N h.^ h.e.o.h.J >...>."
};
