/* XPM */
static char *c18b51cc1bf3463fb0d8b71eb34c5e47LtnkaOa2qOVSeoF2[] = {
/* columns rows colors chars-per-pixel */
"40 40 159 2 ",
"   c #010101",
".  c #030903",
"X  c #0A0C05",
"o  c #02010A",
"O  c #09020A",
"+  c gray3",
"@  c #030211",
"#  c #090911",
"$  c #000118",
"%  c #7C7AFE",
"&  c #867FE4",
"*  c #887BEF",
"=  c #8677F0",
"-  c #8579F7",
";  c #8B7CF4",
":  c #8473FD",
">  c #8977FD",
",  c #847AFF",
"<  c #8B7BFD",
"1  c #8081F5",
"2  c #8F81F2",
"3  c #8283FF",
"4  c #8C80FC",
"5  c #8C89FE",
"6  c #9282FF",
"7  c #FEFFDF",
"8  c #F4FDE6",
"9  c #F8FFE7",
"0  c #F5F6EB",
"q  c #F5FBEC",
"w  c #FCFEEC",
"e  c #EFEFFB",
"r  c #EFF1F0",
"t  c #EEF2FB",
"y  c #F6F6F4",
"u  c #FAF6F3",
"i  c #F6F8F6",
"p  c #F5FCF5",
"a  c #F6FAF4",
"s  c #F9FAF2",
"d  c #FAFBF3",
"f  c #FBFFF1",
"g  c #FBFDF2",
"h  c #FCFFF2",
"j  c #FCFEF3",
"k  c #FEFFF3",
"l  c #FFFFF3",
"z  c #F9FAF5",
"x  c #F8F8F6",
"c  c #F9F8F6",
"v  c #F9F9F7",
"b  c #FAF9F7",
"n  c #F9FBF6",
"m  c #FCFBF7",
"M  c #FEFAF7",
"N  c #FBFEF5",
"B  c #FAFCF7",
"V  c #FBFCF7",
"C  c #FCFDF5",
"Z  c #FFFDF4",
"A  c #FFFFF4",
"S  c #FCFFF6",
"D  c #FFFFF7",
"F  c #FCFDF4",
"G  c #F3F3FB",
"H  c #F3F4F8",
"J  c #F3F4F9",
"K  c #F7F6FF",
"L  c #F6F6FD",
"P  c #FAF5FF",
"I  c #F7F9F8",
"U  c #F7F8FA",
"Y  c #F7FCF8",
"T  c #F6FFFD",
"R  c #F8F8F8",
"E  c #F9F9F9",
"W  c #FAF8F9",
"Q  c #FAFAF8",
"!  c #FBFBF9",
"~  c #F8F9FB",
"^  c #F9F9FB",
"/  c #F9FBFA",
"(  c gray98",
")  c #FBFBFB",
"_  c #FCFBF9",
"`  c #FAFCF9",
"'  c #F8FFF8",
"]  c #F8FCFB",
"[  c #FBFDFA",
"{  c #FBFFFA",
"}  c #FBFFFB",
"|  c #FCFDF8",
" . c #FDFEF8",
".. c #FCFEF9",
"X. c #FDFEF9",
"o. c #FDFFF9",
"O. c #FFFFF8",
"+. c #FCFCFA",
"@. c #FDFCFA",
"#. c #FDFDFB",
"$. c #FEFDFB",
"%. c #FDFFFA",
"&. c #FCFEFB",
"*. c #FFFEFA",
"=. c #FEFFFA",
"-. c #FFFFFA",
";. c #FFFEFB",
":. c #FEFFFB",
">. c #FFFFFB",
",. c #F9FAFC",
"<. c #FAFBFD",
"1. c #F9F9FF",
"2. c #F9FAFF",
"3. c #FBFAFF",
"4. c #FAFBFF",
"5. c #FDF8FC",
"6. c #FDFBFC",
"7. c #FCF9FF",
"8. c #FDFAFF",
"9. c #FCFBFF",
"0. c #FDFBFF",
"q. c #FEFBFF",
"w. c #FBFDFC",
"e. c #F9FFFD",
"r. c #FBFFFD",
"t. c #F8FCFF",
"y. c #F8FDFF",
"u. c #FBFCFE",
"i. c #FBFCFF",
"p. c #FAFDFF",
"a. c #F9FEFF",
"s. c #F9FFFF",
"d. c #FBFFFF",
"f. c gray99",
"g. c #FDFDFD",
"h. c #FEFCFD",
"j. c #FCFEFD",
"k. c #FCFFFD",
"l. c #FEFEFC",
"z. c #FFFEFC",
"x. c #FEFFFD",
"c. c #FFFFFD",
"v. c #FCFCFE",
"b. c #FCFCFF",
"n. c #FDFCFF",
"m. c #FCFDFF",
"M. c #FDFDFF",
"N. c #FFFDFE",
"B. c #FEFCFF",
"V. c #FEFDFF",
"C. c #FDFFFE",
"Z. c #FDFEFF",
"A. c #FCFFFF",
"S. c #FEFEFE",
"D. c #FEFEFF",
"F. c #FFFEFF",
"G. c #FEFFFF",
"H. c white",
"J. c #FDFEFD",
/* pixels */
"E c.,.B c...y c.c.c.c.        c.c.a   @   c.c.          c.c.c.c.c.E *.E *.r.c.r.",
"c.c.a c.a c.*.c c.,.  O r c.c.E w c.r.<   o o   c.c.c.c.  ,.  o   *.c.*.K g G *.",
",.x G   o C c.E y c.c.i c.      o       o c.w o   c.c.,.  c.c.c.    c.c.w ,.C J ",
"E c.  c.*.        c.              #         o         c.c.      *.o *.c.r.0 ,.c.",
"E c.  c.C c.x c.    O           ,.B *.< *.c.@           c.*.c.c.o   c.s *.o y c.",
"c.y c.C 8.C     o U   c.  r...    o o o   o   g c.    c.  o ,.c.  8.Z c.g   c.y ",
"I c.s 8.  o     y + c.      O ..*.*.q 2 c.r.o     c.c.  c.    c.c.  ,.Z E   c.c.",
"c.y c.      *.*.  c.r.    E E c.c.o o     f c.c.c.  c.c.  c.o   c.  *.8.*.  E c.",
"....        *.  W c.  r.          o   @ o       *.x     *.        c.  ,.c.c.  c.",
"r.i     c.  _   c.      r.c.  O o   o         o   *.*.    c.      c.  c.,.r.  x ",
"    ,.  c.    y 8.    E c.    8.g c.c.; r.c.C o     H 8.    c.        c.c.K   c.",
"  c.  c.    c.c.    c.c.    c.c.*.c.Y ; r.r.x c.    c.W c.  c.  ..O   r.r.c.  x ",
"  _   E     ,.    c.E     E c.c.o   o @   r.c.c.c.    E c.o   *.      c.c.y o c.",
"E c.    c.  c.    c.c.    c.c.    B c.- p @ 0 E r.O   8.c.  c.        c.I c.  c.",
"c.      c.  c.  c.E c.    c.W   m c.r.> c.,.  5.,.    *.*.y       c.    K   c._ ",
"8.    E   c.    c.r.c.o   _ o ..  o       c.  w c.    y   *.      c.  o c.  r.c.",
"x o   *.  *.    c.,.c.o   C         o     o   c.c.  o c.  c.      r.    8.  x *.",
"Z o o r.  L X   c.*.T   o c.o o   *.r.6       q q O   p I         w @ o C o c.B ",
"B     c.o w o o o r.*.o   c.      r.r., o     r.c.o   p p ..o o o *.    w   r.r.",
"6   < = <   o     * * <   @ o ;   o <   o <   =   o - , , < o   O - o o   < 2 - ",
"q o B r.r.    c.  c.r.r.  g     @     .           B p p p   C     Z       T c.T ",
"c.  o r.w ..  c.o o T c.  c.i   O       o o   o   g o c.r.o s   o c.  o o *.  T ",
"w     r.c.c.o c.,.  o c.s   Z g u o   o   o   w r.c.  y *.    o   x       *.o g ",
"E c.o c.c.C Z o *.    o *.o   c.c.r.r.- r.c.q r.*.x   *.  *.  B o c.      c.  c.",
"*.s   c.c.c.c.o c.  8.    c.    r.Y r.4 r.r.c.Z c.  ..        c.  c.  o c.    _ ",
"B O     c.r.r...  c.  E E   + y o   r.> r.*._ _     O       c.,.  c.    c.  c.c.",
"*.        r.E c.    c.  ..c.i     o o   o *.*.o   O   c.c.  c.  c.          c.U ",
"..  y     c.r ..c.    8.  r.c.c.c.C           o   y c.c.E     c.c.    ,.c.c.c.c.",
"r.  c.      ..a E E     c.    c.8.w w : r.8 ..c.c.c.c.E   c.  U c.  + U c.c.,.c.",
"c.  U r.  +   *.y *.c.  c.c.c.        & T q r.c.E c.E   c.  x c.c.    c.o c.c.c.",
"i   c.c.    x   .._ E c.    _ 8.c.t r.o     o     c.      *._ c.      c.  E c.c.",
"c.  c.E c.    *.    c.y c.        w g < B 8.C C c.        E c.c.O   c.*.o E c.c.",
"c.,.  _ c.*.    o _     *.s     r.o       # o *.*.    *.c...c.    c.*.8.  y c.r.",
"r.I C o   8.  c.c.    x     c.c.o   m 5 P w C     ..c.c.*.c.    c.0 P   o *.8.c.",
"E c.*.*.c.C P   P r.c.  c...      w   % Z C *.*.c.c.,.c.i       C 8.Z   s y c.i ",
"c.*.E c.C L g o   c.8...    O   w o O . o     8.c.c.    O     c.c.w o C c.c.s c.",
"i ,.g c.c.*.c.E     E c.*.y r.Y .     . o     o                   + *.*.c.g J *.",
"c.q r.0 r.c.*.y _     x E c.r.c.G C C 1 Z y   C c.U r.*.y c.*.*.*.x *.c.g L C U ",
"x c.0 c.g c.E c.C *.*.            c.r.% c.B Z             a *.s *.c.c.B K q c.c.",
"c...r.B c...E E *.*.*.y *.c.E c.,.9 c.3 q c.*.8.c.E *.*.*.B s *._ y c.,.Y c.I r."
};
