/* XPM */
static char *mechantleft1654445219[] = {
/* columns rows colors chars-per-pixel */
"40 40 114 2 ",
"   c #020102",
".  c #0C0502",
"X  c #030B03",
"o  c #0B0A02",
"O  c #060309",
"+  c #0A040E",
"@  c #180F00",
"#  c #021101",
"$  c #091200",
"%  c #00150A",
"&  c #080017",
"*  c #743C01",
"=  c #783B00",
"-  c #793A0F",
";  c #7B4B00",
":  c #777C68",
">  c #797E68",
",  c #7D7F72",
"<  c #777B7C",
"1  c #7C7E7B",
"2  c #8E3E03",
"3  c #883F0C",
"4  c #847C7D",
"5  c #897E7C",
"6  c #7C8075",
"7  c #7D827B",
"8  c #E3FF07",
"9  c #EAFF00",
"0  c #EEFF0B",
"q  c #FEF300",
"w  c #FCFF01",
"e  c #FDFD0B",
"r  c #8A8476",
"t  c #82837B",
"y  c #88817B",
"u  c #83897B",
"i  c #FCF66C",
"p  c #F6FC74",
"a  c #F3FD7C",
"s  c #7E7D83",
"d  c #7B7F89",
"f  c #0000EA",
"g  c #0408ED",
"h  c #0001F2",
"j  c #0302FD",
"k  c #0904FD",
"l  c #0708F8",
"z  c #0C0AFE",
"x  c #1700FF",
"c  c #0011F7",
"v  c #7D79E7",
"b  c #7272EE",
"n  c #7B7EEC",
"m  c #777FFF",
"M  c #7D7DFB",
"N  c #837E82",
"B  c #817988",
"V  c #8B7F89",
"C  c #857C97",
"Z  c #FF01F7",
"A  c #F30AF2",
"S  c #817AEC",
"D  c #857FFE",
"F  c #7E8286",
"G  c #7B8289",
"H  c #7D84EF",
"J  c #7183F3",
"K  c #7A83F5",
"L  c #7D88F4",
"P  c #7784FF",
"I  c #7D82FC",
"U  c #7A8AFF",
"Y  c #838283",
"T  c #888282",
"R  c #83818A",
"E  c #858394",
"W  c #FCFF82",
"Q  c #F7FF89",
"!  c #FFFF88",
"~  c #FFF696",
"^  c #C2C5BC",
"/  c #B3B8D8",
"(  c #BABED9",
")  c #8880EF",
"_  c #8083F4",
"`  c #8484FC",
"'  c #8A80FF",
"]  c #C0B9C9",
"[  c #C7C4CB",
"{  c #FCFFD6",
"}  c #F7FADF",
"|  c #ECEEED",
" . c #E5F6E6",
".. c #ECF7E6",
"X. c #EDFFEC",
"o. c #F3FBE4",
"O. c #FCFDE5",
"+. c #F7F4ED",
"@. c #F9F6EC",
"#. c #F3FDEC",
"$. c #FCFCED",
"%. c #F0EEF1",
"&. c #F8E9F0",
"*. c #F4EEFC",
"=. c #ECFCF4",
"-. c #EFFCFF",
";. c #F6F5F4",
":. c #FDF5F4",
">. c #F4FDF5",
",. c #FCFDF4",
"<. c #F6F5FC",
"1. c #FCF5FD",
"2. c #F5FDFB",
"3. c #FDFEFD",
/* pixels */
"3.2.>.3.3.3.3.3.3.3.3.3.3.3.3.3.$.2.1.v 3.1.X.3.3.>.3.,.3.2.2.:.3.3.3.3.3.1.3.>.",
"3.,.3.,.3.,.,.3.3.3.3.3.3.3.3.,...,.X   # 1.#.;.>.3.,.2.3.3.3.>.:.@.$.@.O.3.>.2.",
";.<.$.3.,.3.3.,.3.3.3.3.3.3.3.3.3.2.@ X X + ;.3.>.,.3.2.2.3.3.>.3.2.2.#.<.$.<.3.",
"2.$.3.,.,.3.3.3.3.3.3.3.3.3.3.,.*.X 1.. . X 3.<.3.2.2.1.,.2.2.,.1.3.2.2.>.3.@.1.",
"3.3.3.3.3.,.3.,.3.3.3.3.3.3.3.,.1.o % . $ X @.$.,.>.2.,.,.>.2.:.O.@.$.,.3.3.3.>.",
"3.3.,.3.,.3.,.3.3.3.3.3.3.3.3.,.3.1.Z A i ! 3.3.3.3.3.3.3.3.3.>.>.o.3.$.:.,.2.-.",
",.,.,.,.3.$.1.3.3.3.3.3.3.3.2.2.>.<.~ W p a &.#.3.3.,.3.3.3.3.,.3.-.,.3.:.3.3.2.",
"3.3.3.3.,.3.3.3.,.3.3.3.3.3.3.2.>.>. .W Q 3.,.3.3.>.3.3.,.3.3.3.$.O.>.2.2.2.3.3.",
"3.3.3.3.3.3.3.3.1.3.>.$.:.3.2.,.;.,.:.! W 3.,.>.3.,.3.3.,.3.3.,.,.2.2.3.,.3.>.3.",
"3.3.3.3.3.3.3.3.,.2.2.1.3.#.3.:.3.: s Y N R $.3.3.3.3.3.3.3.3.3.3.2.2.,.1.2.2.;.",
"3.3.<.3.3.3.3.3.3.3.3.1.=.3.3.1.3.F ^ , , 4 | 3.3.3.3.,.,.3.3.,.3.3.2.3.,.3.2.3.",
"3.<.3.3.3.3.3.,.1.#.>.@.2.;.3.,.1 F 6 u 7 7 3.$.3.,.3.3.3.3.3.3.,.3.3.3.3.,.3.3.",
"3.3.<.3.3.3.3.3.3.<.3.X 3.2.1 Y N 1 N d G s 3.3.3.3.,.3.3.,.3.3.3.3.3.3.3.3.3.2.",
"3.3.3.3.3.3.,.3.>.. o X ,.E t s Y t [ , t R ,.3.,.3.3.3.3.3.3.3.3.,.3.>.2.,.,.2.",
"3.3.3.3.3.3.2.o # o . O . 4 N G 3.Y s N N R 3.3.3.3.3.3.3.3.,.3.3.3.3.2.<.3.3.2.",
"3.3.3.3.3.3.3.,.>.3.:.0 X 9 5 >.3.s Y 1 1 t 2.>.,.3.,.3.3.,.3.3.2.3.3.2.=.,.3.3.",
"3.3.3.3.3.3.3.3.>.2.,.3.8 $.3.2.{ d ( t d 6 =.2.:.3.3.3.3.3.3.3.3.3.3.2.>.2.3.3.",
"3.3.2.3.,.,.,.,.1.1.$.$.&.1.$.3.1.d 4 e e y 3.:.$.,.3.3.3.2.,.,.,.3.$.,.:.:.>.,.",
"3.3.3.3.3.3.3.3.$.3.3.,.3.3.3.>.<.6 R w w N 3.;.2.2.;.3.3.2.3.3.2.,.2.3.,.2.,.2.",
"` I m I I ` M D H K I v D n m K S , ( 5 4 1 b I ` M K L L I ` ' K m K J P K ` D ",
"3.3.3.3.3.3.3.3.3.,.3.>.3.:.3.3.3.s r t N E O.X.3.,.:.1.:.:.>.,.3.$.3.2.;.3.3.,.",
"3.3.3.3.3.3.3.,.3.$.3.3.{ 3.3.,.1.t 7 s C > %.:.3.2.2.>.>.2.3.,.>.3.#.>.1.>.,.>.",
"3.3.3.3.3.3.3.,.3.1.3.3.3.,.3.<.,.G / 6 6 u 3.1.2.2.<.:.:.3.3.2.3.>.1.3.,.3.2.3.",
"3.2.3.3.3.3.3.3.O.3.,.>.3.$.1.,.,.4 V 1 G Y 3.2.,.>.3.3.3.3.,.,.,.:.,.#.2.>.3.3.",
"3.3.3.3.3.3.3.3.3.3.3.3.3.3.3.3.2.>.q 3 2 - 3.>.3.3.3.3.3.3.3.3.3.3.3.3.3.3.3.3.",
"3.3.3.3.3.3.3.3.3.3.3.3.3.3.3.3.<.>.e * = ; <.,.3.3.3.3.3.3.3.3.3.3.3.3.3.3.3.3.",
"3.3.3.3.3.3.3.3.3.3.3.3.3.3.3.3.3.>.h z k k 3.;.3.3.3.3.3.3.3.3.3.3.3.3.3.3.3.3.",
"3.3.3.3.3.3.3.3.3.3.3.3.3.3.3.3.1.,.h h j g 3.3.3.3.3.3.3.3.3.3.3.3.3.3.3.3.3.3.",
"3.3.3.3.3.3.3.3.3.3.3.3.3.3.3.3.,.3.3.z j 2.=.3.3.3.3.3.3.3.3.3.3.3.3.3.3.3.3.3.",
"3.3.3.3.3.3.3.3.3.3.3.3.3.3.3.3.@.3.1.f j O.3.,.3.3.3.3.3.3.3.3.3.3.3.3.3.3.3.3.",
"3.3.3.3.3.3.3.3.3.3.3.3.3.3.3.3.>.:.$.k l 3.:.3.3.3.3.3.3.3.3.3.3.3.3.3.3.3.3.3.",
"3.3.3.3.3.3.3.3.3.3.3.3.3.3.3.3.>.3.1.f j 3.2.3.3.3.3.3.3.3.3.3.3.3.3.3.3.3.3.3.",
"3.3.3.,.,.3.,.3.3.3.3.3.3.3.2.,.3.:.3.c j #.3.,.3.3.3.3.3.3.3.3.,.3.3.,.3.3.3.3.",
"3.,.3.,.3.$.3.3.1.3.3.3.3.3.3.,.3.3.2.j x 3.;.3.3.3.3.3.3.3.3.3.,.1.:.3.3.3.3.3.",
"3.3.,.3.,.3.,.3.3.3.3.3.3.3.3.,.    O #   } 3.,.3.3.3.1.3.3.3.3.3.,.3.,.3.3.3.3.",
"3.3.3.3.3.,.3.3.3.3.1.3.3.3.3.3.o   & X . ,.2.3.3.3.3.3.3.3.3.3.,.3.,.3.3.,.3.3.",
",.,.3.>.3.3.,.3.3.3.3.3.3.3.3.2.3.3.:.S 1.3.>.3.3.3.3.3.2.3.3.3.3.,.3.3.,.3.,.3.",
";.1.$.3.,.,.,.3.3.2.3.3.3.3.3.3.>.2.3.` O.<.3.2.3.3.3.3.3.3.3.2.3.3.3.,.2.@.3.3.",
"3.,.3.,.3.2.,.3.3.3.3.3.3.3.3.3.3.,.3.P 3.,.>.3.3.3.3.3.3.3.3.3.3.3.3.3.,.1.>.3.",
"2.3.,.3.3.,.3.3.3.3.3.3.3.3.3.3.,.3.:.U 2.:.$.3.3.3.3.3.3.3.3.3.>.3.3.,.3.,.3.3."
};
