/* XPM */
static char *mechantfront1654445220[] = {
/* columns rows colors chars-per-pixel */
"40 40 100 2 ",
"   c #010201",
".  c #090100",
"X  c #030B02",
"o  c #01010B",
"O  c #0C010C",
"+  c #120100",
"@  c #040212",
"#  c #733E00",
"$  c #7D3F02",
"%  c #7B4109",
"&  c #777777",
"*  c #767873",
"=  c #7C7C73",
"-  c #747B7A",
";  c #7D7D7B",
":  c #853E02",
">  c #824409",
",  c #EC0A6E",
"<  c #FA0077",
"1  c #817E6D",
"2  c #817E7D",
"3  c #7E816A",
"4  c #7C8274",
"5  c #7B837B",
"6  c #FCFF01",
"7  c #FFFF11",
"8  c #81836D",
"9  c #828175",
"0  c #82817D",
"q  c #89807E",
"w  c #8C8D7D",
"e  c #FDFE64",
"r  c #F3FF6D",
"t  c #F5FF74",
"y  c #FBFF75",
"u  c #F3FD78",
"i  c #FBFE7B",
"p  c #7B7786",
"a  c #7C7D82",
"s  c #7F7B8B",
"d  c #3300E1",
"f  c #3A05EC",
"g  c #3300F4",
"h  c #3C02F4",
"j  c #3503FE",
"k  c #3D01FD",
"l  c #3C09FC",
"z  c #4003F7",
"x  c #4303FE",
"c  c #4903FF",
"v  c #797CEF",
"b  c #7F76F7",
"n  c #797EF3",
"m  c #7479FB",
"M  c #7B7CFE",
"N  c #FF0099",
"B  c #827E83",
"V  c #887D85",
"C  c #827D8A",
"Z  c #837F90",
"A  c #807AE8",
"S  c #807FF6",
"D  c #847EFA",
"F  c #897AFF",
"G  c #7D8283",
"H  c #7383F4",
"J  c #7D84F6",
"K  c #7C88F6",
"L  c #7D81FD",
"P  c #838382",
"I  c #84838A",
"U  c #8A858B",
"Y  c #848889",
"T  c #F7FF85",
"R  c #FDFE83",
"E  c #FFFD8E",
"W  c #FDF797",
"Q  c #FDFD90",
"!  c #8182F4",
"~  c #8384FC",
"^  c #8A81F8",
"/  c #EEFBEA",
"(  c #F0F2E5",
")  c #F5FEE5",
"_  c #FAFEE4",
"`  c #F4F6EE",
"'  c #F9F6EA",
"]  c #F4FEEE",
"[  c #FBFDED",
"{  c #FDEEFF",
"}  c #EEFEF1",
"|  c #EEFFFF",
" . c #F4F6F4",
".. c #FCF6F6",
"X. c #F5FDF4",
"o. c #FCFDF4",
"O. c #F6F6FD",
"+. c #FCF6FE",
"@. c #F5FCFC",
"#. c #FDFDFD",
/* pixels */
"#.o.#.X.#.o.#.#.#.#.#.#.o.#.#.#.#.] O.D ] #.#.o.#.#.#.#.#.#.#.#.#.#.o.#.o.#.o.#.",
"#.#.] #.o.#.#.o.#.#.#.#. .o.#.o.#.  O     X ` @.#.#.#.#.#.#.#.#.#.#.#.o.#.[ #.#.",
"#.[ O.o.#.#.#.+.@.#.@.@.#.#.@.#.        O o X #.#.#.#.#.#.#.#.#.#.o.#.#.o.O.] #.",
"o.O.o.#.#.#.#.o.@. .#.@.@.X.@.    O ..+ +.+ o   #.#.#.#.#.#.#.#.#.#.o.#.#.[ O.#.",
"#.#.#.#.o.#.o.#.#...#.o.#.+.#.    o     o X   . #.#.#.#.#.#.#.#.#.o.#.#.#.#.#.#.",
"#.#.#.#.#.[ #.#...#.#.#.#.#.#.#.R i i Q u i T o.#.#.#.#.#.#.#.#.#.#.[ #.o.#.#.#.",
"#.#.o.+.o.+.o.#.#.o.#.#...o.#...#.e , < N E  .X.#.#.#.#.#.#.#.#.#.o.#.o.#.#.#.#.",
"#.#.#.o.#.o.#.o.#.#.#.@.@.o.#.#.@.#.R Q t o.#.#.#.#.#.#.#.#.#.#.#.#.o.#.o.#.#.#.",
"o.#.[ #.@.#._ #.#.#.o.#.o.#.#.#.#.#.+.r #.#.o.#.#.#.o.o.@.@.@.o.#.#.#.#.#.#.#.#.",
"@.#.#.o.+.#.@.#.@.o.#.O.o.] [ #.; 0 V = ; p P o.#.#.#.#.#.X.@.#.#.#.#.#.#.#.#.#.",
"o.O.o.O.@.#.. #.o.o.#.#.@.O.#.5 P & P +.U G a a #.#.+.#.#.@.#.#.#.#.#.#.#.#.#.#.",
"X.#.o.o         o.#.#.@.o.#.; q a U ; 8 a 4 ; I 5 #.#.#.#.#. .#.#.#.#.#.#.#.#.#.",
"o.( [ #.' o.o   R B 2 * P 4 2 V @.4 2 0 0 P #.a ; G +.O.#.@.#.#.#.#.#.#.#.#.#.#.",
"{ #.@. .@.#.u   t V 2 w C C 2 #.@.0 I +.G = [ #.P P 2 #.o.@.#.#.#.#.#.#.#.#.#.#.",
"@.#.O.[ [ #.X.X.#.X.#. .[ o.#.#.@.P ; P s 3 #.#.#.= 5 o.@. .@.#.#.#.#.#.#.#.#.#.",
"#.] #.O.X.@._ ] ) o.O.#.#.#._ @.o.I 8 2 I ; #._ #.P 0 o.#.#.#.#.#.#.#.#.#.#.#.#.",
"#.o.#.X.X.o.X.o.o.o.o.o.#.#.#.#.#.5 5 O.5 G  .@.@.C 0 @.[ +.#.o.#.#.@.#.@.#.#.#.",
"o.[ o.[ ] ] o.] X.] ] ] X.o.o.X.o.Z B 2 q a o.[ o.; 3 #.X.#.#.@.#.#.#.#.#.#.#.#.",
"#.X.X.X.X.X. .X.@.X.] X.X.#.#.#.[ G a 4 - U  .o.#.W Q ..@.X.o.o.#.#.#.#.#.#.#.#.",
"! ~ ~ ! ! K J J ! ! ! ! M D D D ! 5 G #.1 C b D m y y A M K J ^ ~ L L L L L L ~ ",
"o.o.o.o.o.o.o.o.o.o.] o.#.#.o.#.+.B p 9 ; 2 #.#.#.#.#.#.X.@.#.@.#.#.#.#.#.#.#.#.",
"#.o.X.] ] X.] X.X.] ] / X.X.X.X.@.9 U V q ; @.] @...' #.@.#.#.#.#.#.#.#.#.#.#.#.",
"#.@.#.X.X.X.o.X.#.o.o.o.@.#.#.#.#.G - @.5 G @.o.@.+.+.o.#.o.[ +.#.#.#.#.#.#.#.#.",
"#.#.o.o.X.[ ] ] X.] ] X.X.o.#.#.o.B P C 2 P #.#.o.#.X.o.X.o.o.@.#.#.#.@.#.#.#.#.",
"o.o.o.X.X.X.] ] ) @.o.#.#.@.#.#.@.: $ 6 : $ #.o.#.#.#.#.o.#.o.#.#.#.#.#.#.#.#.#.",
"#.#.o.#.#.X.o.X. ._ #.[ o.O.#.' #.> % 7 : # o.+.#.#.#.#.#.o.#.#.#.#.#.#.#.#.#.#.",
"#.#.#.#.@.#.@.@.#.#.#...#.] #.+.l h x x k c f @.#.#.[ #.#.o.#.o.#.#.#.#.#.#.#.#.",
"#.@.@.#.#.@.#.#.#.@...#.#.#.+.h k x #.F [ j h c #.#.#.o.O.#.o.#.#.#.#.#.#.#.#.#.",
"o.+.o.#.#.#.@.o.+.#.#._ @.#.f z h o.) D @.X.h c j #.o.#.#.#.#.#.#.#.#.#.#.#.#.#.",
"o.X.#.o.o.o.#.#.o.O.#.` #.o.g c @.o.| H #.o.| x h #.#.o.[ #.o.#.#.#.#.#.#.#.#.#.",
"#.@.#.#.#.o.#.#. .[ #.o.#...x k O...#.F +.#.#.g k o.@.#.#.#.+.#.#.#.#.#.#.#.#.#.",
"O.#.#.#.#.o.#.#.o.#.o.#.#.[ h k [ #.o.~ X.#...l x #.#.@.#.+.#.o.#.#.#.#.#.#.#.#.",
"#.#.#.#.#.o.#.o.#.#.#.#.o...x x @.#.#.J #.#...k g #.#.#.#.#.#.o.#.#.o.#.#.#.#.#.",
"@.#.o.#.o.#...#.#.#. .o.#.#.d k  .#.#.~ o.o.#.j j +.o.#.#.#.#.#.#.[ +.[ #.o.#.#.",
"#.#.#.#.#.[ +.#.#.o.#.  o     . #.#.#.n o.@.o.      @   #.o.#.+.#.#.[ #.#.#.#.#.",
"#.#.#.#.o.#.o.#.#.o.#.  @ o     ] #.#.J o...#.      o   #.o.#.o.#.o.#.#.#.#.#.#.",
"o.O.[ #.#.#.#.o. .o.o.#.#.#.#.@.@.#.#.M @.@.#.#.#.#.@.#.O. .#.#.o.#.#.#.#.[ O.o.",
"#.[ O.X.#.#.#.o.#.#.o.o.o.#.@.X.o.#.#.! o.` +.#.#.@.o.o. .#.o.o.#.#.#.#.o.O.[ #.",
"#.#.o.#.o.#.#.#.[ o.#.#.o.[ #.#.@.#.#.n #.#.o.#.#.o.#.#.#.` #.#.o.#.#.o.#. .#.#.",
"#.o.+.X.#.#.#.o.#.o.#.[ #.#.[ #.#._ #.~ [ #.#.#.#.#.#.o.+.#._ #.#.#.o.#.o.#.o.@."
};
