/* XPM */
static char *mechantright1654445220[] = {
/* columns rows colors chars-per-pixel */
"40 40 101 2 ",
"   c #020202",
".  c #0B0305",
"X  c #000A04",
"o  c #01040B",
"O  c #0C010C",
"+  c #01080E",
"@  c #080C0B",
"#  c #001000",
"$  c #040413",
"%  c #0A0412",
"&  c #753900",
"*  c #7D3D0D",
"=  c #767C6E",
"-  c #7A7D68",
";  c #7E7B76",
":  c #7C7C7D",
">  c #843D09",
",  c #824400",
"<  c #83400C",
"1  c #837F7D",
"2  c #7E826D",
"3  c #778375",
"4  c #7D8170",
"5  c #728873",
"6  c #7D827C",
"7  c #E6FF00",
"8  c #F3FF00",
"9  c #FDFF01",
"0  c #F6FF0F",
"q  c #FCFF0B",
"w  c #86816D",
"e  c #848474",
"r  c #83817C",
"t  c #FDFF6B",
"y  c #FFFB77",
"u  c #7B7785",
"i  c #7E7D83",
"p  c #0000E6",
"a  c #0003F5",
"s  c #0A02F6",
"d  c #0203FC",
"f  c #0D02FE",
"g  c #0009FB",
"h  c #1100FF",
"j  c #767BE3",
"k  c #797DEB",
"l  c #7B77F2",
"z  c #7C7CF4",
"x  c #7D7AFF",
"c  c #817E83",
"v  c #827F8C",
"b  c #8C7D8D",
"n  c #837F90",
"m  c #847F9F",
"M  c #F600EB",
"N  c #FC0CFF",
"B  c #8574FF",
"V  c #807FFE",
"C  c #7E8283",
"Z  c #7D808F",
"A  c #7B83E8",
"S  c #7C82F6",
"D  c #7D81FC",
"F  c #848385",
"G  c #8B8584",
"H  c #818881",
"J  c #85818B",
"K  c #828888",
"L  c #898392",
"P  c #BEBCB0",
"I  c #BDB3BE",
"U  c #F5FF81",
"Y  c #FAFD83",
"T  c #F5FF8F",
"R  c #FFFB8D",
"E  c #FFFE99",
"W  c #C1C1BF",
"Q  c #BAB9CB",
"!  c #8088F5",
"~  c #8082FC",
"^  c #BFCDD6",
"/  c #F9E9E9",
"(  c #EEFEE6",
")  c #EDFFE8",
"_  c #F7FCE6",
"`  c #F9FDE6",
"'  c #F4F7EE",
"]  c #FCF6ED",
"[  c #F6FEEC",
"{  c #FBFDED",
"}  c #FFEFFD",
"|  c #EDFEF7",
" . c #EAF1FB",
".. c #EBFFFE",
"X. c #F7F6F6",
"o. c #F5FFF3",
"O. c #FCFDF5",
"+. c #F6F6FE",
"@. c #FDF5FD",
"#. c #F5FDFC",
"$. c #FDFDFE",
/* pixels */
"$.#.$.o.$.$.@.$.O.$.O.O.$.X.$.$.O.#.O.B @.{ O.$.$.$.$.$.$.$.$.$.$.O.$.$.O.$.O.$.",
"#.$.[ $.#.$.#.O.$.$.$.$.$.$.#.$.#.@.  @ o @.` | $.$.$.$.$.$.$.$.$.$.$.O.$.{ @.#.",
"@.' $.[ $.$.O.O.O.$.#.$.$.#.#.$.@.. o X o $.@.$.$.$.$.$.$.$.$.$.$.O.$.$.{ +.] $.",
"O.$.{ $.#.X.$.O.#.$.$.#.#.$.#.#.$.X     O.o +.[ $.$.$.$.$.$.$.$.$.$.O.$.$.o.$.#.",
"#.O.$.$.O.@.{ #.$.$.$.$.#.$.#.$.$.%   + $ . #.O.$.$.$.$.$.$.$.$.$.O.$.O.$.$.O.$.",
"O.$.$.O.$.` $.O.$.@.$.$.$.$.$.$.$.Y y M N @.$.' $.$.$.$.$.$.$.$.O.@.{ $.O.$.$.$.",
"#.$.$.$.{ X.{ $.$.$.$.$.$.$.$.$.o.t y E R +.$.#.$.$.$.$.$.$.$.$.$.O.@.{ $.$.$.$.",
"O.$.@.$.$.{ $.@.$.$.@.@.@.$.$.@.$.@.T R _ O.+.o.$.$.$.$.$.$.$.$.$.$.$.$.O.$.$.$.",
"$.$.$.#.$.$.@.$.@.@.$.$.$.$.@.$.$.@.U y O.$.[ $.$.| } #.$.$.X.@.$.$.$.$.$.$.$.$.",
"#.O.$.$.$.$.$.$.$.$.$.@.@.$.$.$.O.c i i F i $.+.O.O.$.O.] O.$.$.$.$.$.$.$.$.$.$.",
"$.O.$.$.$.@.$.@.$.@.$.$.$.$.@.$.$.4 F r P J ; $.@.@.$.$.$.@.[ { $.$.$.$.$.$.$.$.",
"$.$.#.$.$.$.$.$.$.$.$.@.@.$.$.$.$.H c - 1 v 2 i { $.O.+.o.$.$.$.$.$.$.$.$.$.$.$.",
"$.$.$.#.$.$.$.$.@.$.@.$.$.@.$.@.X.F u L i C C C u O.o [ $. .$.@.$.$.$.$.$.$.$.$.",
"$.O.O.$.$.$.@.$.$.$.$.$.$.$.$.$.$.1 e r W 6 $.C C :   + $.#.$.{ $.$.$.$.$.$.$.$.",
"$.$.$.$.$.$.$.$.@.@.$.$.$.$.@.@.$.J i i v r $.$.3 O   O +     $.$.$.$.$.$.$.$.$.",
"O.#.#.$.$.@.$.@.$.$.$.@.@.$.$.$.+.C i F ; 1 $.O.O.0 X 8 #.$.[ $.$.$.$.$.$.$.$.$.",
"#.O.#.#.$.@.$.$.@.$.$.$.$.$.#.o.#.C w i ^ 5 [ $.$.X.7 @.O.#.$.[ $.$.$.$.#.$.$.$.",
"O.O.O.X.O.$.$.@.$.$.@.@.$.$.O.O.O.n 8 q ; e } @.$.@./ O.O.$.$.O.$.$.$.O.$.$.$.$.",
"$.$.#.$.$.@.$.$.$.$.$.$.@.$.@.$.#.: 8 8 b 1 @.[ #.$.$.@.$.$.O.O.$.$.$.$.$.$.$.$.",
"D D z D D D ~ D ~ D D x D D ~ ~ j = G L Q Z A x S A ~ k D D ~ x ~ D D D D D D ~ ",
"$.$.#.$.$.$.$.$.$.$.$.$.$.$.$.$.o.G : ; e G | $.$.{ @.` $.O.$.@.$.$.$.$.$.$.$.$.",
"$.$.O.O.O.#.O.O.O.O.#.X.X.O.X.$.@.F : m 3 2 $.{ $.O.{ { $.[ O.{ $.$.$.$.$.$.$.$.",
"$.$.#.$.$.#.$.$.$.$.$.$.$.$.$.$.$.6 6 K Q c $.$.$.O.$.$.@.$.$.$.$.$.$.$.$.$.$.$.",
"$.#.O.O.O.#.O.$.$.O.$.O.#.O.O.$.#.w C 3 b 1 #.@.$.$.#.#.$.$.O.$.O.$.$.$.#.$.$.$.",
"$.$.$.$.$.$.$.$.$.$.$.$.$.$.$.$.#.* , > 9 ..$.@.$.$.$.$.$.$.$.$.$.$.$.$.$.$.$.$.",
"$.$.$.$.$.$.$.$.$.$.$.$.$.$.$.$.X., & > 9 #.#.O.$.$.$.$.$.$.$.$.$.$.$.$.$.$.$.$.",
"$.$.$.$.$.$.$.$.$.$.$.$.$.$.$.$.$.g f d d #.$.#.$.$.$.$.$.$.$.$.$.$.$.$.$.$.$.$.",
"$.$.$.$.$.$.$.$.$.$.$.$.$.$.$.$.O.g a a a O.@.$.$.$.$.$.$.$.$.$.$.$.$.$.$.$.$.$.",
"$.$.$.$.$.$.$.$.$.$.$.$.$.$.$.$.#.$.g f $.#.$.) $.$.$.$.$.$.$.$.$.$.$.$.$.$.$.$.",
"$.$.$.$.$.$.$.$.$.$.$.$.$.$.$.$.$.] g p @.$.] @.$.$.$.$.$.$.$.$.$.$.$.$.$.$.$.$.",
"$.$.$.$.$.$.$.$.$.$.$.$.$.$.$.$.( $.h f o.[ $.O.$.$.$.$.$.$.$.$.$.$.$.$.$.$.$.$.",
"$.$.$.$.$.$.$.$.$.$.$.$.$.$.$.$.+.O.g d @.{ o.$.$.$.$.$.$.$.$.$.$.$.$.$.$.$.$.$.",
"$.$.$.O.$.O.$.O.$.$.$.$.$.$.$.$.$.) s g $.O.$.[ $.$.$.$.$.$.$.$.$.$.O.$.O.$.$.$.",
"$.$.#.@.O.@.{ $.$.$.$.@.$.$.$.$.X.$.f d $.@.$.$.$.$.$.$.$.$.$.$.O.O.@.] @.O.$.#.",
"$.$.$.O.$.{ $.$.$.$.$.$.$.$.$.$.{ _   X       { $.$.$.$.$.$.$.$.O.$.{ $.$.$.$.$.",
"$.$.$.$.O.$.O.$.$.$.$.$.$.$.$.$.$.{ . X   o   @.$.$.$.@.$.$.$.$.$.O.$.$.$.$.#.$.",
"O.$.] $.$.$.@.O.$.#.$.$.$.#.$.#.#.$.X.l $.+.$.O.$.$.$.#.$.#.#.$.O.$.O.$.$.{ $.O.",
"$.' +.o.$.$.O.$.$.$.#.$.$.$.$.$.$.X.{ ~ $.#.O.+.#.$.$.$.$.$.$.$.$.$.$.$.O.+.{ #.",
"$.$.[ $.O.$.$.O.$.$.$.$.$.$.$.$.$.O.#.! X.$.$.$.$.$.$.$.$.$.$.$.O.O.@.O.$.O.$.$.",
"$.O.$.o.#.O.$.$.$.$.$.$.$.$.$.$.{ $.$.D $.$.O.$.$.$.$.$.$.$.$.$.$.$.$.#.O.#.o.@."
};
