/* XPM */
static char *mechantback1654445220[] = {
/* columns rows colors chars-per-pixel */
"40 40 115 2 ",
"   c #010103",
".  c #090203",
"X  c #03010C",
"o  c #0D040B",
"O  c #020112",
"+  c #090414",
"@  c #03001D",
"#  c #0D0019",
"$  c #000421",
"%  c #6E3C00",
"&  c #7D3D00",
"*  c #7D4100",
"=  c #7B440B",
"-  c #797C6D",
";  c #767676",
":  c #7A7B76",
">  c #7D7E7C",
",  c #813A02",
"<  c #834400",
"1  c #86430A",
"2  c #884609",
"3  c #837D7C",
"4  c #768572",
"5  c #7D8176",
"6  c #77827C",
"7  c #7C837A",
"8  c #FFF703",
"9  c #F5FF03",
"0  c #FCFE02",
"q  c #FFF60A",
"w  c #F8FF0A",
"e  c #82846D",
"r  c #828276",
"t  c #878C76",
"y  c #84837C",
"u  c #86897E",
"i  c #F5FF6A",
"p  c #FBFF6D",
"a  c #F5F770",
"s  c #F3FF72",
"d  c #FCFE7B",
"f  c #777F82",
"g  c #7D7D83",
"h  c #7D7C89",
"j  c #3C02EF",
"k  c #2E07F8",
"l  c #3403F4",
"z  c #3902F4",
"x  c #370BF4",
"c  c #3403FE",
"v  c #3C03FE",
"b  c #4104F6",
"n  c #4708F5",
"m  c #4303FB",
"M  c #4900FE",
"N  c #4009F8",
"B  c #7478E3",
"V  c #787DE5",
"C  c #7C7EEF",
"Z  c #777EFF",
"A  c #7B7DFC",
"S  c #847E85",
"D  c #817E8C",
"F  c #8B7894",
"G  c #8A79EC",
"H  c #836DFC",
"J  c #8C7EF0",
"K  c #8773FC",
"L  c #817CFC",
"P  c #7E8284",
"I  c #7D8882",
"U  c #7C8789",
"Y  c #7383EA",
"T  c #7E82ED",
"R  c #7C81F3",
"E  c #7381FC",
"W  c #7D81FC",
"Q  c #828283",
"!  c #8A8184",
"~  c #83838B",
"^  c #F7FB83",
"/  c #FDFE84",
"(  c #FFFF88",
")  c #F7FA9F",
"_  c #8088F5",
"`  c #8586FF",
"'  c #848BFF",
"]  c #E6FEDC",
"[  c #FCF5DD",
"{  c #FCFCDD",
"}  c #EFEFED",
"|  c #EEF3E9",
" . c #EDF9ED",
".. c #F5FBE4",
"X. c #FDFDE5",
"o. c #F4F5EC",
"O. c #FEF5EC",
"+. c #F5FBEC",
"@. c #FDFEEC",
"#. c #F1EEF5",
"$. c #F1EEFF",
"%. c #FEEDFE",
"&. c #EAF6F6",
"*. c #ECFDF4",
"=. c #EFF7FA",
"-. c #E7FFFF",
";. c #EDFFFD",
":. c #F5F5F4",
">. c #FCF6F4",
",. c #F5FCF4",
"<. c #FCFDF4",
"1. c #F6F6FD",
"2. c #FCF5FD",
"3. c #F5FCFC",
"4. c #FDFDFD",
/* pixels */
"4.4.,.4.4.<.4.4.4.4.,.<.4.<.,.4.4.4.<.G ,.,.3.4.4.4.<.<.4.<.4.4.,.4.4.4.4.<.4.4.",
"4.+.4.<.4.4.4.4.4.4.4.4.4.4.4.4...X   O X + <.4.4.<.4.,.4.4.<.4.4.4.4.4.<.4.<.4.",
",.1.@.4.<.<.4.4.4.4.4.4.4.4.4.4.O X @   O   X 1.4.4.3.3.4.3.4.4.4.4.4.>.1.+.4.4.",
"1.@.4.<.4.4.<.4.4.4.4.4.4.4.4.4.X   X O     @ 3.4.3.4.4.3.4.4.,.4.<.4.4.<.4.>.4.",
"<.4.<.4.4.<.4.4.4.4.3.,.4.4.4.4.X X o X + . X 4.4.4.4.4.4.4.4.4.<.4.<.4.4.<.4.4.",
"4.4.4.4.<.4.<.4.4.4.4.3.4.4.4.3.d ( a / ( p / 4.4.4.1.4.4.2.<.4.4.@.4.<.4.4.4.4.",
"4.4.4.@.4.<.4.4.4.4.4.3.<.4.>.4.2.d ( d / ^ 4.@.4.<.4.<.4.4.<.4.>.4.<.4.4.4.4.4.",
"<.4.4.4.<.4.<.4.4.4.,.<.4.<.<.4.4.4.i ) d >.1.,.4.4.<.<.4.<.4.4.4.4.4.<.4.4.4.4.",
"4.4.4.4.4.4.4.4.4.,.4.4.:.,.4.2.3.2.1.s 2.<.2.4.4.3.4.4.O...4.*.%.;.*.1.2.3.<.4.",
"4.4.4.4.4.4.4.4.:.4.3.>.4.3.:.4.7 y 7 e y h S ..<.4.&.1.1.X.4.1.;.1.<.4.@.@.3.O.",
"4.4.4.4.4.4.4.4.4.3.4.o.1.,.4.S 7 3 > h S ~ 3 Q 1.@.4.4.3.o.3.  :.4.&.%.3.4.2.4.",
"4.4.4.4.4.4.4.4.1.:.4.4.4.<.7 S > ~ S r ~ - > h ~ >.:.>.,.4.X # O X o @ O.3.4.4.",
"4.4.4.4.4.4.4.4.,.4.4.4.4.> S 7 4.P g g > > 4.> 7 P D U P : 9 8 9 o...3.{ 3.4.>.",
"4.4.4.4.4.4.4.4.*.4.,.4.P > Q ,.o.I S Q y Q 4.<.D 7 r 6 ! y w 9 8 4.-.3.3.4.| 4.",
"4.4.4.4.4.4.4.4.3. .4.1.U 3 | 4.4.f > t > > 4.4.4.2.@.1.2.<.<.<.4.X.+.[ 4.<.;.2.",
"4.4.4.4.4.4.4.4.*.:.>.4.: Q 4.,.4.I 3 > P S 3.4.>.4.*.+.@.@.@.@...<.<.4.@.4.<.4.",
"3.4.4.4.4.4.4.4.4.-.@.4.7 F ,.4.4.> g Q y 7 4.3.3.<.<.<.@.@.<.<.@.<.@.<.4.@.4.4.",
"4.4.4.4.4.<.4.4.O.3.[ 2.4 r ,.+.+.Q h - Q P 1.@.>.<.<.@.@.@.@.<.@.X.<.X.@.<.@.4.",
"4.4.4.4.4.4.4.4.4.3.4.<.w q ,.4.<.Q y ~ - Q 4.+.4.,.<.<.<.@.@.<.@.@.<.@.<.4.<.4.",
"W W W W W W W W Z Y L V 9 0 E L K Q ; D y P G K A A R R _ R R R C C _ _ T R W R ",
"4.4.4.4.4.4.4.4.4.>.4.4.:.3.o.<.,.~ y Q : Q 3.4.,.@.@.@.@.@.@.@.@.@.<.@.<.<.<.4.",
"4.4.4.4.4.4.4.4.4.4.+.+.4.3.@.<.<.5 g g : u 4.@.4.4.4.<.@.@.<.<.@.<.X.<.<.@.4.4.",
"4.4.4.4.4.4.4.4.4.3.4.:.2.2.<.o.4.h S ~ r 7 :.+.<.<.<.@.@.@.<.<.@.4.@.>.<.@.1.>.",
"4.4.4.4.,.4.4.3.X.3.,.4.*.<.4.-.+.> 7 Q S P 4.4.4.,.<.<.@.@.@.@.@.X.<.@.@.4.<.4.",
"4.4.4.4.4.4.4.4.4.4.<.@.4.4.o.@.2.1 & = 2 & 4.3.4.4.4...@.<.@.@.@.@.<.<.3.,.4.4.",
"4.4.4.4.4.4.4.4.4.+.4.4.X.4.4.1.<.% < * , 2 4...:.4.+.1.4.+.4.<.,.,.<.4.3.4.4.>.",
"4.4.4.4.4.4.4.4.4.@.1.<.+.<.4.>.x M M N m M c 2.:.<.o.3.<.4.<.<.3.4.<.,.4.1.4.@.",
"4.4.4.4.4.4.4.4.4.4.2.<.4.@.>.v z N @.H 4.n v b <.1.4.o.4.:.4.4.3.,.,.,.3.3.<.@.",
"4.4.4.4.4.4.4.4.4.@.4.4.<.>.v v v +.2.` ] { j M k 4.3.<.X.4.1.<.,.<.4.<.3.3.3.4.",
"4.4.4.4.4.4.4.4.X.4.1.o.4.4.z b 4.*.4.V 3.,.4.v c 4.4.1.4.+.1.4.@.<.4.4.,.,.3.4.",
"4.4.4.4.4.4.4.4.2.<.4.<.3.@.v m <.3.>.K @.%.<.c v @.4.,.<.<.<.,.4.,.<.,.4.3.4.4.",
"4.4.4.4.4.4.4.4.4.4.<.4.4.o.v m <.4.<.W <.3.X.b j 2.>.4.+.1.4.<.4.,.<.<.4.4.4.<.",
"4.4.4.4.4.4.4.4.4.1.4.4.<.>.c N >.<.4.C 4.4.+.v N O.<.4.4.<.4.4.4.<.4.4.4.4.4.4.",
"4.4.4.@.4.<.4.<.>.4.<.4.>.4.l c 4.4.4.` <.4.4.v l 4.<.@.| 4.@.4.>.4.@.4.<.4.4.4.",
"4.4.4.4.@.4.<.4.<.4.4.  @ X . . @.:.<.A <.4.4.. . . o   4.4.4.>.4.<.4.<.4.4.4.4.",
"<.4.<.4.4.<.4.<.4.4.<.  X X     4.4.<.C <.4.+.    X O X 4.4.,.4.<.4.<.4.4.4.4.4.",
"4.@.4.<.4.4.>.4.o.<.<.4.+.4.4.3.<.=.4.A 4.4.3.4.4.,.+.<.>.4.>.+.4.<.4.,.<.4.<.4.",
",.1.@.4.<.,.4.4.4.:.<.4.4.3.,.4.$.,.@.` 4...+.4.4.4.4.4.:.<.4.<.4.4.4.<.2.+.4.4.",
"4.,.4.<.4.<.4.4.4.+.<.4...O.4.<.<.4.4.B 4.4.,.4.4.X.o.<.4.+.X.2.4.4.4.4.<.4.<.4.",
"4.4.,.4.4.<.4.4.<.<.1.<.4.4.@.4.4.@.X.' 4...1.4.4.>.4.X.1.<.4.4.<.4.4.4.4.<.4.4."
};
