/* XPM */
static char *_e830e6e90304e1eb5e325e2b70e8546LE0dkHtarv7wCeEp[] = {
/* columns rows colors chars-per-pixel */
"40 40 161 2 ",
"   c #020102",
".  c #090001",
"X  c #040800",
"o  c #03010B",
"O  c #09010C",
"+  c #0C0011",
"@  c #7C7C01",
"#  c #797C15",
"$  c #7E7D2D",
"%  c #7F7F37",
"&  c #7D7C3A",
"*  c #787B44",
"=  c #7D7E49",
"-  c #807D00",
";  c #807D08",
":  c #817E3B",
">  c #FD7B3F",
",  c #817E4B",
"<  c #FF7E43",
"1  c #FA7D4C",
"2  c #7F8100",
"3  c #7C843B",
"4  c #7E8A40",
"5  c #838401",
"6  c #8B8004",
"7  c #918000",
"8  c #83823D",
"9  c #FF8037",
"0  c #FD813E",
"q  c #F4FE00",
"w  c #FEFE01",
"e  c #F7FF09",
"r  c #FEFE0A",
"t  c #808044",
"y  c #8A8646",
"u  c #878248",
"i  c #FE8244",
"p  c #FE844A",
"a  c #FF8250",
"s  c #FBFE6C",
"d  c #F3FE73",
"f  c #FDFD76",
"g  c #F7FF7D",
"h  c #FDFE7C",
"j  c #847AEF",
"k  c #8576F5",
"l  c #867AF6",
"z  c #8B79F5",
"x  c #8775FD",
"c  c #8875FF",
"v  c #8B7AFE",
"b  c #F7FF80",
"n  c #FEFE83",
"m  c #FDF68B",
"M  c #FFFD8A",
"N  c #FEFF93",
"B  c #F7FAED",
"V  c #FDFEEE",
"C  c #F7F7F4",
"Z  c #F6FCF3",
"A  c #FCFEF5",
"S  c #F6F7F9",
"D  c #F9F7FF",
"F  c #F5F8FF",
"G  c #F7FAFF",
"H  c #F5F9FC",
"J  c #F4FDFC",
"K  c #F7FCFF",
"L  c #F5FFFE",
"P  c #F5FCFD",
"I  c #F9FBF8",
"U  c #F8FAF9",
"Y  c #FBFBF9",
"T  c #FAFAF8",
"R  c #F8F9FB",
"E  c #F9FBFA",
"W  c #FBFBFB",
"Q  c #F8F8F8",
"!  c #FCFAFB",
"~  c #FAFCF9",
"^  c #FBFDF8",
"/  c #F9FFF8",
"(  c #F8FCFB",
")  c #FBFDFA",
"_  c #F8FFFA",
"`  c #F9FEFA",
"'  c #FBFFFA",
"]  c #FCFDF8",
"[  c #FDFCF8",
"{  c #FEFDF8",
"}  c #FEFDF9",
"|  c #FCFFF8",
" . c #FCFEF9",
".. c #FDFFF9",
"X. c #FEFFF8",
"o. c #FFFFF8",
"O. c #FCFCFA",
"+. c #FDFCFA",
"@. c #FDFDFB",
"#. c #FFFDFA",
"$. c #FEFDFB",
"%. c #FCFFFA",
"&. c #FCFEFB",
"*. c #FCFFFB",
"=. c #FFFEFA",
"-. c #FEFFFA",
";. c #FFFFFA",
":. c #FFFEFB",
">. c #FEFFFB",
",. c #FFFFFB",
"<. c #F8F9FD",
"1. c GhostWhite",
"2. c #FBF8FF",
"3. c #FAF9FF",
"4. c #FAFAFF",
"5. c #FBFAFF",
"6. c #FBFBFF",
"7. c #FDFBFC",
"8. c #FDFBFE",
"9. c #FDFAFF",
"0. c #FDFBFF",
"q. c #FEFAFF",
"w. c #FEFBFF",
"e. c #FFFBFF",
"r. c #FBFDFC",
"t. c #FAFEFD",
"y. c #F9FCFF",
"u. c #F9FDFF",
"i. c #FAFCFF",
"p. c #FBFCFF",
"a. c #F8FFFF",
"s. c #F9FFFF",
"d. c #FBFEFF",
"f. c #FAFFFF",
"g. c #FBFFFF",
"h. c gray99",
"j. c #FDFDFD",
"k. c #FDFFFC",
"l. c #FCFEFD",
"z. c #FCFFFD",
"x. c #FEFEFC",
"c. c #FFFEFC",
"v. c #FEFFFD",
"b. c #FFFFFD",
"n. c #FCFCFF",
"m. c #FDFCFF",
"M. c #FDFDFF",
"N. c #FFFDFE",
"B. c #FEFCFF",
"V. c #FFFCFF",
"C. c #FEFDFF",
"Z. c #FFFDFF",
"A. c #FDFFFE",
"S. c #FDFEFF",
"D. c #FCFFFF",
"F. c #FEFEFE",
"G. c #FEFEFF",
"H. c #FFFEFF",
"J. c #FEFFFF",
"K. c white",
"L. c #FDFEFD",
/* pixels */
"K.K. .U K.K.K.T K.7.K.7. .K. .K. .K.p.l p. . .K.K.p.K.[ K. .K. .K.K.U U K.K.~ p.",
"K.K. .~ ~ K. .[ 7.Z  .7.K.A  . .K. .K.z  .[ K.7.[ A [ K.~  . . .K.7.K.K.K.~ K.H ",
"K.U U T U K.K. .K.h. .K.7.h. .~ K.B p.v p.K. .K.K.K.7.U  .~ | K.~ K.+.K.K.h.U U ",
"K.U T +.K.K.K. .h.h.Z F | p.p.| J L _ l L H | p. .[ K.~ L ~ p.p.p.K.7.K.K.h.h.U ",
"K.h. .K.K.K.K. . .K. .h.p.| p.        o   X     X p.U K.H K. .[ K.K.K.K.K.K. .K.",
"K. .+.K.7.K.K.[ 7.C  . .o O   b h N n h f n n n M . O    .K.B K.K. .U +.K.+.K.K.",
"p.p.+.+.+.K. .T K.K..   h h M q w e w w w r w w q b h n .   7. .K.+.+.+.+.+.+.+.",
"K.K.K.+.+.K.K.[ V o b h r w w r w w w w w w w w w w w e n g O [  .K.7. .K. .+.K.",
"p. .K.h.| L  .V   M q r q w w 0 < i < i i < < < i w w q r w n   A [ K.A p.K. .K.",
"~ | h.7.L Z K.O M q w w < < p - 2 2 2 2 2 2 2 5 - i < < w w q M o 7.[ K.p.p.C K.",
"K.K. .[ ~  .o n w w w p @ 5 # 3 t t t t , t t t 3 # - @ p w w q h o T  .[  .K.K.",
"K.Q  .K.h. .. h r w 1 - = & 8 > > 0 > 0 0 0 0 0 < 8 : , - 1 w r h .  .h.p. .C K.",
"A K.K.T p.  M e q p 5 * i i p w w w w w w w w w w p i i = 5 p q e n   K.U K.K.A ",
"K.T K.K.Z O h w w < ; : i q w w w w w w w w w w e w q i : ; < w w h O [ K.7.T K.",
"K.V K.p.U . n w w p # % p w r g n n n n n n n n g r w i : # p w w n . D K.7.V K.",
"K.[ K.| X b q r i @ 3 < w w h M h h h h h h h h n g w w > 3 @ i r q b X [ K. .K.",
"K.7.K.K.  h w w i @ : i w r h h h n   o M f   o g h w w 1 : - i w w h   K.7.7.K.",
"K.U V K.  N r w > 5 8 < w w M n h +   f f o g b   n w w p : 5 p w r M   K.[ T K.",
"p.~ K.~ o h w w 9 @ , 0 w w h h   X m f M M M f O h w r 1 u @ i w w n X p. .K.K.",
"l l k k o h w w i 5 = i w w g .   M b n d d h   s M r w 0 $ 5 > w w f o j c l l ",
"K.p.p.p.  h w w i 5 = i w w h . O   o   n M   M g n w w < y @ i w w n   p.p.p.p.",
"~ | K.p.  n r w 9 @ : i r w h h h f     s   o   + M w w i 3 @ i w r h X p.p.A p.",
"K.~  .[   n w w > 5 8 1 w w n M n g f f h n h h g h r w p u 5 > w w n    .[ K.K.",
"K.K.K.h.X M w w i @ 8 i w w h h h n n M b N h h n f w q i t @ 9 w w n    .K.K.7.",
" .K.K.|   g e w i @ 3 > w w g n h h h h h h h h n h w w > 4 @ i w q n   [ K. .K.",
"K.A K.~ Z   n w w p # 8 i w r g n n n n n n n n g r w p % # p w w M . D K. . .K.",
"K.A h.K.~ o h w q < ; : i q w e w w w w w w w w w w q i 8 ; < w w g O T p.p.A K.",
"[ K.7.| p.  n r w p 5 = i i p w w w w w w w w w w p < i * 2 p q r h o K.~ p.K. .",
"K.C K.h._ K.  n r w 1 - 4 & 8 < i 0 0 > 9 0 > > > 8 & = 7 1 w r g    .h.7.K.C K.",
"| [ K.K.p.p.  h q w w 1 @ 6 # 3 t t t t , = 4 , 3 # 6 @ p w w q M .  . . . .K.K.",
"p.Q  .7.p.Z 2.O M q w w 1 < i - 2 2 5 2 2 5 2 2 - i < < w w q M O K.~ K.K.2.[ 7.",
"| K. .K._ p.K.V   M w r q w w 0 < < i < i < < i i w w q r q M   V K.K. .7. .7.K.",
"K.K.U K. .7. .K.V o b b r w w r w w w w w r w w w w w e M f o V K. .K. .K. .K.+.",
"K.| 7.[ 7.[ 7.+.K.K.. . h h M q w r w r w r w w q n f h   o 7.K.p.~ +. .+.+.+.+.",
"K.K. .K.[ K.+.+.7.C  . .o O   b h N n f h h n n h   +   K.K.B ~ K.K.+. .K.+. .K.",
"K.K.K. .K. .K.K.[ K.[ h.p.| K.  X     o   X       ~ U K.C K.K.| K.7.K.K.K.K.K.K.",
"K.~ ~ | p. .K. .h.h.Z F Z L K.Z U L L j J H L p.~  .h._ H _ p.p.~ K.K.K.7.K. .U ",
"K.h.Q h.| K. .K.K.7. . .K.K.K.h.K.Z | v p.K. .K. .K.h.h.K.K.| K.K.U 7.K.K.U U U ",
"K. .p.A 7.[ K. .h.T  .+.K.A  . .K. . .z p.A 7.7.K.[ [ K.T  .K.K.K.K.h.K.K.p.~ L ",
"p.p.~ p. .K. .U  .7.K.K.A K. .K.[ K.K.l p.K. .K.~ h.K.[ 7. .7. .K.7.U K.7.p.K.~ "
};
