/* XPM */
static char *_a92ae3a80874e34a106b5fb89b68409uvI5p36aBPGOqXBw[] = {
/* columns rows colors chars-per-pixel */
"40 40 136 2 ",
"   c #000000",
".  c #0C0402",
"X  c #040904",
"o  c #0C0C04",
"O  c #03020A",
"+  c #08070C",
"@  c #040C0B",
"#  c #0B0A0B",
"$  c #13080E",
"%  c #050411",
"&  c #0C0515",
"*  c #0D0C12",
"=  c #03011A",
"-  c #080719",
";  c #03081C",
":  c #0E0C19",
">  c #131314",
",  c #011226",
"<  c #7C777E",
"1  c #7D7D7D",
"2  c #837D7D",
"3  c #7E827B",
"4  c #77897B",
"5  c #83827D",
"6  c #8A8A7E",
"7  c #7C7F82",
"8  c #7F7E8C",
"9  c #7175EB",
"0  c #6F70FC",
"q  c #7579F4",
"w  c #797BF6",
"e  c #7877F9",
"r  c #7A7EFA",
"t  c #827F86",
"y  c #847C8B",
"u  c #768484",
"i  c #758C84",
"p  c #6485E6",
"a  c #7C82F0",
"s  c #7C80FB",
"d  c #838283",
"f  c #888586",
"g  c #868688",
"h  c #B7B7B7",
"j  c #B8BDB7",
"k  c #B8B6BB",
"l  c #BDBDBD",
"z  c #C0BBB5",
"x  c #C0BFBD",
"c  c #BEC3BE",
"v  c #B5CABB",
"b  c #C2C2BD",
"n  c #BFBFC1",
"m  c #8186EC",
"M  c #8691ED",
"N  c #8385FF",
"B  c #C1BEC1",
"V  c #C4BDCD",
"C  c #B4C4C1",
"Z  c #BEC2C1",
"A  c #C2C2C3",
"S  c #C6C6C8",
"D  c #F4FCD5",
"F  c #ECEEED",
"G  c #F1EEEA",
"H  c #F9FDE4",
"J  c #F7F5E9",
"K  c #FBFDEE",
"L  c #EEF2F1",
"P  c #F4F4F4",
"I  c #F5F8F5",
"U  c #FCFDF6",
"Y  c #F6F6FC",
"T  c #F9F7F8",
"R  c #F6FCFA",
"E  c #F7FBFC",
"W  c #F6FAFA",
"Q  c #F8F8F8",
"!  c #F8FAF9",
"~  c #FBFBF9",
"^  c #FBF9FA",
"/  c #F9FBFA",
"(  c gray98",
")  c #FBFBFB",
"_  c #FCFAFB",
"`  c #FBFDF8",
"'  c #FAFFF8",
"]  c #F8FCFB",
"[  c #FBFDFA",
"{  c #FAFCFB",
"}  c #FDFCF8",
"|  c #FEFDF8",
" . c #FFFDF8",
".. c #FDFEF8",
"X. c #FCFFF8",
"o. c #FDFEF9",
"O. c #FFFEF9",
"+. c #FDFCFA",
"@. c #FDFDFB",
"#. c #FDFFFA",
"$. c #FEFFFA",
"%. c #FFFFFA",
"&. c #FEFFFB",
"*. c #FFFFFB",
"=. c #FBFBFD",
"-. c #F9F8FE",
";. c #FBF8FF",
":. c #FAFBFF",
">. c #FDFBFC",
",. c #FCF9FF",
"<. c #FCFAFF",
"1. c #FDFAFF",
"2. c #F9FDFC",
"3. c #FBFDFC",
"4. c #F9FFFD",
"5. c #FAFEFD",
"6. c #F9FDFE",
"7. c #FBFCFE",
"8. c #FBFFFF",
"9. c gray99",
"0. c #FDFDFD",
"q. c #FEFCFD",
"w. c #FCFEFD",
"e. c #FEFEFC",
"r. c #FFFEFC",
"t. c #FEFFFD",
"y. c #FFFFFD",
"u. c #FFFDFE",
"i. c #FEFDFF",
"p. c #FDFFFE",
"a. c #FCFFFF",
"s. c #FEFEFE",
"d. c #FEFEFF",
"f. c #FEFFFF",
"g. c white",
"h. c #FDFEFD",
/* pixels */
"e...:.U 7.' 7.A x 1   #   X   O                                                 ",
"..:.K Y U ..:.Z g d     O   X                                                   ",
"7.K Y K e.e.~ B f   X   $   X #                                                 ",
"' :.U ' e.U ,.x 1 X * .     >                                                   ",
"e.U e...U ,.U B 1 7     #     #                                                 ",
"' e...U e.K ,.b d   # #   #                                                     ",
"e...U e.U ,.K x d X #   +     X                                                 ",
"e...U U ..U ,.b d   #   . X   #                                                 ",
"e.^ 7.E Y T ,.b 2 1     X +                                                     ",
"^ e.E P e.B A x l g 3 1   # #                                                   ",
"e.F 7.E A l 1 1 d d 7 d   X   #                                                 ",
"..R W 7.n   g 5           # .                                                   ",
"e.7.E W S     . X O X #     # #                                                 ",
"..7.L 7.A d       # 1   #   #                                                   ",
"Q e.7.W n l d d 5 t 1 g d d 1                                                   ",
"e.' E 7.e.l A l A l A x 1 1 d                                                   ",
"e.7.7.7.7.7.7.e.R R 7.A 1 X +   @ X   , . = o @ = O   # O + X +                 ",
"....U U ......e.....G x b 5   o   . 2 4 2 f 2 d O + O O # X O                   ",
"e.e.7.7.7.e.e.e.Y P e.e.l A < d 3 d Y a H U G x 3 % % X     * :                 ",
"s s s s s s r s w s q w w N N 9 r e M p 9 m C v d % O   #     O                 ",
"e.e.e.e.e.e.e.e.e.~ P e.,.^ Q e.D U H 0 x k V 2 y   X O X * O +                 ",
"e.e.e.e.e.e.e.e.^ I e.P e.e.I I e.J n i 1 f t 5 % X X O O O #                   ",
"e.e.e.e.e.e.e.e.^ e.,.T P e.G c Z z 2 u $ O . = O + O   % O   *                 ",
"7.' ' e...' 7.' ..U Q ..I j Z c u f y X . & % ;   O - O   X O O                 ",
"e.e.e.e.e.e.e.e.e.! e.^ l d 2 t g     #                                         ",
"e.e.e.e.e.e.e.e.e...P e.l 7   X       # X #                                     ",
"e.e.e.e.e.e.e.e.Y P e.:.l d       X +     .                                     ",
"e.e.e.e.e.e.e.e.e.^ ^ ! S h d X       # #   + X                                 ",
"e.e.e.e.e.e.e.e.P e.^ e.P A d d   # X     #                                     ",
"e.e.e.e.e.e.e.e.e.Y P ^ ..A l 1 t     >   . X +                                 ",
"e.e.e.e.e.e.e.e.e.:.e.l l l l g d #     +   X                                   ",
"e.e.e.e.e.e.e.e.e.e.P A d A d 1 2 + X     X                                     ",
"e.e.^ ..e...e.e.Q ~ e.l d 3 X   O O + O O O   O                                 ",
"..e...e.U ,.U ..e.P e.l <     # * O O + X X O +                                 ",
"..e.e...e.U ,...^ P ^ Z 1 1       > +     X # O                                 ",
"e...e.....e.K e.e.e.P A A d d t 3 g < g   + O :                                 ",
"..7.U 7...U e...^ ^ e.e.A n Z g d d g     * O &                                 ",
"' U Y K e.e.Q :.e.:.S l l d d     O O # O X # O                                 ",
"' :.K :...e.e.e.e.:.h f t d #     + + &   +   O                                 ",
"e.e.:.Q e.e.e.e.' e.b 1   X       O O O O   X                                   "
};
