/* XPM */
static char *_cae0d565b444fe5870abeeb11eb5559BzAWiBgbo04xbzvQ[] = {
/* columns rows colors chars-per-pixel */
"40 40 133 2 ",
"   c black",
".  c #000100",
"X  c #010100",
"o  c #010101",
"O  c #030301",
"+  c #000002",
"@  c #020202",
"#  c gray1",
"$  c #040402",
"%  c #030305",
"&  c #040404",
"*  c gray2",
"=  c #050507",
"-  c #060606",
";  c #070707",
":  c #090A05",
">  c gray3",
",  c #090909",
"<  c gray4",
"1  c #0B0B0B",
"2  c gray48",
"3  c #7A7A7C",
"4  c gray49",
"5  c #7E7E7E",
"6  c gray50",
"7  c #81827D",
"8  c #808080",
"9  c #818181",
"0  c #808082",
"q  c gray51",
"w  c #838383",
"e  c #848484",
"r  c gray52",
"t  c #868686",
"y  c #878882",
"u  c #868688",
"i  c #888888",
"p  c #B5B8B1",
"a  c #BABBB5",
"s  c #B9B9B9",
"d  c #BBBBB9",
"f  c #BCBCBC",
"g  c gray74",
"h  c #BDBDBF",
"j  c gray",
"k  c gray75",
"l  c #BFC2B9",
"z  c #C0C0C0",
"x  c #C1C1C1",
"c  c #C3C3C1",
"v  c gray76",
"b  c #C3C3C3",
"n  c #C5C5C5",
"m  c #C7C7C5",
"M  c #C6C6C6",
"N  c #EFF1EC",
"B  c #F2F3EB",
"V  c #F1F4E9",
"C  c #F3F4EC",
"Z  c #F5F9EB",
"A  c #F7FBED",
"S  c #F5F8EF",
"D  c #F6F9EE",
"F  c #F7FAEF",
"G  c #F8FCED",
"H  c #FAFCEF",
"J  c #FAFEEF",
"K  c #FCFDED",
"L  c #FCFDEF",
"P  c gray96",
"I  c #F6F9F2",
"U  c #F8F9F3",
"Y  c #FAFBF3",
"T  c #F9FCF1",
"R  c #FAFEF0",
"E  c #F9FCF3",
"W  c #FCFCF0",
"Q  c #FCFFF2",
"!  c #FEFFF2",
"~  c #F9FAF4",
"^  c #FBFEF5",
"/  c #FBFCF6",
"(  c #FBFCF7",
")  c #F9FEF7",
"_  c #FBFEF7",
"`  c #FDFFF5",
"'  c #FDFCF7",
"]  c #FCFDF7",
"[  c #FCFFF6",
"{  c #FDFFF7",
"}  c #FEFEF6",
"|  c #FEFFF6",
" . c #FFFFF6",
".. c #FEFFF7",
"X. c #FFFFF7",
"o. c #F6F7F9",
"O. c #F7F7FF",
"+. c gray98",
"@. c #FCFBF9",
"#. c #FBFDF8",
"$. c #FDFCF8",
"%. c #FDFEF8",
"&. c #FEFFF9",
"*. c #FCFCFA",
"=. c #FDFDFB",
"-. c #FEFDFB",
";. c #FCFEFB",
":. c #FEFFFA",
">. c #FEFFFB",
",. c #FBFBFD",
"<. c #FBF8FF",
"1. c #FAF9FF",
"2. c #FAFBFF",
"3. c #FDFBFC",
"4. c #FCFAFD",
"5. c #FDFAFF",
"6. c #FCFBFF",
"7. c #FEFBFF",
"8. c #FBFDFC",
"9. c #FBFCFF",
"0. c gray99",
"q. c #FDFDFD",
"w. c #FFFCFD",
"e. c #FEFEFC",
"r. c #FEFFFD",
"t. c #FFFFFD",
"y. c #FDFDFF",
"u. c #FEFDFF",
"i. c #FDFFFE",
"p. c #FDFEFF",
"a. c #FEFEFE",
"s. c #FEFFFF",
"d. c white",
/* pixels */
"                                                                                ",
"                                                                                ",
"                                                                                ",
"                                                                                ",
"                                                                                ",
"                                                                                ",
"                                                                                ",
"                                                                                ",
"                                                                                ",
"                                                                                ",
"                                                                                ",
"                                                                                ",
"                                                                                ",
"                                                                                ",
"                                                                                ",
"                                                                                ",
"                                                                                ",
"                                                                                ",
"                                                                                ",
"                                                                                ",
"                                                                                ",
"                                                                                ",
"                                                                                ",
"                                                                                ",
"                                                      & &   &   $       $ $   : ",
"                                                  , 1         ,   r & 9 9   %   ",
"                                                  &   & 1 & ,     i k k 9 3 & & ",
"                                                  & & &     ,     d b n f c i   ",
"                                                  & ,   ,     r y Y V C Y I a 7 ",
"                                                      , & 6 r b p >.X.R D X.S l ",
"                                                & &       9 k k q.N / V Z R D X.",
"                                                    , 9 2 b k q.o.q.>./ I R Y I ",
"                                                &     9 n f +.q.>.*.X.q.X.+.X.>.",
"                                                  , ,   6 k q.P >.L 7.! q./ *.+.",
"                                                &     & 6 b q.q.X.<.L q.X.>.q./ ",
"                                                    ,   e k d q.*.! 7.X.>.2.>.;.",
"                                                  ,   & 9 i k k *.7.X.q.q.R 2./ ",
"                                                &   &     9 9 k 7.~ q.q.H <.H 2.",
"                                                  & & ,     9 n *.>.*.>.1.G 2./ ",
"                                                &         , 6 k q.q.>.q./ 1.X.;."
};
