/* XPM */
static char *eafde7a3aef24162c23ee9bd777ea921Y9HO6KH6NmOWKrRJ[] = {
/* columns rows colors chars-per-pixel */
"40 40 85 1 ",
"  c black",
". c #010101",
"X c #020202",
"o c gray1",
"O c #040404",
"+ c gray2",
"@ c #060606",
"# c #070707",
"$ c gray3",
"% c #797979",
"& c #7C7C7C",
"* c gray49",
"= c #7E7E7E",
"- c gray50",
"; c #808080",
": c #818181",
"> c gray51",
", c #848484",
"< c gray52",
"1 c #BBBBBB",
"2 c #BCBCBC",
"3 c gray74",
"4 c gray",
"5 c gray75",
"6 c #C0C0C0",
"7 c #C1C1C1",
"8 c gray76",
"9 c #C3C3C3",
"0 c gray77",
"q c #F9FDEF",
"w c #FCFDEF",
"e c gray97",
"r c #F8FBF0",
"t c #FAFCF1",
"y c #FAFEF0",
"u c #FCFCF2",
"i c #FDFDF3",
"p c #FDFFF2",
"a c #FDFFF7",
"s c #F7F7FF",
"d c #F9F9F9",
"f c #FBFBF9",
"g c gray98",
"h c #FBFBFB",
"j c #FCFBF9",
"k c #FCFAFB",
"l c #FBFDF8",
"z c #FAFFF9",
"x c #FDFCF8",
"c c #FCFDF8",
"v c #FEFDF8",
"b c #FDFEF8",
"n c #FDFEF9",
"m c #FFFFF8",
"M c #FFFEF9",
"N c #FEFFF9",
"B c #FCFCFA",
"V c #FDFCFA",
"C c #FCFEFB",
"Z c #FEFFFA",
"A c #FBF8FF",
"S c #FAF9FF",
"D c #FAFAFF",
"F c #FBFBFF",
"G c #FDFAFF",
"H c #FCFBFF",
"J c #FDFBFF",
"K c #FEFBFF",
"L c #FFFBFF",
"P c #FBFCFF",
"I c gray99",
"U c #FDFDFD",
"Y c #FEFCFD",
"T c #FCFEFD",
"R c #FEFEFC",
"E c #FFFFFD",
"W c #FDFCFF",
"Q c #FCFDFF",
"! c #FDFDFF",
"~ c #FEFDFF",
"^ c #FDFEFF",
"/ c #FEFEFE",
"( c #FEFEFF",
") c #FEFFFF",
"_ c white",
/* pixels */
"                                        ",
"                                        ",
"                                        ",
"                                        ",
"                                        ",
"                                        ",
"                                        ",
"                                        ",
"                                        ",
"                                        ",
"                                        ",
"                                        ",
"                                        ",
"                                        ",
"                                        ",
"                                        ",
"                                        ",
"                                        ",
"                                        ",
"                                        ",
"                                        ",
"                                        ",
"                                        ",
"                                        ",
"  +                                     ",
" +    $    ++ +                         ",
"    $   +  $  +                         ",
" ++    >> $  +                          ",
"   =<>=6=  + +                          ",
"+ =<50550>=                             ",
"=>=61___16>  $                          ",
"6655__d__65<  +                         ",
"__dxHj_xj_6;                            ",
"_hxHuHuj_e5=   o                        ",
"h__xHw_x__5> +                          ",
"Pa__x_p___6;  ++                        ",
"lSy__a_d_d6= +                          ",
"Sqsq_xxj660>                            ",
"xSqPh_lx66%+ o+                         ",
"_lPhhhlx6>   o o                        "
};
