/* XPM */
static char *dG9wdm9pZCUyODElMjklMjgxJTI5[] = {
/* columns rows colors chars-per-pixel */
"40 40 123 2 ",
"   c #010101",
".  c #090204",
"X  c #050905",
"o  c #0A0C03",
"O  c #03030B",
"+  c #08070C",
"@  c #050908",
"#  c #0B0B0B",
"$  c #031004",
"%  c #0F1305",
"&  c #030312",
"*  c #070916",
"=  c #0C0A14",
"-  c #030019",
";  c #09051E",
":  c #0D0B1C",
">  c #100F13",
",  c #00171E",
"<  c #131313",
"1  c #141318",
"2  c #030325",
"3  c #080A23",
"4  c #140C23",
"5  c #7D7D7D",
"6  c #837E6B",
"7  c #877D7C",
"8  c #7E867A",
"9  c #828B76",
"0  c #81817F",
"q  c #7C7E80",
"w  c #837C82",
"e  c #8A7F8F",
"r  c #807593",
"t  c #847F93",
"y  c #7F85F3",
"u  c #7E95F5",
"i  c #838283",
"p  c #888687",
"a  c #8C8C82",
"s  c #878789",
"d  c #898889",
"f  c #818493",
"g  c #BEBCAF",
"h  c #BFBCB3",
"j  c #BCBCBC",
"k  c #C0BFBE",
"l  c #B7C5B8",
"z  c #BCC3BB",
"x  c #C1C2BE",
"c  c #BFBEC0",
"v  c #8387F4",
"b  c #8886F1",
"n  c #8388F0",
"m  c #8E8BF4",
"M  c #8C86FF",
"N  c #858BFC",
"B  c #8A8DFB",
"V  c #9083F9",
"C  c #908CFF",
"Z  c #8C91FF",
"A  c #9190FF",
"S  c #C2BFC2",
"D  c #BBC2C3",
"F  c #C2C2C3",
"G  c #C6C6C8",
"H  c #CBCBCD",
"J  c #F8FDDF",
"K  c #EDEEEE",
"L  c #F9FFE4",
"P  c #F3F4EF",
"I  c #F9F4EE",
"U  c #FFFFEB",
"Y  c #F8F8EC",
"T  c #FAFAEE",
"R  c #F8FCEE",
"E  c #FAFCEE",
"W  c #E8E7F5",
"Q  c #F1EFF4",
"!  c gray95",
"~  c #F2F2F4",
"^  c #F5F0F6",
"/  c #F4F4F4",
"(  c gray96",
")  c gray97",
"_  c #F3F4F4",
"`  c #F8F7F5",
"'  c #F5F8F1",
"]  c #F6F9F2",
"[  c #F5FAF3",
"{  c #F5FDF0",
"}  c #F4F8F7",
"|  c #F5F9F6",
" . c #FCFEF1",
".. c #FEFFF1",
"X. c #F9FAF4",
"o. c #F8FDF6",
"O. c #F9FEF7",
"+. c #FFFFF4",
"@. c #FDFEF4",
"#. c #F7F7FF",
"$. c #F9F4FA",
"%. c #FAF5FB",
"&. c #FAF7FD",
"*. c #F7FBFA",
"=. c #F8F8F8",
"-. c gray98",
";. c #FBFBFB",
":. c #FCFDF8",
">. c #FDFEF8",
",. c #FEFFF9",
"<. c #FFFFFA",
"1. c #FBFBFD",
"2. c #FEF8FF",
"3. c #FDFBFF",
"4. c gray99",
"5. c #FDFDFD",
"6. c #FFFFFD",
"7. c #FCFDFF",
"8. c #FEFEFE",
"9. c #FEFEFF",
"0. c #FEFFFF",
"q. c white",
"w. c #FDFEFC",
/* pixels */
"                                                                                ",
"                                                                                ",
"                                                                                ",
"                                                                                ",
"                                                                                ",
"                                                                                ",
"                                                                                ",
"                                                                                ",
"                                O *     = :   O                                 ",
"                                O   < .   > & o                                 ",
"                                X & & >   O O #                                 ",
"                                  ; O   < O o O                                 ",
"                                  O *   o O   =                                 ",
"                                : O o   O   @ O                                 ",
"                                & @   3 O O X &                                 ",
"                                @   O M 9 f   *                                 ",
".   O * : O = O .   # @   @     & 3 8 N l c s X                                 ",
"X   = O   =       # @   #     . -   f B D W 7 o                                 ",
"  + X < + X X .     # #   # @ @ 4   a v L U e 2                                 ",
"O O     .   . @ . >     #   @   . + r m J -.w o                                 ",
"O * > . s   O O     <   @   > # X A b u N n m ,                                 ",
"O O   s 5 O = & @   @     @     t 5 k C E 2.9                                   ",
"O +   s d 1   O X #   #   X     i h I M U 9 . @                                 ",
"      i i   = @ 5 s 7         p q D o.B R 8 . #                                 ",
"X     s i   +   5 i 5 p       i z D ' Z R 5 #       X #   #     # X   @   @   . ",
"  = p F q .   . i j j p i X   5 x Q ' y @.5 . X i i # @ . X +       .   1 + X   ",
". i w D w q X 0 G j F F j 5 5 p l 3.<.N @.F i . 5 i     > @ @ > #   #   .   o @ ",
"  8 F G c 5 5 8 5 j 1.! G j j j X.Q <.v Y j k 8 8 w +           # #   #   <     ",
"0 s j 6.G F j j F F 6.6.( ) 6.-.:.$.X.Z +.7.j F j i   <   0 w X X   #   @     # ",
"j j F 1.~ } -.<.( -.~ ( 1.6.) 1.o.$.<.v  .6.P } F i 5 X   i i   # # + . < #     ",
"6.-.( 6.6.! K 6.6.-.-.6.-.! 1.-.X.3. .B @.~ 6.} j i + #   7 i i       0     s 5 ",
"-.6.3.1.1.-.6./ 1.6.7.! 6.( :.1.<.&.X.B  .} <.} D 7   X   i j 5 i i i 5 i d p j ",
"6.6.-.<.6.<.3.<.<.6.6.6.6.6.6.6.O.7.:.B  .6.<.:.z 5   @ i 5 j x x S x k j S F F ",
"6.-.o.7.@.&.@.3.6.<.6.6.1.6.<.6.O.3.:.B @.6.:.1.F p     p 5 F 3.6.T 2.@.1.:.1.7.",
"3.1.<.+.3.U 3.<.6.6.3.6.6.6.1.6.O.1.<.B @.6.:.1.j j w     c j -.X.2.T 3.+.1.1.X.",
"6.+.6.6.+.6.@.6.6.6.6.6.6.6.6.6.:.6.<.B @.<.:.O.6.F F H j F 6.} 6.@.6.+.6.6.+.7.",
"-.#.Y 6.6.<.7.:.6.6.6.6.6.6.6.6.:.6.:.B @.7.:.O.1.~ 7.1.1.*._ #. .1.+.:.1.Y #. .",
"7.R #. .7.<.<.:.6.6.6.6.6.6.6.6.O.6.:.N @.6.:.O.} 7._ } } 7.} 7.-.<.<.6. .#.R 6.",
":.1.{ 6.+.6.:.:.6.6.6.6.6.6.6.6.o.7.:.B U 6.2.o.7.-.:.7.7.K :.} -.-.<.o.7.R #.<.",
"6.:.7.o.:.:.<.7.6.6.6.6.6.6.6.6.O.7.:.B @.6.<.7.6.( <.6._ 6.:.6.<.<.+.7.O.7.o.6."
};
