/* XPM */
static char *_3b5dcf29e2a4cece7cde4c2ed381e8eXZYOEUc8icenCUfM[] = {
/* columns rows colors chars-per-pixel */
"40 40 129 2 ",
"   c #010101",
".  c #02010A",
"X  c #08070F",
"o  c #090909",
"O  c #040312",
"+  c #7D7E76",
"@  c #777978",
"#  c #7D7D7D",
"$  c #807F7D",
"%  c #7F817A",
"&  c #81817E",
"*  c #7E7E81",
"=  c #8576FF",
"-  c #8A79FF",
";  c #917EFF",
":  c #7F8180",
">  c #828282",
",  c #888687",
"<  c #858688",
"1  c #BDBDBD",
"2  c #C0BFBE",
"3  c #BFC3B5",
"4  c #BEC1BC",
"5  c #C0C2B7",
"6  c #C2C1BC",
"7  c #B6B9C0",
"8  c #BEBEC0",
"9  c #BDBFCB",
"0  c #8C81E7",
"q  c #8B80E8",
"w  c #9086E7",
"e  c #C0BDC4",
"r  c #C2BFCA",
"t  c #BFC1C0",
"y  c #BFC1CE",
"u  c #C2C3C3",
"i  c #C7C5C8",
"p  c gray79",
"a  c #F4F6EC",
"s  c #F6FAEC",
"d  c #F9FDEF",
"f  c #F5F4F4",
"g  c #F8F6F7",
"h  c #F6FAF3",
"j  c #FEFFF5",
"k  c #FCFDF7",
"l  c #FDFEF6",
"z  c #FFFFF6",
"x  c #FDFEF4",
"c  c #FCFDF3",
"v  c #F2F7FA",
"b  c #F7F7F9",
"n  c #F6F3FC",
"m  c #F6F6FF",
"M  c #F6F5FD",
"N  c #F8F7FC",
"B  c #F9F6FF",
"V  c #F9F7FF",
"C  c #FAF7FF",
"Z  c #F6FAF9",
"A  c #F6FCFA",
"S  c #F8F8F8",
"D  c #F9F9F9",
"F  c #F8FAF9",
"G  c #FAFAF8",
"H  c #F8F9FB",
"J  c #FBF9FA",
"K  c #FAF8FB",
"L  c #F9FBFA",
"P  c gray98",
"I  c #FBFBFB",
"U  c #FCFAFB",
"Y  c #FAFCF9",
"T  c #F9FFF9",
"R  c #FBFDFA",
"E  c #FAFCFB",
"W  c #FBFFFA",
"Q  c #FCFDF8",
"!  c #FEFDF8",
"~  c #FCFFF8",
"^  c #FCFEF9",
"/  c #FFFFF8",
"(  c #FCFCFA",
")  c #FDFDFB",
"_  c #FDFFFA",
"`  c #FCFEFB",
"'  c #FEFFFA",
"]  c #FFFFFA",
"[  c #FFFFFB",
"{  c #F9FAFC",
"}  c #FAFAFC",
"|  c #FAFBFD",
" . c #FBFBFD",
".. c #F9F9FF",
"X. c #FBF8FF",
"o. c #FAF9FF",
"O. c #FBFAFF",
"+. c #FEF9FF",
"@. c #FCFBFF",
"#. c #FBFDFC",
"$. c #FBFFFC",
"%. c #FBFCFE",
"&. c #FBFEFF",
"*. c #FBFFFF",
"=. c gray99",
"-. c #FDFDFD",
";. c #FEFCFD",
":. c #FFFCFD",
">. c #FDFFFC",
",. c #FCFEFD",
"<. c #FEFEFC",
"1. c #FEFFFD",
"2. c #FFFFFD",
"3. c #FCFCFE",
"4. c #FCFCFF",
"5. c #FDFCFF",
"6. c #FCFDFF",
"7. c #FDFDFF",
"8. c #FFFDFE",
"9. c #FFFDFF",
"0. c #FDFFFE",
"q. c #FDFEFF",
"w. c #FCFFFF",
"e. c #FEFEFE",
"r. c #FEFEFF",
"t. c #FFFEFF",
"y. c #FEFFFF",
"u. c white",
"i. c #FDFEFD",
/* pixels */
";.I ;.;.#.#.;.I ;.;.;.;.;.;.#.u u 1 > > 1 u u 1 ;.;.;.;.#.;.;.;.;.[ ~ ;.[ Z [ #.",
";.;.  ;.;.1 u 1 8 u ;.;.i u u > * * * > > > # u ;.;.;.I ;.;.L ;.S I ;.k ;.d ;.L ",
"U I       > # , > 8 u u % # > %               > u ;.I ;.L #.;.;.;.[ ;.;.d M c #.",
"#.I             > % # > *                     > % 8 u 1 i u u ;.S I [ [ ;.c ..L ",
";.;.I ;.          , ,                     o     > # > > % > 1 ;.;.k ;.k ;.;.[ ;.",
"L ;.;.;.I                 o                           * # > > t f ;.d ;.k ;.#.;.",
";.f S U I                                             >     > 1 i a B x ;.[ ;.#.",
"#.;.I ;.                                                    # > 6 ;.[ ;.~ I ;.;.",
";.;.;.;.    o                                             > > > 4 ;.;.#.;.;.;.;.",
";.;.u %                                                       # u I ;.;.#.#.;.;.",
"#.;.t >                                                           ;.#.;.;.;.;.L ",
";.;.8 #                                           o                 ;.;.#.#.#.;.",
";.1 *   .   o                                                       ;.#.;.;.;.;.",
";.;.1 >                                                           ;.;.;.#.;.;.;.",
";.;.i : >                                                           o   ;.#.;.;.",
";.;.4 %                                           o                   . ;.#.;.[ ",
";.[ e >       .                                                           ;.;.d ",
"c [ 1 >                                                               . X L h L ",
"#.h u % & .   X                                                 . o       #.*.;.",
"- 0 y % % o                                                       O .     q - - ",
"L 4 y % , .   O                                                         A #.v [ ",
";.7 4 : . . X                                                     .   ;.;.#.#.d ",
";.4 > >                                                             ;.{ ;.{ ;.L ",
"d i # #     . .                                                     [ k [ ;.[ [ ",
";.6 8 < #                                                             [ ;.;.L ;.",
"L u t t <       o                                       o             . #.;.[ [ ",
";.;.L #.;.                o       o                         o         o . ;.;.;.",
";.;.;.;.#.;.                                                        . .   L ;.;.",
";.;.A ;.;.A ;.                              o                         o   ;.[ ;.",
";.;.;.;.#.;.I ;.;.;.;.;.        ;.                                > > * # u I ;.",
";.;.#.#.;.;.;.;.;.          o   ;.I         o               o > : @ t i u ;.;.;.",
";.;.;.#.;.t %                   ;.;.  o                       > # p 8 ;.;.#.;.;.",
";.;.{ ;.+.2 >         .     o   ;.[ ;.  .     .     o           & 2 [ ;.[ g [ ;.",
";.;.;.{ k e > $         >     ;.;.x k O   .   o                 * 6 +.x ;.[ I I ",
";.k ;.[ B 6 * % >     % # > > ;.                      o       > # i x n k [ #.;.",
";.Z ;.;.1 u 1 i @ > > > 4 4 i L ;..           .               > u 5 ;.k ;.;.[ Z ",
"L [ L ;.[ ;.4 1 t t 1 4 t A #.;.;.;.. O #.  o .     o       o @ $ 1 k ;.;.x M [ ",
";.a #.h #.[ ;.;.;.#.#.;.;.;.L ;.h [ L 0 #.  .               > t 8 ;.;.L x ;.s ;.",
"[ #.~ ;.[ { [ f ;.;.#.;.;.#.;.;.;.h L = #.#.;.c     > # > % 1 u +.I f k #.s ;.L ",
"L ;.#.h #.;.f ;.;.#.;.;.;.#.;.;.;.~ h = *.~ [ ;.;.;.u u u 1 u ;.;.I L S L { L ;."
};
